<svg height="465" viewBox="0 0 1416 465" width="1416" xmlns="http://www.w3.org/2000/svg" xmlns:xlink="http://www.w3.org/1999/xlink"><defs><filter id="a" height="282.5%" width="281.7%" x="-91.2%" y="-91.2%"><feOffset dx="0" dy="0" in="SourceAlpha" result="shadowOffsetOuter1"/><feGaussianBlur in="shadowOffsetOuter1" result="shadowBlurOuter1" stdDeviation="7.5"/><feColorMatrix in="shadowBlurOuter1" result="shadowMatrixOuter1" type="matrix" values="0 0 0 0 0   0 0 0 0 0   0 0 0 0 0  0 0 0 0.2 0"/><feMerge><feMergeNode in="shadowMatrixOuter1"/><feMergeNode in="SourceGraphic"/></feMerge></filter><ellipse id="b" cx="19.836188" cy="20" rx="19.836188" ry="20"/><filter id="c" height="152.5%" width="152.9%" x="-26.5%" y="-26.2%"><feOffset dx="0" dy="0" in="SourceAlpha" result="shadowOffsetOuter1"/><feGaussianBlur in="shadowOffsetOuter1" result="shadowBlurOuter1" stdDeviation="3.5"/><feColorMatrix in="shadowBlurOuter1" type="matrix" values="0 0 0 0 0.926432292   0 0 0 0 0.926432292   0 0 0 0 0.926432292  0 0 0 0.5 0"/></filter><circle id="d" cx="1131" cy="111" r="20"/><filter id="e" height="160%" width="160%" x="-30%" y="-30%"><feOffset dx="0" dy="0" in="SourceAlpha" result="shadowOffsetOuter1"/><feGaussianBlur in="shadowOffsetOuter1" result="shadowBlurOuter1" stdDeviation="4"/><feColorMatrix in="shadowBlurOuter1" type="matrix" values="0 0 0 0 0   0 0 0 0 0   0 0 0 0 0  0 0 0 0.2 0"/></filter><circle id="f" cx="355" cy="131" r="20"/><filter id="g" height="160%" width="160%" x="-30%" y="-30%"><feOffset dx="0" dy="0" in="SourceAlpha" result="shadowOffsetOuter1"/><feGaussianBlur in="shadowOffsetOuter1" result="shadowBlurOuter1" stdDeviation="4"/><feColorMatrix in="shadowBlurOuter1" type="matrix" values="0 0 0 0 0   0 0 0 0 0   0 0 0 0 0  0 0 0 0.2 0"/></filter></defs><g fill="none" fill-rule="evenodd"><path d="m0 0h1416v465h-1416z" fill="#fff"/><g fill="#e7edf6"><circle cx="174" cy="111" r="37"/><circle cx="1240" cy="53" r="12"/><circle cx="1094" cy="111" r="37"/></g><g filter="url(#a)" transform="translate(190 72)"><use fill="#000" filter="url(#c)" xlink:href="#b"/><use fill="#fdbe2d" fill-rule="evenodd" xlink:href="#b"/><path d="m16.2230082 0h-14.01960785c-.89307598 0-1.61764706.70261438-1.61764706 1.56862745v9.41176475c0 .866013.72457108 1.5686274 1.61764706 1.5686274h14.01960785c.893076 0 1.617647-.7026144 1.617647-1.5686274v-9.41176475c0-.86601307-.724571-1.56862745-1.617647-1.56862745zm-14.01960785 1.04575163h14.01960785c.2965686 0 .5392157.23529412.5392157.52287582v1.35294118c-.7380515.60457516-1.7928922 1.43790849-5.0753677 3.96405229-.5695465.43790849-1.69178919 1.49346405-2.47365193 1.48039215-.78186275.0130719-1.90747549-1.04248366-2.47365196-1.48039215-3.28247549-2.5261438-4.33731618-3.35947713-5.07536765-3.96405229v-1.35294118c0-.2875817.24264706-.52287582.53921569-.52287582zm14.01960785 10.45751637h-14.01960785c-.29656863 0-.53921569-.2352941-.53921569-.5228758v-6.69934645c.76838235.61111111 1.98161765 1.55555556 4.40471814 3.42156863.6908701.53594771 1.91084559 1.71568627 3.14430147 1.70915033 1.22671573.00980392 2.43658093-1.16013072 3.14430143-1.70915033 2.4231005-1.86601307 3.6363358-2.81045752 4.4047182-3.42156863v6.69934645c0 .2875817-.2426471.5228758-.5392157.5228758z" fill="#fff" fill-rule="nonzero" transform="translate(10.369488 13.228758)"/></g><use fill="#000" filter="url(#e)" xlink:href="#d"/><use fill="#43c3af" fill-rule="evenodd" xlink:href="#d"/><path d="m19.6444444 6.85714286c1.5961112 0 2.8888889-1.27857143 2.8888889-2.85714286s-1.2927777-2.85714286-2.8888889-2.85714286c-1.5961111 0-2.8888888 1.27857143-2.8888888 2.85714286s1.2927777 2.85714286 2.8888888 2.85714286zm0-4.57142857c.9569445 0 1.7333334.76785714 1.7333334 1.71428571s-.7763889 1.71428571-1.7333334 1.71428571c-.9569444 0-1.7333333-.76785714-1.7333333-1.71428571s.7763889-1.71428571 1.7333333-1.71428571zm-8.0888888 5.71428571c2.2352777 0 4.0444444-1.78928571 4.0444444-4s-1.8091667-4-4.0444444-4c-2.23527782 0-4.04444449 1.78928571-4.04444449 4s1.80916667 4 4.04444449 4zm0-6.85714286c1.5925 0 2.8888888 1.28214286 2.8888888 2.85714286s-1.2963888 2.85714286-2.8888888 2.85714286c-1.59250004 0-2.88888893-1.28214286-2.88888893-2.85714286s1.29638889-2.85714286 2.88888893-2.85714286zm8.8111111 6.85714286h-1.4444445c-.5488889 0-1.0580555.17142857-1.4841666.46071429.3394444.22857142.6463888.49642857.9172222.8.1769444-.075.3683333-.11785715.5669444-.11785715h1.4444445c.8738889 0 1.5888889.76785715 1.5888889 1.71428576 0 .3142857.26.5714285.5777777.5714285.3177778 0 .5777778-.2571428.5777778-.5714285 0-1.57500004-1.2313889-2.8571429-2.7444444-2.8571429zm-16.90000003-1.14285714c1.59611111 0 2.88888889-1.27857143 2.88888889-2.85714286s-1.29277778-2.85714286-2.88888889-2.85714286-2.88888889 1.27857143-2.88888889 2.85714286 1.29277778 2.85714286 2.88888889 2.85714286zm0-4.57142857c.95694444 0 1.73333333.76785714 1.73333333 1.71428571s-.77638889 1.71428571-1.73333333 1.71428571c-.95694445 0-1.73333334-.76785714-1.73333334-1.71428571s.77638889-1.71428571 1.73333334-1.71428571zm10.98138893 6.42857142c-1.2061112 0-1.5058334.42857143-2.8925.42857143-1.3866667 0-1.68638893-.42857143-2.89250004-.42857143-1.31083334 0-2.58555556.57857143-3.33305556 1.67499999-.44777778.6571429-.70777778 1.4464286-.70777778 2.2964286v1.6c0 .9464286.77638889 1.7142857 1.73333334 1.7142857h10.40000004c.9569444 0 1.7333333-.7678571 1.7333333-1.7142857v-1.6c0-.85-.26-1.6392857-.7077778-2.2964286-.7475-1.09642856-2.0222222-1.67499999-3.3330555-1.67499999zm2.8852777 5.57142859c0 .3142857-.26.5714286-.5777777.5714286h-10.40000004c-.31777778 0-.57777778-.2571429-.57777778-.5714286v-1.6c0-.5928572.17694444-1.1678572.50916666-1.6571429.49833334-.7321428 1.38666667-1.17142854 2.3725-1.17142854.98944445 0 1.34333336.42857144 2.89611116.42857144 1.5527777 0 1.9066666-.42857144 2.8925-.42857144.9858333 0 1.8741666.43928574 2.3725 1.17142854.3322222.4892857.5091666 1.0642857.5091666 1.6571429v1.6zm-11.66027774-5.82500001c-.42972223-.28928572-.93888889-.46071429-1.48416667-.46071429h-1.44444445c-1.51305555 0-2.74444444 1.28214286-2.74444444 2.8571429 0 .3142857.26.5714285.57777778.5714285s.57777778-.2571428.57777778-.5714285c0-.94642861.715-1.71428576 1.58888888-1.71428576h1.44444445c.19861111 0 .39.04285715.56694444.11785715.27083334-.30357143.58138889-.57142858.91722223-.8z" fill="#fff" fill-rule="nonzero" transform="translate(1119 103)"/><use fill="#000" filter="url(#g)" xlink:href="#f"/><use fill="#234c7c" fill-rule="evenodd" xlink:href="#f"/><path d="m17.4142359 11.3365539h-15.67632848v-11.07890495c0-.14235104-.11890097-.25764895-.26570049-.25764895h-.53140096c-.14679952 0-.26570048.11529791-.26570048.25764895v11.59420295c0 .284702.23780193.5152979.53140096.5152979h16.20772945c.1467995 0 .2657005-.1152979.2657005-.257649v-.5152979c0-.142351-.118901-.257649-.2657005-.257649zm-13.47300723-4.92657c-.10362318.10048309-.10362318.26376811 0 .3642512l.37563406.36425121c.10362319.10048309.27201087.10048309.37563406 0l2.41422101-2.31916264 2.81277174 2.72753623c.20757846.20128825.54402176.20128825.75160026 0l3.1063708-3.01223832 1.4626811 1.41835749c.1644022.15942029.3663346.23059581.5646135.23059581.4144928 0 .8123793-.31239936.8123793-.78389694v-3.84766506c0-.2879227-.2407911-.52141707-.5377114-.52141707h-3.9679046c-.7187198 0-1.0784118.84251208-.5702596 1.3352657l1.4849335 1.43993559-2.7307367 2.64798712-2.81077896-2.72560387c-.20691425-.20064412-.54202898-.20128824-.74960749-.0016103zm8.78870773-4.34879227h2.8243961v2.73880837z" fill="#fff" fill-rule="nonzero" transform="translate(346 125)"/><circle cx="941" cy="29" fill="#e75768" r="4"/><circle cx="1248" cy="148" fill="#fdbe2d" r="4"/><circle cx="323" cy="61" fill="#234c7c" r="4"/><circle cx="224" cy="177" fill="#e75768" r="4"/></g></svg>