<?xml version="1.0" encoding="utf-8"?>
<!-- Generator: Adobe Illustrator 22.0.0, SVG Export Plug-In . SVG Version: 6.00 Build 0)  -->
<svg version="1.1" id="Layer_1" xmlns="http://www.w3.org/2000/svg" xmlns:xlink="http://www.w3.org/1999/xlink" x="0px" y="0px"
	 viewBox="0 0 1200 996.2" style="enable-background:new 0 0 1200 996.2;" xml:space="preserve">
<style type="text/css">
	.st0{fill:#FFFFFF;}
	.st1{fill:#E6E6E6;}
	.st2{fill:#06597A;}
	.st3{fill:#FECA7A;}
	.st4{fill:#D84774;}
	.st5{fill:#16D8D8;}
	.st6{fill:#F24C88;}
	.st7{fill:#00ACB3;}
	.st8{fill:#F79663;}
	.st9{fill:#C8C8C8;}
	.st10{fill:none;stroke:#E6E6E6;stroke-miterlimit:10;}
	.st11{fill:#101528;}
	.st12{fill:#2463AF;}
	.st13{fill:#004173;}
	.st14{fill:none;stroke:#FFFFFF;stroke-width:0.25;stroke-miterlimit:10;}
	.st15{fill:#FFFFFF;stroke:#101528;stroke-width:0.25;stroke-miterlimit:10;}
	.st16{clip-path:url(#SVGID_2_);}
	.st17{clip-path:url(#SVGID_4_);}
	.st18{clip-path:url(#SVGID_6_);}
	.st19{fill:none;stroke:#101528;stroke-width:0.25;stroke-miterlimit:10;}
	.st20{clip-path:url(#SVGID_8_);}
	.st21{fill:#FFFFFF;stroke:#2463AF;stroke-width:0.25;stroke-miterlimit:10;}
	.st22{fill:none;stroke:#2463AF;stroke-width:0.25;stroke-miterlimit:10;}
	.st23{opacity:0.5;fill:#1D1D1B;enable-background:new    ;}
	.st24{fill:#101527;}
</style>
<g>
	<g id="Capa_1">
		
			<image style="overflow:visible;opacity:0.15;enable-background:new    ;" width="1928" height="1909" xlink:href="C0E2C064006AC58B.png"  transform="matrix(0.48 0 0 0.48 217.2 6.96)">
		</image>
		<path class="st0" d="M250.5,32h848.7c4.4,0,8,3.6,8,8v840.2c0,4.4-3.6,8-8,8H250.5c-4.4,0-8-3.6-8-8V40
			C242.5,35.6,246.1,32,250.5,32z"/>
		
			<image style="overflow:visible;opacity:0.15;enable-background:new    ;" width="1257" height="1630" xlink:href="C0E2C064006AC58C.png"  transform="matrix(0.48 0 0 0.48 510 140.88)">
		</image>
		<path class="st0" d="M535.1,888.2V177.5c0-6.4,5.2-11.5,11.6-11.5h519.7c6.4,0,11.6,5.2,11.6,11.5v710.7H535.1z"/>
		<rect x="570.4" y="191.3" class="st1" width="99.4" height="9.8"/>
		
			<image style="overflow:visible;opacity:0.15;enable-background:new    ;" width="1140" height="313" xlink:href="C0E2C064006AC58D.png"  transform="matrix(0.48 0 0 0.48 545.04 198.48)">
		</image>
		<path class="st0" d="M578.4,223.5h470.5c4.4,0,8,3.6,8,8v73.8c0,4.4-3.6,8-8,8H578.4c-4.4,0-8-3.6-8-8v-73.8
			C570.4,227.1,574,223.5,578.4,223.5z"/>
		<polygon class="st2" points="795.2,265 795.5,279 825,295.2 854,277.9 853.8,265.3 843.6,265.3 843.9,272.2 824.7,283.7 
			805.3,273 805,265 		"/>
		<polygon class="st2" points="773.3,272.4 773.5,258.8 803.1,242.3 832.1,259.9 831.9,272.2 822,272.2 822,265.3 802.8,253.8 
			783.4,264.5 783.4,272.4 		"/>
		
			<image style="overflow:visible;opacity:0.15;enable-background:new    ;" width="1140" height="1262" xlink:href="C0E2C064006AC58F.png"  transform="matrix(0.48 0 0 0.48 545.04 317.52)">
		</image>
		<path class="st0" d="M570.4,888.2V362.8c0-11.1,9.7-20.1,21.6-20.1h443.4c11.9,0,21.6,9,21.6,20.1v525.4L570.4,888.2z"/>
		<rect x="933.7" y="735.4" class="st3" width="33.8" height="153"/>
		<rect x="819" y="807" class="st4" width="33.8" height="81.5"/>
		<rect x="761.6" y="834.6" class="st5" width="33.8" height="53.8"/>
		<rect x="704.2" y="853.5" class="st6" width="33.8" height="35"/>
		<rect x="646.8" y="865.1" class="st7" width="33.8" height="23.4"/>
		<rect x="876.3" y="774.8" class="st8" width="33.8" height="113.7"/>
		<rect x="599.9" y="375.5" class="st9" width="69.9" height="9.8"/>
		<rect x="599.9" y="500.7" class="st1" width="69.9" height="9.8"/>
		<rect x="599.9" y="565.1" class="st9" width="59" height="9.8"/>
		<rect x="599.9" y="708.3" class="st9" width="59" height="9.8"/>
		<rect x="599.9" y="401.1" class="st1" width="75.7" height="9.8"/>
		<rect x="599.9" y="516.5" class="st1" width="75.7" height="9.8"/>
		<rect x="599.9" y="434.5" class="st1" width="426.4" height="9.8"/>
		<rect x="599.9" y="450.6" class="st1" width="426.4" height="9.8"/>
		<rect x="599.9" y="466.6" class="st1" width="209.2" height="9.8"/>
		<rect x="599.9" y="591.1" class="st1" width="426.4" height="9.8"/>
		<rect x="599.9" y="607.1" class="st1" width="149.7" height="9.8"/>
		<rect x="599.9" y="639.4" class="st1" width="416.6" height="9.8"/>
		<rect x="599.9" y="655.4" class="st1" width="65.4" height="9.8"/>
		<line class="st10" x1="598.4" y1="544.8" x2="1028.9" y2="544.8"/>
		<line class="st10" x1="598.4" y1="687.6" x2="1028.9" y2="687.6"/>
		
			<image style="overflow:visible;opacity:0.25;enable-background:new    ;" width="522" height="1909" xlink:href="C0E2C064006AC58A.png"  transform="matrix(0.48 0 0 0.48 9.36 6.96)">
		</image>
		<path class="st11" d="M42.5,32h174c4.4,0,8,3.6,8,8v840.2c0,4.4-3.6,8-8,8h-174c-4.4,0-8-3.6-8-8V40C34.5,35.6,38.1,32,42.5,32z"
			/>
		<g id="Layer_2_1_">
			<g id="Layer_1-2">
				<path class="st0" d="M133.3,70.6c-2.5-1.2-4.1-3.6-4.1-6.4c0-0.1,0-0.2,0-0.2v-0.1c0.1,0.1,0.3,0.2,0.4,0.3
					c0.9,0.6,1.9,1.1,3,1.2l0,0c0.2,0,0.5,0.1,0.7,0.1h0.4c2.1,0,4-0.9,5.4-2.4c0.9,1.6,1.4,3.5,1.4,5.4c0,0.5,0,1.1-0.1,1.6
					c-2,1.3-4.4,1.5-6.6,0.6L133.3,70.6"/>
				<path class="st0" d="M117.7,69.5c0-0.3,0-0.7,0-1c0-5.4,3.7-10.2,9-11.5c0.2-1.3,0.8-2.5,1.7-3.5c-7.8,0.6-13.9,7.1-13.9,15
					c0,0.4,0,0.8,0,1.2c0.7-0.2,1.5-0.3,2.3-0.2C117.1,69.4,117.4,69.4,117.7,69.5z M115.8,64.5c0-0.4,0.4-0.8,0.8-0.8
					c0.5,0,0.8,0.4,0.8,0.8c0,0.4-0.4,0.8-0.8,0.8l0,0C116.2,65.3,115.8,64.9,115.8,64.5C115.8,64.5,115.8,64.5,115.8,64.5
					L115.8,64.5z"/>
				<path d="M114.5,69.7L114.5,69.7c0-0.4,0-0.8,0-1.2c0-7.9,6.1-14.4,13.9-15h0.1l-0.1,0.1c-0.9,1-1.5,2.1-1.7,3.4l0,0l0,0
					c-5.3,1.3-9,6-9,11.4c0,0.3,0,0.6,0,1l0,0l0,0c-0.3,0-0.6,0-0.9,0l0,0C116,69.5,115.3,69.5,114.5,69.7L114.5,69.7z M128.2,53.6
					c-7.8,0.7-13.7,7.1-13.7,14.9c0,0.3,0,0.7,0,1.1c0.7-0.2,1.5-0.2,2.2-0.2l0,0c0.3,0,0.6,0,0.9,0c0-0.3,0-0.6,0-0.9
					c0-5.5,3.7-10.2,9-11.5C126.9,55.7,127.4,54.5,128.2,53.6z M116.7,65.3c-0.5,0-0.8-0.4-0.8-0.9c0-0.5,0.4-0.8,0.9-0.8
					s0.8,0.4,0.8,0.9c0,0,0,0,0,0C117.5,64.9,117.1,65.3,116.7,65.3z M116.7,63.7c-0.4,0-0.8,0.3-0.8,0.8c0,0.4,0.3,0.8,0.8,0.8
					c0.4,0,0.8-0.3,0.8-0.8S117.1,63.7,116.7,63.7C116.7,63.7,116.7,63.7,116.7,63.7z"/>
				<path class="st0" d="M124.4,79.2c-2.9-1.4-5.2-4-6.2-7.1c-1.1-0.2-2.2-0.2-3.3,0.1c1.2,4.6,4.5,8.5,8.9,10.2
					c0.4-0.9,0.6-1.9,0.6-2.9C124.4,79.4,124.4,79.3,124.4,79.2z"/>
				<path d="M123.9,82.5L123.9,82.5c-4.4-1.8-7.8-5.6-8.9-10.3l0,0l0,0c1.1-0.3,2.2-0.3,3.3-0.1l0,0c1,3.1,3.2,5.7,6.2,7.1l0,0l0,0
					c0,0.1,0,0.3,0,0.4C124.4,80.6,124.2,81.5,123.9,82.5L123.9,82.5z M115,72.2c1.2,4.6,4.5,8.4,8.8,10.2c0.4-0.9,0.6-1.9,0.6-2.8
					c0-0.1,0-0.2,0-0.4c-2.9-1.4-5.2-4-6.2-7.1C117.2,71.9,116.1,71.9,115,72.2z"/>
				<path class="st0" d="M129.5,72.8L129.5,72.8c-0.7,0-1.4-0.2-2.1-0.5c-0.1-0.1-0.2-0.1-0.3-0.2c-2-1.3-2.5-4-1.2-6
					c0.3-0.5,0.7-0.8,1.2-1.2c0.1-0.1,0.2-0.1,0.3-0.2c0.5-0.3,1.1-0.5,1.7-0.5c0-0.1,0-0.2,0-0.2v-0.1l-0.2-0.1
					c-2.6,0.3-4.5,2.7-4.2,5.3c0.3,2.6,2.7,4.5,5.3,4.2c1.6-0.2,3-1.1,3.7-2.5l-0.4-0.2C132.5,71.9,131.1,72.8,129.5,72.8z"/>
				<path d="M129.5,73.3c-2.5,0-4.5-1.8-4.8-4.3c-0.2-1.3,0.2-2.6,1-3.6c0.8-1,2-1.7,3.2-1.8l0,0l0.2,0.2l0,0v0.4l0,0
					c-0.6,0-1.1,0.2-1.7,0.5l-0.4,0.2c-0.4,0.3-0.8,0.7-1.1,1.2c-1.3,1.9-0.8,4.6,1.1,5.9l0.4,0.2c0.6,0.3,1.3,0.5,2,0.5l0,0
					c1.6,0,3-0.8,3.8-2.2l0,0l0,0l0.5,0.2l0,0l0,0c-0.7,1.4-2.1,2.4-3.7,2.6C129.8,73.3,129.7,73.3,129.5,73.3z M128.9,63.8
					c-2.6,0.3-4.4,2.6-4.2,5.2c0.3,2.6,2.6,4.5,5.2,4.2c0,0,0,0,0,0c1.5-0.2,2.9-1.1,3.6-2.4l-0.4-0.2c-0.8,1.4-2.2,2.2-3.8,2.2l0,0
					c-0.7,0-1.4-0.2-2.1-0.5c-0.1-0.1-0.2-0.1-0.3-0.2c-2-1.3-2.5-4-1.2-6c0.3-0.5,0.7-0.9,1.2-1.2c0.1-0.1,0.2-0.1,0.3-0.2
					c0.5-0.3,1.1-0.4,1.7-0.5v-0.3L128.9,63.8z"/>
				<circle class="st0" cx="124.3" cy="62.5" r="1.1"/>
				<path d="M124.3,63.6c-0.6,0-1.1-0.5-1.1-1.1c0-0.6,0.5-1.1,1.1-1.1s1.1,0.5,1.1,1.1S124.9,63.6,124.3,63.6L124.3,63.6z
					 M124.3,61.5c-0.6,0-1,0.4-1,1s0.4,1,1,1s1-0.4,1-1S124.8,61.5,124.3,61.5z"/>
				<path class="st0" d="M134.3,73.8c-0.6,0-1,0.4-1,1s0.4,1,1,1s1-0.4,1-1l0,0C135.3,74.3,134.9,73.8,134.3,73.8z"/>
				<path d="M134.3,76L134.3,76c-0.6,0-1.1-0.5-1.1-1.1l0,0c0-0.6,0.5-1.1,1.1-1.1l0,0c0.6,0,1.1,0.5,1.1,1.1l0,0
					C135.4,75.5,135,76,134.3,76C134.4,76,134.4,76,134.3,76z M134.3,73.9c-0.3,0-0.5,0.1-0.7,0.3c-0.4,0.4-0.4,1-0.1,1.4
					c0.2,0.2,0.5,0.3,0.8,0.3l0,0c0.6,0,1-0.4,1-1S134.9,73.9,134.3,73.9L134.3,73.9L134.3,73.9z"/>
				<path class="st12" d="M133.3,70.6c-2.5-1.2-4.1-3.6-4.1-6.4c-0.6,0-1.2,0.2-1.7,0.5l-0.4,0.2c-2,1.3-2.5,4-1.2,6c0,0,0,0,0,0
					c0.3,0.5,0.7,0.9,1.2,1.2c0.1,0.1,0.2,0.2,0.4,0.2C129.5,73.4,132.1,72.7,133.3,70.6L133.3,70.6z"/>
				<path d="M129.5,72.8c-0.7,0-1.4-0.2-2.1-0.5c-0.1-0.1-0.2-0.1-0.3-0.2c-2-1.3-2.5-4-1.2-6c0.3-0.5,0.7-0.9,1.2-1.2
					c0.1-0.1,0.2-0.2,0.3-0.2c0.5-0.3,1.1-0.4,1.7-0.5l0,0l0,0c0.1,2.7,1.7,5.1,4.1,6.3v-0.1v0.2l0,0
					C132.5,71.9,131,72.8,129.5,72.8z M129.1,64.2c-0.6,0.1-1.1,0.2-1.6,0.5l-0.4,0.2c-1.9,1.3-2.4,4-1.1,5.9
					c0.3,0.4,0.7,0.8,1.1,1.1c0.1,0.1,0.2,0.1,0.4,0.2c2.1,1.1,4.6,0.4,5.8-1.7C130.8,69.4,129.2,66.9,129.1,64.2z"/>
				<path class="st12" d="M142.3,71.8c-0.4,0-0.8,0.4-0.8,0.8c0,0.5,0.5,0.8,0.9,0.7c0.4,0,0.7-0.3,0.7-0.7
					C143.1,72.2,142.8,71.8,142.3,71.8L142.3,71.8z"/>
				<path d="M142.3,73.5c-0.5-0.1-0.8-0.5-0.8-0.9c0-0.4,0.4-0.7,0.8-0.8l0,0c0.5-0.1,0.9,0.3,0.9,0.8c0.1,0.5-0.3,0.9-0.8,0.9
					C142.4,73.5,142.4,73.5,142.3,73.5z M142.3,71.8c-0.4,0-0.8,0.4-0.8,0.8c0,0.4,0.4,0.7,0.9,0.7c0.4,0,0.6-0.3,0.7-0.7
					C143.1,72.2,142.7,71.8,142.3,71.8z"/>
				<path class="st12" d="M117.5,64.5c0-0.5-0.4-0.8-0.8-0.8c-0.4,0-0.8,0.4-0.8,0.8c0,0.4,0.4,0.8,0.8,0.8l0,0
					C117.1,65.3,117.5,64.9,117.5,64.5z"/>
				<path d="M116.7,65.3c-0.5,0-0.8-0.4-0.8-0.9c0-0.5,0.4-0.8,0.9-0.8s0.8,0.4,0.8,0.9c0,0,0,0,0,0l0,0
					C117.5,64.9,117.1,65.3,116.7,65.3C116.7,65.3,116.7,65.3,116.7,65.3z M116.7,63.7c-0.4,0-0.8,0.3-0.8,0.8
					c0,0.4,0.3,0.8,0.8,0.8c0.4,0,0.8-0.3,0.8-0.8l0,0C117.4,64,117.1,63.7,116.7,63.7C116.7,63.7,116.7,63.7,116.7,63.7z"/>
				<path class="st0" d="M138.4,56.9c-0.1-0.2-0.2-0.5-0.3-0.7c-1.8-1.3-3.8-2.1-6-2.5c-1.4,0.5-2.5,1.6-3,2.9h0.4
					c3.3,0,6.4,1.3,8.6,3.7C138.6,59.3,138.7,58.1,138.4,56.9z"/>
				<path d="M138.1,60.5L138.1,60.5c-2.2-2.4-5.3-3.7-8.6-3.7h-0.4v0c0.5-1.4,1.6-2.5,3-3l0,0c2.2,0.4,4.2,1.2,6,2.5l0,0
					c0.1,0.2,0.2,0.5,0.3,0.7l0,0C138.7,58.1,138.7,59.3,138.1,60.5L138.1,60.5z M129.5,56.6c3.3,0,6.4,1.3,8.6,3.7
					c0.5-1.1,0.6-2.3,0.2-3.4c-0.1-0.2-0.2-0.5-0.3-0.7c-1.8-1.2-3.8-2.1-6-2.5c-1.3,0.5-2.4,1.5-2.9,2.9L129.5,56.6L129.5,56.6z"/>
				<path class="st0" d="M143.7,63.7c-0.6-1.8-1.6-3.5-2.8-5c-0.1,1.3-0.5,2.6-1.2,3.7c1.1,1.8,1.7,3.9,1.7,6.1c0,0.3,0,0.6,0,0.9
					c-0.5,6.5-6.2,11.4-12.7,10.9c0,0,0,0,0,0c-0.6,0-1.1-0.1-1.7-0.2c0,1.1-0.3,2.1-0.7,3.2c8.1,1.8,16.1-3.3,17.9-11.4
					C144.8,69.1,144.6,66.3,143.7,63.7L143.7,63.7z M142.3,73.4c-0.4,0-0.8-0.4-0.8-0.8c0-0.5,0.3-0.9,0.7-0.9
					c0.5,0,0.9,0.3,0.9,0.7c0,0.1,0,0.1,0,0.2l0,0C143.1,73.1,142.8,73.4,142.3,73.4L142.3,73.4z"/>
				<path d="M129.5,83.6c-1.1,0-2.2-0.1-3.2-0.3l0,0l0,0c0.4-1,0.6-2.1,0.7-3.1l0,0l0,0c0.5,0.1,1.1,0.2,1.7,0.2
					c6.5,0.5,12.2-4.3,12.7-10.8c0,0,0,0,0,0c0-0.3,0-0.7,0-0.9c0-2.1-0.6-4.2-1.7-6.1l0,0l0,0c0.7-1.1,1.2-2.3,1.2-3.6v-0.1
					l0.1,0.1c3.1,3.6,4.3,8.4,3.3,13C142.6,78.7,136.5,83.5,129.5,83.6z M126.3,83.2c8.1,1.8,16.1-3.4,17.8-11.5
					c0.6-2.6,0.4-5.4-0.4-7.9c-0.6-1.8-1.5-3.5-2.8-4.9c-0.1,1.3-0.5,2.5-1.2,3.6c1.1,1.8,1.7,3.9,1.7,6.1c0,0.3,0,0.6,0,0.9
					c-0.5,6.5-6.2,11.4-12.8,10.9c-0.5,0-1.1-0.1-1.6-0.2C126.9,81.1,126.7,82.2,126.3,83.2z M142.3,73.5L142.3,73.5
					c-0.5,0-0.8-0.4-0.8-0.9c0-0.5,0.4-0.8,0.9-0.8c0.5,0,0.8,0.4,0.8,0.9c0,0,0,0,0,0C143.1,73.1,142.8,73.5,142.3,73.5z
					 M142.3,71.8c-0.4,0-0.8,0.4-0.8,0.8c0,0.4,0.3,0.8,0.8,0.8l0,0l0,0c0.4,0,0.8-0.3,0.8-0.8l0,0
					C143.1,72.2,142.7,71.9,142.3,71.8z"/>
				<path class="st0" d="M132.4,57.9c-1.2,0.8-2.1,1.9-2.7,3.2c1.5,2.2,4.6,2.8,6.8,1.3c0,0,0,0,0,0c0.5-0.3,0.9-0.7,1.2-1.2
					C136.3,59.6,134.4,58.4,132.4,57.9z"/>
				<path d="M133.7,63.2c-0.3,0-0.6,0-0.9-0.1c-1.3-0.2-2.4-0.9-3.1-2l0,0l0,0c0.6-1.3,1.5-2.4,2.7-3.2l0,0c2.1,0.6,3.9,1.7,5.3,3.3
					l0,0l0,0c-0.3,0.5-0.7,0.9-1.2,1.2C135.7,63,134.7,63.2,133.7,63.2z M129.7,61.1c0.7,1,1.8,1.8,3.1,2c1.3,0.2,2.6,0,3.6-0.8
					c0.5-0.3,0.9-0.7,1.2-1.2c-1.4-1.6-3.2-2.7-5.3-3.2C131.2,58.7,130.3,59.8,129.7,61.1L129.7,61.1z"/>
				<path class="st0" d="M119.2,72.3c-0.3-0.1-0.7-0.2-1-0.3c1,3.1,3.2,5.7,6.2,7.1c0-0.3-0.1-0.7-0.1-1
					C121.9,76.9,120.1,74.8,119.2,72.3z"/>
				<path d="M124.4,79.2L124.4,79.2c-3-1.4-5.2-4-6.2-7.1v-0.1h0.1c0.3,0.1,0.7,0.2,1,0.3l0,0c0.9,2.5,2.7,4.5,5.1,5.8l0,0l0,0
					c0.1,0.3,0.1,0.7,0.1,1L124.4,79.2z M118.3,72.1c1,3.1,3.2,5.6,6.1,7c0-0.3-0.1-0.6-0.1-0.9c-2.3-1.3-4.1-3.3-5.1-5.8
					C118.9,72.3,118.6,72.2,118.3,72.1z"/>
				<path class="st0" d="M118.5,68.5c0-4.9,3.3-9.2,8-10.6c0-0.3,0-0.6,0.1-0.9c-5.3,1.3-9,6-9,11.5c0,0.3,0,0.7,0,1
					c0.3,0,0.6,0.1,0.9,0.1C118.5,69.2,118.5,68.9,118.5,68.5z"/>
				<path d="M118.6,69.6L118.6,69.6l-0.9-0.1l0,0l0,0c0-0.3,0-0.7,0-1c0-5.5,3.7-10.2,9-11.5h0.1v0c-0.1,0.3-0.1,0.6-0.1,0.9l0,0
					l0,0c-4.7,1.3-8,5.6-8,10.5c0,0.4,0,0.7,0.1,1.1L118.6,69.6z M117.7,69.4c0.3,0,0.5,0.1,0.8,0.1c0-0.3,0-0.7,0-1.1l0,0
					c0-4.9,3.3-9.3,8-10.6c0-0.3,0.1-0.6,0.1-0.8c-5.2,1.3-8.9,6-8.9,11.4C117.7,68.8,117.7,69.1,117.7,69.4z"/>
				<path class="st0" d="M133.4,57.3c-1.3-0.4-2.6-0.7-3.9-0.7h-0.4c-0.1,0.3-0.2,0.6-0.2,0.9h0.6c3.1,0,6.1,1.3,8.2,3.7
					c0.2-0.2,0.3-0.5,0.4-0.8C136.8,59,135.2,57.9,133.4,57.3z"/>
				<path d="M137.7,61.2L137.7,61.2c-2.1-2.3-5-3.6-8.1-3.7l0,0c-0.2,0-0.4,0-0.6,0l0,0l0,0c0.1-0.3,0.1-0.6,0.2-0.9l0,0h0.4
					c1.3,0,2.6,0.2,3.9,0.7l0,0c1.8,0.6,3.4,1.7,4.8,3.1l0,0l0,0C138.1,60.7,137.9,61,137.7,61.2L137.7,61.2z M129.5,57.5
					c3.1,0,6.1,1.3,8.2,3.6c0.2-0.2,0.3-0.5,0.4-0.7c-1.3-1.4-2.9-2.4-4.7-3.1l0,0c-1.2-0.4-2.6-0.6-3.9-0.7h-0.3
					c-0.1,0.3-0.2,0.5-0.2,0.8L129.5,57.5z"/>
				<path class="st0" d="M139.6,62.4c-0.2,0.3-0.4,0.5-0.6,0.7c3,5.3,1,12-4.3,15c-2.4,1.3-5.2,1.7-7.9,1.1c0,0.1,0,0.3,0,0.4
					s0,0.3,0,0.5c6.4,1.4,12.7-2.6,14.1-9c0,0,0,0,0,0c0.1-0.5,0.2-1.1,0.2-1.7c0-0.3,0-0.6,0-0.9C141.3,66.3,140.7,64.2,139.6,62.4
					z"/>
				<path d="M129.5,80.4c-0.9,0-1.8-0.1-2.6-0.3l0,0l0,0c0-0.2,0-0.3,0-0.5s0-0.2,0-0.3v-0.1l0,0c5.9,1.4,11.8-2.3,13.2-8.2
					c0.6-2.6,0.2-5.4-1.1-7.8l0,0l0,0c0.2-0.2,0.4-0.5,0.6-0.7v0v0c1.1,1.8,1.7,4,1.7,6.1c0,0.3,0,0.6,0,0.9c0,0.6-0.1,1.1-0.2,1.7
					C139.8,76.6,135,80.4,129.5,80.4L129.5,80.4z M127,80c6.3,1.4,12.6-2.6,14-8.9c0.1-0.5,0.2-1.1,0.2-1.7c0-0.3,0-0.6,0-0.9
					c0-2.1-0.6-4.2-1.7-6c-0.2,0.2-0.3,0.4-0.5,0.7c2.9,5.3,1,12-4.3,15c-2.4,1.3-5.1,1.7-7.8,1.1v0.1c0,0.1,0,0.2,0,0.3
					S127,79.8,127,80z"/>
				<path class="st0" d="M139.5,57.3c-0.5-0.4-0.9-0.8-1.4-1.1c1.2,2.4,0.2,5.3-2.3,6.5c-2.4,1.2-5.3,0.2-6.5-2.3
					c-0.3-0.7-0.5-1.4-0.5-2.1c0-0.3,0-0.5,0.1-0.8c0.1-0.3,0.1-0.6,0.2-0.9c0.5-1.4,1.6-2.5,3-2.9c-0.9-0.2-1.7-0.2-2.6-0.2
					c-0.4,0-0.8,0-1.1,0c-1.1,1.2-1.7,2.8-1.8,4.4c0,0.1,0,0.3,0,0.4c0,2.1,0.9,4.1,2.4,5.4l0.2,0.2l0.4,0.3c0.9,0.6,1.9,1.1,3,1.2
					l0,0c0.2,0,0.5,0.1,0.7,0.1h0.4c2.1,0,4-0.9,5.4-2.4c0.2-0.2,0.4-0.5,0.6-0.7c0.7-1.1,1.2-2.3,1.2-3.7
					C140.5,58.2,140,57.8,139.5,57.3z"/>
				<path d="M133.7,65.6h-0.5c-0.2,0-0.5,0-0.7-0.1c-1.1-0.2-2.1-0.6-3-1.2c-0.1-0.1-0.3-0.2-0.4-0.3l-0.1-0.1l0,0
					c-1.6-1.4-2.4-3.3-2.4-5.4c0-0.2,0-0.3,0-0.4c0.1-1.6,0.7-3.2,1.8-4.4l0,0c0.4,0,0.8,0,1.2,0c0.9,0,1.8,0.1,2.6,0.2h0.1l-0.1,0
					c-1.4,0.5-2.5,1.5-3,2.9c-0.1,0.3-0.2,0.6-0.2,0.9c0,0.3-0.1,0.5-0.1,0.8c0,2.7,2.1,4.8,4.8,4.9c2.7,0,4.8-2.1,4.9-4.8
					c0-0.7-0.2-1.5-0.5-2.1l-0.1-0.1l0.1,0.1c0.5,0.4,1,0.7,1.4,1.1l0,0c0.5,0.4,0.9,0.9,1.4,1.4l0,0c-0.1,1.3-0.5,2.6-1.2,3.7
					c-0.2,0.3-0.4,0.5-0.6,0.7C137.7,64.7,135.7,65.6,133.7,65.6z M128.4,53.6c-1.1,1.2-1.7,2.7-1.8,4.3c0,0.1,0,0.3,0,0.4
					c0,2.1,0.9,4,2.4,5.4l0,0l0.1,0.1l0.4,0.3c0.9,0.6,1.9,1.1,3,1.2c0.2,0,0.5,0.1,0.7,0.1h0.5c2,0,4-0.9,5.3-2.4
					c0.2-0.2,0.4-0.5,0.6-0.7c0.7-1.1,1.2-2.3,1.2-3.6c-0.4-0.5-0.9-1-1.4-1.4l0,0c-0.4-0.4-0.9-0.7-1.3-1.1
					c1.2,2.4,0.1,5.4-2.3,6.5c-1.2,0.6-2.6,0.6-3.8,0.2c-1.2-0.4-2.2-1.3-2.8-2.5c-0.3-0.7-0.5-1.4-0.5-2.1c0-0.3,0-0.5,0.1-0.8
					c0.1-0.3,0.1-0.6,0.2-0.9c0.5-1.3,1.5-2.4,2.9-2.9c-0.8-0.1-1.6-0.2-2.5-0.2C129.1,53.5,128.8,53.5,128.4,53.6L128.4,53.6z"/>
				<path class="st0" d="M126.9,79.2c-0.2-4.8-3.7-8.8-8.3-9.6l-0.9-0.1c-0.3,0-0.6,0-0.9,0c-0.8,0-1.5,0.1-2.3,0.2
					c0.1,0.8,0.2,1.7,0.4,2.5c1.1-0.3,2.2-0.3,3.3-0.1c0.3,0.1,0.7,0.2,1,0.3c3,1,5,3.7,5.2,6.8c0,0.1,0,0.3,0,0.4
					c0,1-0.2,2-0.6,2.9c0.8,0.3,1.6,0.6,2.4,0.8c0.4-1,0.6-2.1,0.7-3.1c0-0.2,0-0.3,0-0.5S126.9,79.3,126.9,79.2z"/>
				<path d="M126.3,83.2L126.3,83.2c-0.8-0.2-1.6-0.4-2.4-0.8l0,0l0,0c0.4-0.9,0.6-1.9,0.6-2.9c0-0.1,0-0.3,0-0.4
					c-0.2-3.1-2.2-5.8-5.2-6.8c-0.3-0.1-0.7-0.2-1-0.3c-1.1-0.2-2.2-0.2-3.3,0.1l0,0l0,0c-0.2-0.8-0.3-1.7-0.4-2.5l0,0l0,0
					c0.7-0.2,1.5-0.3,2.3-0.3c0.3,0,0.6,0,0.9,0s0.6,0.1,0.9,0.1c4.7,0.8,8.2,4.8,8.4,9.6v0.1c0,0.1,0,0.2,0,0.3s0,0.3,0,0.5
					C127,81.1,126.7,82.2,126.3,83.2L126.3,83.2z M123.9,82.4c0.8,0.3,1.5,0.5,2.3,0.7c0.4-1,0.6-2,0.6-3.1c0-0.2,0-0.3,0-0.5
					s0-0.2,0-0.3v-0.1c-0.2-4.7-3.6-8.7-8.3-9.6c-0.3-0.1-0.6-0.1-0.9-0.1c-0.3,0-0.6,0-0.9,0c-0.7,0-1.5,0.1-2.2,0.2
					c0.1,0.8,0.2,1.6,0.4,2.4c1.1-0.3,2.2-0.3,3.3-0.1c0.3,0.1,0.7,0.2,1,0.3c3,1,5,3.7,5.2,6.9c0,0.1,0,0.3,0,0.4
					C124.4,80.6,124.2,81.5,123.9,82.4z"/>
				<path class="st13" d="M119.2,72.3c0.9,2.5,2.7,4.6,5.1,5.8C123.8,75.4,121.8,73.2,119.2,72.3z"/>
				<path d="M124.3,78.2L124.3,78.2c-2.4-1.3-4.2-3.3-5.2-5.8v-0.1h0.1C121.9,73.2,123.8,75.4,124.3,78.2L124.3,78.2z M119.3,72.4
					c0.9,2.4,2.7,4.4,5,5.7C123.7,75.4,121.8,73.3,119.3,72.4z"/>
				<path class="st13" d="M133.7,70.8c-1.2,2.3-4.1,3.3-6.5,2s-3.3-4.1-2-6.5c0.7-1.4,2.1-2.4,3.7-2.5c-1.5-1.4-2.4-3.3-2.4-5.4
					c0-0.1,0-0.3,0-0.4c-4.7,1.3-8,5.7-8,10.6c0,0.4,0,0.7,0,1.1c4.7,0.8,8.2,4.8,8.3,9.6c5.9,1.4,11.8-2.2,13.3-8.1
					c0.1-0.3,0.1-0.6,0.2-0.9C138.3,71.4,135.9,71.6,133.7,70.8z M123.2,62.5c0-0.6,0.4-1,1-1c0,0,0,0,0.1,0c0.5,0,1,0.5,1,1
					c0,0.6-0.4,1-0.9,1c0,0,0,0-0.1,0l0,0c-0.6,0-1-0.4-1.1-0.9C123.2,62.6,123.2,62.5,123.2,62.5z M134.3,75.9c-0.6,0-1-0.4-1-1
					s0.4-1,1-1s1,0.4,1,1l0,0C135.3,75.5,134.9,75.9,134.3,75.9z"/>
				<path d="M129.5,79.5c-0.9,0-1.8-0.1-2.6-0.3l0,0l0,0c-0.2-4.7-3.6-8.7-8.3-9.6l0,0l0,0c0-0.4-0.1-0.7-0.1-1.1
					c0-4.9,3.3-9.3,8-10.6l0,0v0c0,0.2,0,0.3,0,0.4c0,2,0.9,4,2.5,5.3h0.1H129c-2.6,0.3-4.5,2.7-4.2,5.3s2.7,4.5,5.3,4.2
					c1.5-0.2,2.9-1.1,3.6-2.5l0,0l0,0c2.2,0.9,4.6,0.6,6.6-0.6h0.1v0.1c0,0.3-0.1,0.6-0.2,0.9C139,76,134.6,79.5,129.5,79.5
					L129.5,79.5z M127,79.1c5.9,1.4,11.8-2.2,13.2-8.1c0.1-0.3,0.1-0.6,0.2-0.9c-2,1.2-4.4,1.5-6.6,0.6c-1.3,2.3-4.2,3.2-6.6,1.9
					s-3.2-4.2-1.9-6.6c0.7-1.4,2.1-2.3,3.6-2.5c-1.5-1.4-2.4-3.3-2.4-5.4c0-0.1,0-0.2,0-0.4c-4.7,1.4-7.9,5.6-7.9,10.5
					c0,0.3,0,0.7,0,1.1C123.3,70.4,126.8,74.4,127,79.1z M134.3,76c-0.6,0-1.1-0.5-1.1-1.1l0,0c0-0.6,0.5-1.1,1.1-1.1l0,0l0,0
					c0.6,0,1.1,0.5,1.1,1.1l0,0C135.4,75.5,135,76,134.3,76C134.4,76,134.4,76,134.3,76L134.3,76z M134.3,73.9L134.3,73.9
					c-0.6,0-1,0.4-1,1c0,0.3,0.1,0.6,0.3,0.8c0.2,0.2,0.4,0.3,0.7,0.3l0,0c0.6,0,1-0.4,1-1S134.9,73.9,134.3,73.9L134.3,73.9z
					 M124.3,63.6c-0.6,0-1.1-0.5-1.1-1.1c0,0,0,0,0,0l0,0c0-0.3,0.1-0.6,0.3-0.8c0.2-0.2,0.5-0.3,0.8-0.3l0,0c0.6,0,1.1,0.5,1.1,1.1
					v0C125.4,63.1,124.9,63.6,124.3,63.6z M123.3,62.5c0,0.6,0.4,1,1,1s1-0.4,1-1s-0.4-1-1-1l0,0c-0.3,0-0.5,0.1-0.7,0.3
					C123.4,62,123.3,62.3,123.3,62.5L123.3,62.5z"/>
				<path class="st13" d="M129.7,61.1c0.6-1.3,1.5-2.4,2.7-3.2c-0.9-0.3-1.9-0.4-2.9-0.4h-0.6c0,0.3-0.1,0.5-0.1,0.8
					C128.8,59.3,129.1,60.3,129.7,61.1z"/>
				<path d="M129.7,61.2L129.7,61.2c-0.6-0.9-0.9-1.8-0.9-2.8c0-0.3,0-0.5,0.1-0.8l0,0l0,0h0.6l0,0c1,0,1.9,0.1,2.9,0.4h0.1h-0.1
					C131.2,58.7,130.3,59.8,129.7,61.2L129.7,61.2z M128.9,57.5c0,0.3-0.1,0.5-0.1,0.8c0,1,0.3,1.9,0.8,2.7c0.6-1.3,1.4-2.4,2.6-3.1
					c-0.9-0.2-1.8-0.4-2.8-0.4L128.9,57.5L128.9,57.5z"/>
				<path class="st13" d="M140.8,57.1c-3-3-7-4.6-11.2-4.6h-0.1c-8.9,0-16.1,7.2-16.1,16.1c0,0,0,0,0,0c0,0.5,0,1,0.1,1.5
					c0.8,8.8,8.6,15.4,17.5,14.6c8.8-0.8,15.4-8.6,14.6-17.5C145.2,63.3,143.5,59.7,140.8,57.1z M129.5,83.5c-1.1,0-2.2-0.1-3.2-0.4
					c-0.8-0.2-1.6-0.4-2.4-0.7c-5.3-2.1-8.9-7.1-9.3-12.8c0-0.4,0-0.8,0-1.2c0-7.9,6-14.4,13.9-15c0.4,0,0.8,0,1.1,0
					c8.3,0,15,6.7,15,15c0,0.9-0.1,1.7-0.2,2.6C143,78.3,136.8,83.6,129.5,83.5L129.5,83.5z"/>
				<path d="M129.5,84.6c-8.3,0-15.3-6.4-16-14.7c0-0.5-0.1-1-0.1-1.5c0-8.9,7.2-16.1,16.1-16.1c0,0,0,0,0,0h0.1
					c4.2,0,8.3,1.7,11.2,4.7l0,0c6.3,6.2,6.4,16.4,0.2,22.8c0,0-0.1,0.1-0.1,0.1C137.9,83,133.8,84.7,129.5,84.6z M129.5,52.5
					c-8.8,0-16,7.2-16,16l0,0c0,0.5,0,0.9,0.1,1.5c0.8,8.8,8.6,15.3,17.4,14.4c8.8-0.8,15.3-8.6,14.4-17.4c-0.3-3.7-2-7.2-4.7-9.9
					l0,0C137.8,54.2,133.8,52.5,129.5,52.5L129.5,52.5z M129.5,83.6L129.5,83.6c-1.1,0-2.2-0.1-3.2-0.3c-0.8-0.2-1.6-0.4-2.4-0.8
					c-5.3-2.1-8.9-7.1-9.3-12.8c0-0.4,0-0.8,0-1.2c0-7.9,6-14.4,13.9-15c0.4,0,0.8,0,1.2,0c0.9,0,1.8,0.1,2.6,0.2
					c8.2,1.4,13.7,9.2,12.3,17.4C143.2,78.3,136.9,83.6,129.5,83.6L129.5,83.6z M129.5,53.6c-0.4,0-0.7,0-1.1,0
					c-7.8,0.6-13.8,7.1-13.8,14.9c0,0.3,0,0.7,0,1.2c0.1,0.8,0.2,1.7,0.4,2.5c1.2,4.6,4.5,8.4,8.9,10.2c0.8,0.3,1.6,0.6,2.4,0.7
					c1.1,0.2,2.1,0.4,3.2,0.3l0,0c8.3-0.1,14.9-6.9,14.8-15.2c-0.1-7.1-5.2-13.2-12.2-14.5C131.2,53.6,130.3,53.5,129.5,53.6
					L129.5,53.6z"/>
			</g>
		</g>
		<line class="st14" x1="51.7" y1="99" x2="207.3" y2="99"/>
		<line class="st14" x1="51.7" y1="199.9" x2="207.3" y2="199.9"/>
		<line class="st14" x1="51.7" y1="809.7" x2="207.3" y2="809.7"/>
		<path class="st15" d="M73.8,839.2c-3.3-0.1-6.1,2.6-6.1,5.9c0,0,0,0,0,0.1c0.1,2,0.7,4,1.7,5.7c0.6,1.3,1.7,2.4,2.9,3.1
			c-2.9,0.3-5.6,1.5-7.8,3.4c-0.2,0.1-0.2,0.4-0.1,0.6c0,0,0,0,0,0c0.1,0.2,0.4,0.2,0.6,0.1l0.1-0.1c4.9-4.4,12.4-4.4,17.3,0
			c0.2,0.2,0.5,0.2,0.6,0c0.2-0.2,0.2-0.4,0-0.6l-0.1-0.1c-2.2-1.9-4.9-3.1-7.8-3.4c1.3-0.7,2.3-1.8,2.9-3.1c1-1.7,1.6-3.7,1.7-5.7
			C79.9,841.9,77.2,839.2,73.8,839.2C73.8,839.2,73.8,839.2,73.8,839.2z M73.8,840.1c2.8-0.1,5.2,2.2,5.2,5
			c-0.1,1.9-0.7,3.7-1.6,5.3c-1,1.7-2.3,3-3.6,3s-2.6-1.3-3.6-3c-0.9-1.6-1.5-3.4-1.6-5.3C68.6,842.3,70.9,840.1,73.8,840.1z"/>
		<circle class="st14" cx="73.8" cy="849.6" r="19.6"/>
		<rect x="110.7" y="841.8" class="st1" width="79.7" height="6.6"/>
		<rect x="110.7" y="850.8" class="st1" width="32.4" height="6.6"/>
		<circle class="st14" cx="73.8" cy="149.4" r="19.6"/>
		<rect x="110.7" y="141.6" class="st1" width="79.7" height="6.6"/>
		<rect x="110.7" y="150.7" class="st1" width="32.4" height="6.6"/>
		<circle class="st15" cx="73.8" cy="149.4" r="15.5"/>
		<g>
			<defs>
				<path id="SVGID_1_" d="M71.3,257.7L71.3,257.7l-2-1.6c-0.9-0.8-2.1-1.3-3.3-1.4v-4c1.2-0.1,2.4-0.6,3.3-1.4l2-1.6l0,0V257.7z
					 M60.7,254.7c-0.4,0-0.8-0.4-0.8-0.8c0,0,0,0,0,0v-2.3c0-0.4,0.3-0.8,0.8-0.8c0,0,0,0,0,0h4.5v3.9H60.7z M64.5,258.5H62
					c-0.3-0.7-0.5-1.5-0.5-2.3v-0.8h2.3c-0.1,0.3-0.1,0.5-0.1,0.8C63.7,257,64,257.9,64.5,258.5z M72.1,251.4v-3.7
					c0-0.4-0.3-0.8-0.8-0.8l0,0c-0.2,0-0.3,0.1-0.5,0.2l-2,1.6c-1,0.8-2.3,1.3-3.6,1.3h-4.5c-0.9,0-1.5,0.7-1.5,1.6c0,0,0,0,0,0v2.3
					c0,0.8,0.7,1.5,1.5,1.5c0,0,0,0,0,0v0.8c0,0.9,0.2,1.9,0.6,2.7c0.1,0.3,0.4,0.4,0.7,0.4h2.5c0.4,0,0.8-0.4,0.8-0.8
					c0-0.2-0.1-0.3-0.2-0.5c-0.4-0.5-0.6-1.2-0.6-1.9c0-0.3,0-0.5,0.1-0.8h0.7c1.3,0,2.6,0.5,3.6,1.3l2,1.6c0.1,0.1,0.3,0.2,0.5,0.2
					c0.4,0,0.8-0.4,0.8-0.8c0,0,0,0,0,0v-3.7c0.5-0.3,0.8-0.8,0.8-1.3C72.9,252.2,72.6,251.7,72.1,251.4z"/>
			</defs>
			<clipPath id="SVGID_2_">
				<use xlink:href="#SVGID_1_"  style="overflow:visible;"/>
			</clipPath>
			<g class="st16">
				<rect x="56.1" y="243.8" class="st0" width="19.9" height="18.6"/>
			</g>
		</g>
		<g>
			<defs>
				<path id="SVGID_3_" d="M58.9,385.5h14.2v-1.3H58.9V385.5z M58.9,380.1v1.4h14.2v-1.4H58.9z M58.9,389.6h9.5v-1.4h-9.5V389.6z"/>
			</defs>
			<clipPath id="SVGID_4_">
				<use xlink:href="#SVGID_3_"  style="overflow:visible;"/>
			</clipPath>
			<g class="st17">
				<rect x="55.5" y="376.8" class="st0" width="20.9" height="16.2"/>
			</g>
		</g>
		<path class="st0" d="M72,448.8l-1.3-1.3c-0.1-0.1-0.3-0.1-0.4,0c0,0,0,0,0,0l-0.9,0.9l1.7,1.7l0.9-0.9
			C72.1,449.1,72.1,448.9,72,448.8C72,448.8,72,448.8,72,448.8z M70.7,450.4l-1.6-1.6l-5,5l-0.2,1.8l1.8-0.2L70.7,450.4z M73,449.8
			l-6.8,6.8l-2.3,0.3c-0.6,0.1-1.1-0.4-1.2-1c0-0.1,0-0.1,0-0.2l0.3-2.4l6.8-6.8c0.6-0.6,1.5-0.6,2.1,0c0,0,0,0,0,0l1.1,1.1
			C73.6,448.3,73.6,449.2,73,449.8z M68.9,455.1l0.8-0.9c0.1-0.1,0.2-0.1,0.3,0c0,0,0.1,0.1,0.1,0.2v4c0,0.7-0.5,1.3-1.2,1.3h-9
			c-0.7,0-1.2-0.6-1.2-1.3c0,0,0,0,0,0v-9.6c0-0.7,0.5-1.3,1.2-1.3h7c0.1,0,0.2,0.1,0.2,0.2c0,0.1,0,0.1-0.1,0.1l-0.8,0.9
			c0,0-0.1,0.1-0.2,0.1h-6.2v9.6h9v-3.1C68.8,455.2,68.8,455.1,68.9,455.1L68.9,455.1z"/>
		<g>
			<defs>
				<path id="SVGID_5_" d="M72,448.8l-1.3-1.3c-0.1-0.1-0.3-0.1-0.4,0c0,0,0,0,0,0l-0.9,0.9l1.7,1.7l0.9-0.9
					C72.1,449.1,72.1,448.9,72,448.8C72,448.8,72,448.8,72,448.8z M70.7,450.4l-1.6-1.6l-5,5l-0.2,1.8l1.8-0.2L70.7,450.4z
					 M73,449.8l-6.8,6.8l-2.3,0.3c-0.6,0.1-1.1-0.4-1.2-1c0-0.1,0-0.1,0-0.2l0.3-2.4l6.8-6.8c0.6-0.6,1.5-0.6,2.1,0c0,0,0,0,0,0
					l1.1,1.1C73.6,448.3,73.6,449.2,73,449.8z M68.9,455.1l0.8-0.9c0.1-0.1,0.2-0.1,0.3,0c0,0,0.1,0.1,0.1,0.2v4
					c0,0.7-0.5,1.3-1.2,1.3h-9c-0.7,0-1.2-0.6-1.2-1.3c0,0,0,0,0,0v-9.6c0-0.7,0.5-1.3,1.2-1.3h7c0.1,0,0.2,0.1,0.2,0.2
					c0,0.1,0,0.1-0.1,0.1l-0.8,0.9c0,0-0.1,0.1-0.2,0.1h-6.2v9.6h9v-3.1C68.8,455.2,68.8,455.1,68.9,455.1L68.9,455.1z"/>
			</defs>
			<clipPath id="SVGID_6_">
				<use xlink:href="#SVGID_5_"  style="overflow:visible;"/>
			</clipPath>
			<g class="st18">
				<rect x="55.2" y="442.7" class="st15" width="21.6" height="20.3"/>
			</g>
		</g>
		<path class="st19" d="M72,448.8l-1.3-1.3c-0.1-0.1-0.3-0.1-0.4,0c0,0,0,0,0,0l-0.9,0.9l1.7,1.7l0.9-0.9
			C72.1,449.1,72.1,448.9,72,448.8C72,448.8,72,448.8,72,448.8z M70.7,450.4l-1.6-1.6l-5,5l-0.2,1.8l1.8-0.2L70.7,450.4z M73,449.8
			l-6.8,6.8l-2.3,0.3c-0.6,0.1-1.1-0.4-1.2-1c0-0.1,0-0.1,0-0.2l0.3-2.4l6.8-6.8c0.6-0.6,1.5-0.6,2.1,0c0,0,0,0,0,0l1.1,1.1
			C73.6,448.3,73.6,449.2,73,449.8z M68.9,455.1l0.8-0.9c0.1-0.1,0.2-0.1,0.3,0c0,0,0.1,0.1,0.1,0.2v4c0,0.7-0.5,1.3-1.2,1.3h-9
			c-0.7,0-1.2-0.6-1.2-1.3c0,0,0,0,0,0v-9.6c0-0.7,0.5-1.3,1.2-1.3h7c0.1,0,0.2,0.1,0.2,0.2c0,0.1,0,0.1-0.1,0.1l-0.8,0.9
			c0,0-0.1,0.1-0.2,0.1h-6.2v9.6h9v-3.1C68.8,455.2,68.8,455.1,68.9,455.1L68.9,455.1z"/>
		<rect x="88.2" y="251.5" class="st1" width="108.7" height="6.6"/>
		<rect x="88.2" y="382.3" class="st1" width="108.7" height="6.6"/>
		<rect x="88.2" y="450.3" class="st1" width="108.7" height="6.6"/>
		
			<image style="overflow:visible;opacity:0.25;enable-background:new    ;" width="472" height="205" xlink:href="C0E2C064006AC598.png"  transform="matrix(0.48 0 0 0.48 21.36 274.32)">
		</image>
		<path class="st12" d="M54.5,299.5h150.1c4.4,0,8,3.6,8,8v22.2c0,4.4-3.6,8-8,8H54.5c-4.4,0-8-3.6-8-8v-22.2
			C46.5,303,50.1,299.5,54.5,299.5z"/>
		<path class="st0" d="M71.8,324.1H60.3v-7.4l5.7,3.7l5.7-3.7L71.8,324.1z M71.8,315.4l-5.8,4.1l-5.7-4L71.8,315.4z M73.1,315.4
			c0-0.8-0.6-1.4-1.4-1.4c0,0,0,0,0,0H60.3c-0.8,0-1.4,0.6-1.4,1.4v8.6c0,0.8,0.6,1.4,1.4,1.4h11.4c0.8,0,1.4-0.6,1.4-1.4V315.4z"/>
		<g>
			<defs>
				<path id="SVGID_7_" d="M71.8,324.1H60.3v-7.4l5.7,3.7l5.7-3.7L71.8,324.1z M71.8,315.4l-5.8,4.1l-5.7-4L71.8,315.4z M73.1,315.4
					c0-0.8-0.6-1.4-1.4-1.4c0,0,0,0,0,0H60.3c-0.8,0-1.4,0.6-1.4,1.4v8.6c0,0.8,0.6,1.4,1.4,1.4h11.4c0.8,0,1.4-0.6,1.4-1.4V315.4z"
					/>
			</defs>
			<clipPath id="SVGID_8_">
				<use xlink:href="#SVGID_7_"  style="overflow:visible;"/>
			</clipPath>
			<g class="st20">
				<rect x="55.5" y="310.6" class="st21" width="20.9" height="18.2"/>
			</g>
		</g>
		<path class="st22" d="M71.8,324.1H60.3v-7.4l5.7,3.7l5.7-3.7L71.8,324.1z M71.8,315.4l-5.8,4.1l-5.7-4L71.8,315.4z M73.1,315.4
			c0-0.8-0.6-1.4-1.4-1.4c0,0,0,0,0,0H60.3c-0.8,0-1.4,0.6-1.4,1.4v8.6c0,0.8,0.6,1.4,1.4,1.4h11.4c0.8,0,1.4-0.6,1.4-1.4V315.4z"/>
		<rect x="88.2" y="316.2" class="st1" width="108.7" height="6.6"/>
		
			<image style="overflow:visible;opacity:0.15;enable-background:new    ;" width="655" height="707" xlink:href="C0E2C064006AC599.png"  transform="matrix(0.48 0 0 0.48 244.56 140.88)">
		</image>
		<path class="st0" d="M277.9,166h237.9c4.4,0,8,3.6,8,8v263.2c0,4.4-3.6,8-8,8H277.9c-4.4,0-8-3.6-8-8V174
			C269.9,169.6,273.5,166,277.9,166z"/>
		<rect x="288.2" y="191.3" class="st1" width="99.4" height="9.8"/>
		<path class="st1" d="M296.2,220.9H501c4.4,0,8,3.6,8,8v16.4c0,4.4-3.6,8-8,8H296.2c-4.4,0-8-3.6-8-8v-16.4
			C288.2,224.5,291.7,220.9,296.2,220.9z"/>
		<path class="st1" d="M296.2,263.3H501c4.4,0,8,3.6,8,8v16.4c0,4.4-3.6,8-8,8H296.2c-4.4,0-8-3.6-8-8v-16.4
			C288.2,266.8,291.7,263.3,296.2,263.3z"/>
		<path class="st1" d="M296.2,305.6H501c4.4,0,8,3.6,8,8V330c0,4.4-3.6,8-8,8H296.2c-4.4,0-8-3.6-8-8v-16.4
			C288.2,309.2,291.7,305.6,296.2,305.6z"/>
		<path class="st1" d="M296.2,348H501c4.4,0,8,3.6,8,8v16.4c0,4.4-3.6,8-8,8H296.2c-4.4,0-8-3.6-8-8V356
			C288.2,351.6,291.7,348,296.2,348z"/>
		<path class="st11" d="M296.2,390.3H501c4.4,0,8,3.6,8,8v16.4c0,4.4-3.6,8-8,8H296.2c-4.4,0-8-3.6-8-8v-16.4
			C288.2,393.9,291.7,390.3,296.2,390.3z"/>
		
			<image style="overflow:visible;opacity:0.15;enable-background:new    ;" width="655" height="483" xlink:href="C0E2C064006AC59A.png"  transform="matrix(0.48 0 0 0.48 244.56 435.12)">
		</image>
		<path class="st0" d="M277.9,460.1h237.9c4.4,0,8,3.6,8,8v155.5c0,4.4-3.6,8-8,8H277.9c-4.4,0-8-3.6-8-8V468.1
			C269.9,463.7,273.5,460.1,277.9,460.1z"/>
		<rect x="288.2" y="487.8" class="st1" width="99.4" height="9.8"/>
		
			<image style="overflow:visible;opacity:0.15;enable-background:new    ;" width="580" height="318" xlink:href="C0E2C064006AC59B.png"  transform="matrix(0.48 0 0 0.48 262.32 495.6)">
		</image>
		<path class="st10" d="M296.2,521.5h201c4.4,0,8,3.6,8,8v75.1c0,4.4-3.6,8-8,8h-201c-4.4,0-8-3.6-8-8v-75.1
			C288.2,525,291.7,521.5,296.2,521.5z"/>
		<rect x="278.2" y="113.9" class="st1" width="32.4" height="6.6"/>
		<rect x="345.3" y="113.9" class="st1" width="32.4" height="6.6"/>
		<rect x="411" y="113.9" class="st1" width="32.4" height="6.6"/>
		<circle class="st1" cx="428.1" cy="85.4" r="15.2"/>
		<path class="st23" d="M430.7,89.8l-4.4-1.9l4.3-5.4c0.1,0,0.1-0.1,0-0.2s-0.1-0.1-0.2,0l-5.5,5l-2.4-1.1l9.6-5.9L430.7,89.8z
			 M425.9,90.5v-2l1.2,0.5L425.9,90.5z M431.8,79.6l-9.6,5.9c-0.3,0.2-0.4,0.7-0.2,1.1c0.1,0.1,0.2,0.2,0.3,0.3l3,1.3v2.3
			c0,0.4,0.3,0.7,0.6,0.7c0.2,0,0.5-0.1,0.6-0.3l1.3-1.7l2.7,1.2c0.3,0.1,0.7,0,0.9-0.4c0-0.1,0-0.1,0-0.2l1.4-9.5
			c0.1-0.4-0.2-0.7-0.5-0.8C432.1,79.5,431.9,79.6,431.8,79.6z"/>
		<line class="st10" x1="307.6" y1="85" x2="419.2" y2="85"/>
		<circle class="st1" cx="361.2" cy="85.4" r="15.2"/>
		<path class="st23" d="M357,85.7c-0.3-0.2-0.7-0.3-1.1-0.3h-1c-1.1,0-2,0.9-2,2c0,0.2,0.2,0.4,0.4,0.4c0.2,0,0.4-0.2,0.4-0.4v0
			c0-0.7,0.5-1.2,1.1-1.2h1c0.1,0,0.3,0,0.4,0.1C356.5,86,356.8,85.9,357,85.7z M365.4,89.8c0,0.2-0.2,0.4-0.4,0.4c0,0,0,0,0,0h-7.5
			c-0.2,0-0.4-0.2-0.4-0.4c0,0,0,0,0,0v-1.1c0-0.4,0.1-0.8,0.4-1.2c0.4-0.5,1-0.9,1.7-0.8c0.7,0,1,0.3,2.1,0.3s1.4-0.3,2.1-0.3
			c0.7,0,1.3,0.3,1.7,0.8c0.2,0.3,0.4,0.8,0.4,1.2L365.4,89.8L365.4,89.8z M363.3,85.8c-0.9,0-1.1,0.3-2.1,0.3s-1.2-0.3-2.1-0.3
			c-0.9,0-1.8,0.4-2.4,1.2c-0.3,0.5-0.5,1-0.5,1.6v1.1c0,0.7,0.6,1.2,1.2,1.2h7.5c0.7,0,1.2-0.5,1.3-1.2c0,0,0,0,0,0v-1.1
			c0-1.6-1.2-2.8-2.8-2.8C363.4,85.9,363.4,85.9,363.3,85.8L363.3,85.8z M355.4,81.3c0.7,0,1.2,0.6,1.2,1.2s-0.6,1.2-1.2,1.2
			c-0.7,0-1.2-0.6-1.2-1.2C354.2,81.8,354.7,81.3,355.4,81.3L355.4,81.3z M355.4,84.5c1.1,0,2-1,1.9-2.1c0-1.1-1-2-2.1-1.9
			c-1.1,0-1.9,0.9-1.9,2C353.3,83.7,354.2,84.6,355.4,84.5L355.4,84.5z M367.6,85.3h-1c-0.4,0-0.8,0.1-1.1,0.3
			c0.2,0.2,0.5,0.4,0.7,0.6c0.1-0.1,0.3-0.1,0.4-0.1h1c0.7,0,1.2,0.6,1.1,1.2c0,0.2,0.3,0.4,0.5,0.4c0.2,0,0.3-0.2,0.4-0.4
			C369.6,86.3,368.7,85.4,367.6,85.3C367.6,85.4,367.6,85.4,367.6,85.3L367.6,85.3z M361.3,80.5c1.1,0,2,1,1.9,2.1
			c0,1.1-1,2-2.1,1.9c-1.1,0-1.9-0.9-1.9-2C359.2,81.4,360.1,80.5,361.3,80.5L361.3,80.5z M361.3,85.3c1.6,0,2.8-1.3,2.8-2.9
			c0-1.6-1.3-2.8-2.9-2.8c-1.5,0-2.8,1.3-2.8,2.9C358.3,84.1,359.6,85.4,361.3,85.3L361.3,85.3z M367.1,81.3c0.7,0,1.2,0.6,1.2,1.2
			s-0.6,1.2-1.2,1.2c-0.7,0-1.2-0.6-1.2-1.2C365.9,81.8,366.4,81.3,367.1,81.3L367.1,81.3z M367.1,84.5c1.1,0,2-1,1.9-2.1
			c0-1.1-1-2-2.1-1.9c-1.1,0-1.9,0.9-1.9,2C365,83.7,365.9,84.6,367.1,84.5L367.1,84.5z"/>
		<circle class="st24" cx="294.3" cy="85.4" r="15.2"/>
		<path class="st0" d="M297.6,92h3.3v-3.3h-3.3V92z M297.6,87.1h3.3v-3.3h-3.3V87.1z M292.7,82.1h3.3v-3.3h-3.3L292.7,82.1z
			 M297.6,78.9v3.3h3.3v-3.3L297.6,78.9z M292.7,87h3.3v-3.3h-3.3L292.7,87z M287.8,87h3.2v-3.3h-3.3L287.8,87z M287.8,91.9h3.2
			v-3.3h-3.3L287.8,91.9z M292.7,91.9h3.3v-3.3h-3.3L292.7,91.9z M287.8,82.1h3.2v-3.3h-3.3L287.8,82.1z"/>
	</g>
</g>
</svg>
