<svg enable-background="new 0 0 1200 996.2" viewBox="0 0 1200 996.2" xmlns="http://www.w3.org/2000/svg" xmlns:xlink="http://www.w3.org/1999/xlink"><clipPath id="a"><path d="m71.3 257.7-2-1.6c-.9-.8-2.1-1.3-3.3-1.4v-4c1.2-.1 2.4-.6 3.3-1.4l2-1.6zm-10.6-3c-.4 0-.8-.4-.8-.8v-2.3c0-.4.3-.8.8-.8h4.5v3.9zm3.8 3.8h-2.5c-.3-.7-.5-1.5-.5-2.3v-.8h2.3c-.1.3-.1.5-.1.8 0 .8.3 1.7.8 2.3zm7.6-7.1v-3.7c0-.4-.3-.8-.8-.8-.2 0-.3.1-.5.2l-2 1.6c-1 .8-2.3 1.3-3.6 1.3h-4.5c-.9 0-1.5.7-1.5 1.6v2.3c0 .8.7 1.5 1.5 1.5v.8c0 .9.2 1.9.6 2.7.1.3.4.4.7.4h2.5c.4 0 .8-.4.8-.8 0-.2-.1-.3-.2-.5-.4-.5-.6-1.2-.6-1.9 0-.3 0-.5.1-.8h.7c1.3 0 2.6.5 3.6 1.3l2 1.6c.1.1.3.2.5.2.4 0 .8-.4.8-.8v-3.7c.5-.3.8-.8.8-1.3-.1-.4-.4-.9-.9-1.2z"/></clipPath><clipPath id="b"><path d="m58.9 385.5h14.2v-1.3h-14.2zm0-5.4v1.4h14.2v-1.4zm0 9.5h9.5v-1.4h-9.5z"/></clipPath><clipPath id="c"><path d="m72 448.8-1.3-1.3c-.1-.1-.3-.1-.4 0l-.9.9 1.7 1.7.9-.9c.1-.1.1-.3 0-.4zm-1.3 1.6-1.6-1.6-5 5-.2 1.8 1.8-.2zm2.3-.6-6.8 6.8-2.3.3c-.6.1-1.1-.4-1.2-1 0-.1 0-.1 0-.2l.3-2.4 6.8-6.8c.6-.6 1.5-.6 2.1 0l1.1 1.1c.6.7.6 1.6 0 2.2zm-4.1 5.3.8-.9c.1-.1.2-.1.3 0 0 0 .1.1.1.2v4c0 .7-.5 1.3-1.2 1.3h-9c-.7 0-1.2-.6-1.2-1.3v-9.6c0-.7.5-1.3 1.2-1.3h7c.1 0 .2.1.2.2s0 .1-.1.1l-.8.9s-.1.1-.2.1h-6.2v9.6h9v-3.1c0-.1 0-.2.1-.2z"/></clipPath><clipPath id="d"><path d="m71.8 324.1h-11.5v-7.4l5.7 3.7 5.7-3.7zm0-8.7-5.8 4.1-5.7-4zm1.3 0c0-.8-.6-1.4-1.4-1.4h-11.4c-.8 0-1.4.6-1.4 1.4v8.6c0 .8.6 1.4 1.4 1.4h11.4c.8 0 1.4-.6 1.4-1.4z"/></clipPath><image height="1909" opacity=".15" overflow="visible" transform="matrix(.48 0 0 .48 217.2 6.96)" width="1928" xlink:href="C0E2C064006AC58B.png"/><path d="m250.5 32h848.7c4.4 0 8 3.6 8 8v840.2c0 4.4-3.6 8-8 8h-848.7c-4.4 0-8-3.6-8-8v-840.2c0-4.4 3.6-8 8-8z" fill="#fff"/><image height="1630" opacity=".15" overflow="visible" transform="matrix(.48 0 0 .48 510 140.88)" width="1257" xlink:href="C0E2C064006AC58C.png"/><path d="m535.1 888.2v-710.7c0-6.4 5.2-11.5 11.6-11.5h519.7c6.4 0 11.6 5.2 11.6 11.5v710.7z" fill="#fff"/><path d="m570.4 191.3h99.4v9.8h-99.4z" fill="#e6e6e6"/><image height="313" opacity=".15" overflow="visible" transform="matrix(.48 0 0 .48 545.04 198.48)" width="1140" xlink:href="C0E2C064006AC58D.png"/><path d="m578.4 223.5h470.5c4.4 0 8 3.6 8 8v73.8c0 4.4-3.6 8-8 8h-470.5c-4.4 0-8-3.6-8-8v-73.8c0-4.4 3.6-8 8-8z" fill="#fff"/><path d="m795.2 265 .3 14 29.5 16.2 29-17.3-.2-12.6h-10.2l.3 6.9-19.2 11.5-19.4-10.7-.3-8z" fill="#06597a"/><path d="m773.3 272.4.2-13.6 29.6-16.5 29 17.6-.2 12.3h-9.9v-6.9l-19.2-11.5-19.4 10.7v7.9z" fill="#06597a"/><image height="1262" opacity=".15" overflow="visible" transform="matrix(.48 0 0 .48 545.04 317.52)" width="1140" xlink:href="C0E2C064006AC58F.png"/><path d="m570.4 888.2v-525.4c0-11.1 9.7-20.1 21.6-20.1h443.4c11.9 0 21.6 9 21.6 20.1v525.4z" fill="#fff"/><path d="m933.7 735.4h33.8v153h-33.8z" fill="#feca7a"/><path d="m819 807h33.8v81.5h-33.8z" fill="#d84774"/><path d="m761.6 834.6h33.8v53.8h-33.8z" fill="#16d8d8"/><path d="m704.2 853.5h33.8v35h-33.8z" fill="#f24c88"/><path d="m646.8 865.1h33.8v23.4h-33.8z" fill="#00acb3"/><path d="m876.3 774.8h33.8v113.7h-33.8z" fill="#f79663"/><path d="m599.9 375.5h69.9v9.8h-69.9z" fill="#c8c8c8"/><path d="m599.9 500.7h69.9v9.8h-69.9z" fill="#e6e6e6"/><path d="m599.9 565.1h59v9.8h-59z" fill="#c8c8c8"/><path d="m599.9 708.3h59v9.8h-59z" fill="#c8c8c8"/><g fill="#e6e6e6"><path d="m599.9 401.1h75.7v9.8h-75.7z"/><path d="m599.9 516.5h75.7v9.8h-75.7z"/><path d="m599.9 434.5h426.4v9.8h-426.4z"/><path d="m599.9 450.6h426.4v9.8h-426.4z"/><path d="m599.9 466.6h209.2v9.8h-209.2z"/><path d="m599.9 591.1h426.4v9.8h-426.4z"/><path d="m599.9 607.1h149.7v9.8h-149.7z"/><path d="m599.9 639.4h416.6v9.8h-416.6z"/><path d="m599.9 655.4h65.4v9.8h-65.4z"/></g><path d="m598.4 544.8h430.5" fill="none" stroke="#e6e6e6" stroke-miterlimit="10"/><path d="m598.4 687.6h430.5" fill="none" stroke="#e6e6e6" stroke-miterlimit="10"/><image height="1909" opacity=".25" overflow="visible" transform="matrix(.48 0 0 .48 9.36 6.96)" width="522" xlink:href="C0E2C064006AC58A.png"/><path d="m42.5 32h174c4.4 0 8 3.6 8 8v840.2c0 4.4-3.6 8-8 8h-174c-4.4 0-8-3.6-8-8v-840.2c0-4.4 3.6-8 8-8z" fill="#101528"/><path d="m133.3 70.6c-2.5-1.2-4.1-3.6-4.1-6.4 0-.1 0-.2 0-.2v-.1c.1.1.3.2.4.3.9.6 1.9 1.1 3 1.2.2 0 .5.1.7.1h.4c2.1 0 4-.9 5.4-2.4.9 1.6 1.4 3.5 1.4 5.4 0 .5 0 1.1-.1 1.6-2 1.3-4.4 1.5-6.6.6z" fill="#fff"/><path d="m117.7 69.5c0-.3 0-.7 0-1 0-5.4 3.7-10.2 9-11.5.2-1.3.8-2.5 1.7-3.5-7.8.6-13.9 7.1-13.9 15v1.2c.7-.2 1.5-.3 2.3-.2.3-.1.6-.1.9 0zm-1.9-5c0-.4.4-.8.8-.8.5 0 .8.4.8.8s-.4.8-.8.8c-.4 0-.8-.4-.8-.8z" fill="#fff"/><path d="m114.5 69.7c0-.4 0-.8 0-1.2 0-7.9 6.1-14.4 13.9-15h.1l-.1.1c-.9 1-1.5 2.1-1.7 3.4-5.3 1.3-9 6-9 11.4v1c-.3 0-.6 0-.9 0-.8.1-1.5.1-2.3.3zm13.7-16.1c-7.8.7-13.7 7.1-13.7 14.9v1.1c.7-.2 1.5-.2 2.2-.2h.9c0-.3 0-.6 0-.9 0-5.5 3.7-10.2 9-11.5.3-1.3.8-2.5 1.6-3.4zm-11.5 11.7c-.5 0-.8-.4-.8-.9s.4-.8.9-.8.8.4.8.9c-.1.4-.5.8-.9.8zm0-1.6c-.4 0-.8.3-.8.8 0 .4.3.8.8.8.4 0 .8-.3.8-.8s-.4-.8-.8-.8z"/><path d="m124.4 79.2c-2.9-1.4-5.2-4-6.2-7.1-1.1-.2-2.2-.2-3.3.1 1.2 4.6 4.5 8.5 8.9 10.2.4-.9.6-1.9.6-2.9 0-.1 0-.2 0-.3z" fill="#fff"/><path d="m123.9 82.5c-4.4-1.8-7.8-5.6-8.9-10.3 1.1-.3 2.2-.3 3.3-.1 1 3.1 3.2 5.7 6.2 7.1v.4c-.1 1-.3 1.9-.6 2.9zm-8.9-10.3c1.2 4.6 4.5 8.4 8.8 10.2.4-.9.6-1.9.6-2.8 0-.1 0-.2 0-.4-2.9-1.4-5.2-4-6.2-7.1-1-.2-2.1-.2-3.2.1z"/><path d="m129.5 72.8c-.7 0-1.4-.2-2.1-.5-.1-.1-.2-.1-.3-.2-2-1.3-2.5-4-1.2-6 .3-.5.7-.8 1.2-1.2.1-.1.2-.1.3-.2.5-.3 1.1-.5 1.7-.5 0-.1 0-.2 0-.2v-.1l-.2-.1c-2.6.3-4.5 2.7-4.2 5.3s2.7 4.5 5.3 4.2c1.6-.2 3-1.1 3.7-2.5l-.4-.2c-.8 1.3-2.2 2.2-3.8 2.2z" fill="#fff"/><path d="m129.5 73.3c-2.5 0-4.5-1.8-4.8-4.3-.2-1.3.2-2.6 1-3.6s2-1.7 3.2-1.8l.2.2v.4c-.6 0-1.1.2-1.7.5l-.4.2c-.4.3-.8.7-1.1 1.2-1.3 1.9-.8 4.6 1.1 5.9l.4.2c.6.3 1.3.5 2 .5 1.6 0 3-.8 3.8-2.2l.5.2c-.7 1.4-2.1 2.4-3.7 2.6-.2 0-.3 0-.5 0zm-.6-9.5c-2.6.3-4.4 2.6-4.2 5.2.3 2.6 2.6 4.5 5.2 4.2 1.5-.2 2.9-1.1 3.6-2.4l-.4-.2c-.8 1.4-2.2 2.2-3.8 2.2-.7 0-1.4-.2-2.1-.5-.1-.1-.2-.1-.3-.2-2-1.3-2.5-4-1.2-6 .3-.5.7-.9 1.2-1.2.1-.1.2-.1.3-.2.5-.3 1.1-.4 1.7-.5v-.3z"/><circle cx="124.3" cy="62.5" fill="#fff" r="1.1"/><path d="m124.3 63.6c-.6 0-1.1-.5-1.1-1.1s.5-1.1 1.1-1.1 1.1.5 1.1 1.1-.5 1.1-1.1 1.1zm0-2.1c-.6 0-1 .4-1 1s.4 1 1 1 1-.4 1-1-.5-1-1-1z"/><path d="m134.3 73.8c-.6 0-1 .4-1 1s.4 1 1 1 1-.4 1-1c0-.5-.4-1-1-1z" fill="#fff"/><path d="m134.3 76c-.6 0-1.1-.5-1.1-1.1 0-.6.5-1.1 1.1-1.1.6 0 1.1.5 1.1 1.1 0 .6-.4 1.1-1.1 1.1.1 0 .1 0 0 0zm0-2.1c-.3 0-.5.1-.7.3-.4.4-.4 1-.1 1.4.2.2.5.3.8.3.6 0 1-.4 1-1s-.4-1-1-1z"/><path d="m133.3 70.6c-2.5-1.2-4.1-3.6-4.1-6.4-.6 0-1.2.2-1.7.5l-.4.2c-2 1.3-2.5 4-1.2 6 .3.5.7.9 1.2 1.2.1.1.2.2.4.2 2 1.1 4.6.4 5.8-1.7z" fill="#2463af"/><path d="m129.5 72.8c-.7 0-1.4-.2-2.1-.5-.1-.1-.2-.1-.3-.2-2-1.3-2.5-4-1.2-6 .3-.5.7-.9 1.2-1.2.1-.1.2-.2.3-.2.5-.3 1.1-.4 1.7-.5.1 2.7 1.7 5.1 4.1 6.3v-.1.2c-.7 1.3-2.2 2.2-3.7 2.2zm-.4-8.6c-.6.1-1.1.2-1.6.5l-.4.2c-1.9 1.3-2.4 4-1.1 5.9.3.4.7.8 1.1 1.1.1.1.2.1.4.2 2.1 1.1 4.6.4 5.8-1.7-2.5-1-4.1-3.5-4.2-6.2z"/><path d="m142.3 71.8c-.4 0-.8.4-.8.8 0 .5.5.8.9.7.4 0 .7-.3.7-.7s-.3-.8-.8-.8z" fill="#2463af"/><path d="m142.3 73.5c-.5-.1-.8-.5-.8-.9s.4-.7.8-.8c.5-.1.9.3.9.8.1.5-.3.9-.8.9 0 0 0 0-.1 0zm0-1.7c-.4 0-.8.4-.8.8s.4.7.9.7c.4 0 .6-.3.7-.7 0-.4-.4-.8-.8-.8z"/><path d="m117.5 64.5c0-.5-.4-.8-.8-.8s-.8.4-.8.8.4.8.8.8c.4 0 .8-.4.8-.8z" fill="#2463af"/><path d="m116.7 65.3c-.5 0-.8-.4-.8-.9s.4-.8.9-.8.8.4.8.9c-.1.4-.5.8-.9.8zm0-1.6c-.4 0-.8.3-.8.8 0 .4.3.8.8.8.4 0 .8-.3.8-.8-.1-.5-.4-.8-.8-.8z"/><path d="m138.4 56.9c-.1-.2-.2-.5-.3-.7-1.8-1.3-3.8-2.1-6-2.5-1.4.5-2.5 1.6-3 2.9h.4c3.3 0 6.4 1.3 8.6 3.7.5-1 .6-2.2.3-3.4z" fill="#fff"/><path d="m138.1 60.5c-2.2-2.4-5.3-3.7-8.6-3.7h-.4c.5-1.4 1.6-2.5 3-3 2.2.4 4.2 1.2 6 2.5.1.2.2.5.3.7.3 1.1.3 2.3-.3 3.5zm-8.6-3.9c3.3 0 6.4 1.3 8.6 3.7.5-1.1.6-2.3.2-3.4-.1-.2-.2-.5-.3-.7-1.8-1.2-3.8-2.1-6-2.5-1.3.5-2.4 1.5-2.9 2.9z"/><path d="m143.7 63.7c-.6-1.8-1.6-3.5-2.8-5-.1 1.3-.5 2.6-1.2 3.7 1.1 1.8 1.7 3.9 1.7 6.1v.9c-.5 6.5-6.2 11.4-12.7 10.9-.6 0-1.1-.1-1.7-.2 0 1.1-.3 2.1-.7 3.2 8.1 1.8 16.1-3.3 17.9-11.4.6-2.8.4-5.6-.5-8.2zm-1.4 9.7c-.4 0-.8-.4-.8-.8 0-.5.3-.9.7-.9.5 0 .9.3.9.7v.2c0 .5-.3.8-.8.8z" fill="#fff"/><path d="m129.5 83.6c-1.1 0-2.2-.1-3.2-.3.4-1 .6-2.1.7-3.1.5.1 1.1.2 1.7.2 6.5.5 12.2-4.3 12.7-10.8 0-.3 0-.7 0-.9 0-2.1-.6-4.2-1.7-6.1.7-1.1 1.2-2.3 1.2-3.6v-.1l.1.1c3.1 3.6 4.3 8.4 3.3 13-1.7 6.7-7.8 11.5-14.8 11.6zm-3.2-.4c8.1 1.8 16.1-3.4 17.8-11.5.6-2.6.4-5.4-.4-7.9-.6-1.8-1.5-3.5-2.8-4.9-.1 1.3-.5 2.5-1.2 3.6 1.1 1.8 1.7 3.9 1.7 6.1v.9c-.5 6.5-6.2 11.4-12.8 10.9-.5 0-1.1-.1-1.6-.2-.1.9-.3 2-.7 3zm16-9.7c-.5 0-.8-.4-.8-.9s.4-.8.9-.8.8.4.8.9c-.1.4-.4.8-.9.8zm0-1.7c-.4 0-.8.4-.8.8s.3.8.8.8c.4 0 .8-.3.8-.8 0-.4-.4-.7-.8-.8z"/><path d="m132.4 57.9c-1.2.8-2.1 1.9-2.7 3.2 1.5 2.2 4.6 2.8 6.8 1.3.5-.3.9-.7 1.2-1.2-1.4-1.6-3.3-2.8-5.3-3.3z" fill="#fff"/><path d="m133.7 63.2c-.3 0-.6 0-.9-.1-1.3-.2-2.4-.9-3.1-2 .6-1.3 1.5-2.4 2.7-3.2 2.1.6 3.9 1.7 5.3 3.3-.3.5-.7.9-1.2 1.2-.8.6-1.8.8-2.8.8zm-4-2.1c.7 1 1.8 1.8 3.1 2s2.6 0 3.6-.8c.5-.3.9-.7 1.2-1.2-1.4-1.6-3.2-2.7-5.3-3.2-1.1.8-2 1.9-2.6 3.2z"/><path d="m119.2 72.3c-.3-.1-.7-.2-1-.3 1 3.1 3.2 5.7 6.2 7.1 0-.3-.1-.7-.1-1-2.4-1.2-4.2-3.3-5.1-5.8z" fill="#fff"/><path d="m124.4 79.2c-3-1.4-5.2-4-6.2-7.1v-.1h.1c.3.1.7.2 1 .3.9 2.5 2.7 4.5 5.1 5.8.1.3.1.7.1 1zm-6.1-7.1c1 3.1 3.2 5.6 6.1 7 0-.3-.1-.6-.1-.9-2.3-1.3-4.1-3.3-5.1-5.8-.3-.1-.6-.2-.9-.3z"/><path d="m118.5 68.5c0-4.9 3.3-9.2 8-10.6 0-.3 0-.6.1-.9-5.3 1.3-9 6-9 11.5v1c.3 0 .6.1.9.1 0-.4 0-.7 0-1.1z" fill="#fff"/><path d="m118.6 69.6-.9-.1c0-.3 0-.7 0-1 0-5.5 3.7-10.2 9-11.5h.1c-.1.3-.1.6-.1.9-4.7 1.3-8 5.6-8 10.5 0 .4 0 .7.1 1.1zm-.9-.2c.3 0 .5.1.8.1 0-.3 0-.7 0-1.1 0-4.9 3.3-9.3 8-10.6 0-.3.1-.6.1-.8-5.2 1.3-8.9 6-8.9 11.4z"/><path d="m133.4 57.3c-1.3-.4-2.6-.7-3.9-.7h-.4c-.1.3-.2.6-.2.9h.6c3.1 0 6.1 1.3 8.2 3.7.2-.2.3-.5.4-.8-1.3-1.4-2.9-2.5-4.7-3.1z" fill="#fff"/><path d="m137.7 61.2c-2.1-2.3-5-3.6-8.1-3.7-.2 0-.4 0-.6 0 .1-.3.1-.6.2-.9h.4c1.3 0 2.6.2 3.9.7 1.8.6 3.4 1.7 4.8 3.1-.2.3-.4.6-.6.8zm-8.2-3.7c3.1 0 6.1 1.3 8.2 3.6.2-.2.3-.5.4-.7-1.3-1.4-2.9-2.4-4.7-3.1-1.2-.4-2.6-.6-3.9-.7h-.3c-.1.3-.2.5-.2.8z"/><path d="m139.6 62.4c-.2.3-.4.5-.6.7 3 5.3 1 12-4.3 15-2.4 1.3-5.2 1.7-7.9 1.1v.4s0 .3 0 .5c6.4 1.4 12.7-2.6 14.1-9 .1-.5.2-1.1.2-1.7 0-.3 0-.6 0-.9.2-2.2-.4-4.3-1.5-6.1z" fill="#fff"/><path d="m129.5 80.4c-.9 0-1.8-.1-2.6-.3 0-.2 0-.3 0-.5s0-.2 0-.3v-.1c5.9 1.4 11.8-2.3 13.2-8.2.6-2.6.2-5.4-1.1-7.8.2-.2.4-.5.6-.7 1.1 1.8 1.7 4 1.7 6.1v.9c0 .6-.1 1.1-.2 1.7-1.3 5.4-6.1 9.2-11.6 9.2zm-2.5-.4c6.3 1.4 12.6-2.6 14-8.9.1-.5.2-1.1.2-1.7 0-.3 0-.6 0-.9 0-2.1-.6-4.2-1.7-6-.2.2-.3.4-.5.7 2.9 5.3 1 12-4.3 15-2.4 1.3-5.1 1.7-7.8 1.1v.1.3s.1.1.1.3z"/><path d="m139.5 57.3c-.5-.4-.9-.8-1.4-1.1 1.2 2.4.2 5.3-2.3 6.5-2.4 1.2-5.3.2-6.5-2.3-.3-.7-.5-1.4-.5-2.1 0-.3 0-.5.1-.8s.1-.6.2-.9c.5-1.4 1.6-2.5 3-2.9-.9-.2-1.7-.2-2.6-.2-.4 0-.8 0-1.1 0-1.1 1.2-1.7 2.8-1.8 4.4v.4c0 2.1.9 4.1 2.4 5.4l.2.2.4.3c.9.6 1.9 1.1 3 1.2.2 0 .5.1.7.1h.4c2.1 0 4-.9 5.4-2.4.2-.2.4-.5.6-.7.7-1.1 1.2-2.3 1.2-3.7-.4-.5-.9-.9-1.4-1.4z" fill="#fff"/><path d="m133.7 65.6h-.5c-.2 0-.5 0-.7-.1-1.1-.2-2.1-.6-3-1.2-.1-.1-.3-.2-.4-.3l-.1-.1c-1.6-1.4-2.4-3.3-2.4-5.4 0-.2 0-.3 0-.4.1-1.6.7-3.2 1.8-4.4h1.2c.9 0 1.8.1 2.6.2h.1-.1c-1.4.5-2.5 1.5-3 2.9-.1.3-.2.6-.2.9s-.1.5-.1.8c0 2.7 2.1 4.8 4.8 4.9 2.7 0 4.8-2.1 4.9-4.8 0-.7-.2-1.5-.5-2.1l-.1-.1.1.1c.5.4 1 .7 1.4 1.1.5.4.9.9 1.4 1.4-.1 1.3-.5 2.6-1.2 3.7-.2.3-.4.5-.6.7-1.4 1.3-3.4 2.2-5.4 2.2zm-5.3-12c-1.1 1.2-1.7 2.7-1.8 4.3v.4c0 2.1.9 4 2.4 5.4l.1.1.4.3c.9.6 1.9 1.1 3 1.2.2 0 .5.1.7.1h.5c2 0 4-.9 5.3-2.4.2-.2.4-.5.6-.7.7-1.1 1.2-2.3 1.2-3.6-.4-.5-.9-1-1.4-1.4-.4-.4-.9-.7-1.3-1.1 1.2 2.4.1 5.4-2.3 6.5-1.2.6-2.6.6-3.8.2s-2.2-1.3-2.8-2.5c-.3-.7-.5-1.4-.5-2.1 0-.3 0-.5.1-.8s.1-.6.2-.9c.5-1.3 1.5-2.4 2.9-2.9-.8-.1-1.6-.2-2.5-.2-.3 0-.6 0-1 .1z"/><path d="m126.9 79.2c-.2-4.8-3.7-8.8-8.3-9.6l-.9-.1c-.3 0-.6 0-.9 0-.8 0-1.5.1-2.3.2.1.8.2 1.7.4 2.5 1.1-.3 2.2-.3 3.3-.1.3.1.7.2 1 .3 3 1 5 3.7 5.2 6.8v.4c0 1-.2 2-.6 2.9.8.3 1.6.6 2.4.8.4-1 .6-2.1.7-3.1 0-.2 0-.3 0-.5s0-.4 0-.5z" fill="#fff"/><path d="m126.3 83.2c-.8-.2-1.6-.4-2.4-.8.4-.9.6-1.9.6-2.9 0-.1 0-.3 0-.4-.2-3.1-2.2-5.8-5.2-6.8-.3-.1-.7-.2-1-.3-1.1-.2-2.2-.2-3.3.1-.2-.8-.3-1.7-.4-2.5.7-.2 1.5-.3 2.3-.3h.9s.6.1.9.1c4.7.8 8.2 4.8 8.4 9.6v.1.3s0 .3 0 .5c-.1 1.2-.4 2.3-.8 3.3zm-2.4-.8c.8.3 1.5.5 2.3.7.4-1 .6-2 .6-3.1 0-.2 0-.3 0-.5s0-.2 0-.3v-.1c-.2-4.7-3.6-8.7-8.3-9.6-.3-.1-.6-.1-.9-.1s-.6 0-.9 0c-.7 0-1.5.1-2.2.2.1.8.2 1.6.4 2.4 1.1-.3 2.2-.3 3.3-.1.3.1.7.2 1 .3 3 1 5 3.7 5.2 6.9v.4c0 1.1-.2 2-.5 2.9z"/><path d="m119.2 72.3c.9 2.5 2.7 4.6 5.1 5.8-.5-2.7-2.5-4.9-5.1-5.8z" fill="#004173"/><path d="m124.3 78.2c-2.4-1.3-4.2-3.3-5.2-5.8v-.1h.1c2.7.9 4.6 3.1 5.1 5.9zm-5-5.8c.9 2.4 2.7 4.4 5 5.7-.6-2.7-2.5-4.8-5-5.7z"/><path d="m133.7 70.8c-1.2 2.3-4.1 3.3-6.5 2s-3.3-4.1-2-6.5c.7-1.4 2.1-2.4 3.7-2.5-1.5-1.4-2.4-3.3-2.4-5.4 0-.1 0-.3 0-.4-4.7 1.3-8 5.7-8 10.6v1.1c4.7.8 8.2 4.8 8.3 9.6 5.9 1.4 11.8-2.2 13.3-8.1.1-.3.1-.6.2-.9-2 1.1-4.4 1.3-6.6.5zm-10.5-8.3c0-.6.4-1 1-1h.1c.5 0 1 .5 1 1 0 .6-.4 1-.9 1 0 0 0 0-.1 0-.6 0-1-.4-1.1-.9zm11.1 13.4c-.6 0-1-.4-1-1s.4-1 1-1 1 .4 1 1c0 .6-.4 1-1 1z" fill="#004173"/><path d="m129.5 79.5c-.9 0-1.8-.1-2.6-.3-.2-4.7-3.6-8.7-8.3-9.6 0-.4-.1-.7-.1-1.1 0-4.9 3.3-9.3 8-10.6v.4c0 2 .9 4 2.5 5.3h.1-.1c-2.6.3-4.5 2.7-4.2 5.3s2.7 4.5 5.3 4.2c1.5-.2 2.9-1.1 3.6-2.5 2.2.9 4.6.6 6.6-.6h.1v.1c0 .3-.1.6-.2.9-1.2 5-5.6 8.5-10.7 8.5zm-2.5-.4c5.9 1.4 11.8-2.2 13.2-8.1.1-.3.1-.6.2-.9-2 1.2-4.4 1.5-6.6.6-1.3 2.3-4.2 3.2-6.6 1.9s-3.2-4.2-1.9-6.6c.7-1.4 2.1-2.3 3.6-2.5-1.5-1.4-2.4-3.3-2.4-5.4 0-.1 0-.2 0-.4-4.7 1.4-7.9 5.6-7.9 10.5v1.1c4.7 1.1 8.2 5.1 8.4 9.8zm7.3-3.1c-.6 0-1.1-.5-1.1-1.1 0-.6.5-1.1 1.1-1.1.6 0 1.1.5 1.1 1.1 0 .6-.4 1.1-1.1 1.1.1 0 .1 0 0 0zm0-2.1c-.6 0-1 .4-1 1 0 .3.1.6.3.8s.4.3.7.3c.6 0 1-.4 1-1s-.4-1.1-1-1.1zm-10-10.3c-.6 0-1.1-.5-1.1-1.1 0-.3.1-.6.3-.8s.5-.3.8-.3c.6 0 1.1.5 1.1 1.1 0 .6-.5 1.1-1.1 1.1zm-1-1.1c0 .6.4 1 1 1s1-.4 1-1-.4-1-1-1c-.3 0-.5.1-.7.3s-.3.5-.3.7z"/><path d="m129.7 61.1c.6-1.3 1.5-2.4 2.7-3.2-.9-.3-1.9-.4-2.9-.4h-.6c0 .3-.1.5-.1.8 0 1 .3 2 .9 2.8z" fill="#004173"/><path d="m129.7 61.2c-.6-.9-.9-1.8-.9-2.8 0-.3 0-.5.1-.8h.6c1 0 1.9.1 2.9.4h.1-.1c-1.2.7-2.1 1.8-2.7 3.2zm-.8-3.7c0 .3-.1.5-.1.8 0 1 .3 1.9.8 2.7.6-1.3 1.4-2.4 2.6-3.1-.9-.2-1.8-.4-2.8-.4z"/><path d="m140.8 57.1c-3-3-7-4.6-11.2-4.6h-.1c-8.9 0-16.1 7.2-16.1 16.1 0 .5 0 1 .1 1.5.8 8.8 8.6 15.4 17.5 14.6 8.8-.8 15.4-8.6 14.6-17.5-.4-3.9-2.1-7.5-4.8-10.1zm-11.3 26.4c-1.1 0-2.2-.1-3.2-.4-.8-.2-1.6-.4-2.4-.7-5.3-2.1-8.9-7.1-9.3-12.8 0-.4 0-.8 0-1.2 0-7.9 6-14.4 13.9-15h1.1c8.3 0 15 6.7 15 15 0 .9-.1 1.7-.2 2.6-1.4 7.3-7.6 12.6-14.9 12.5z" fill="#004173"/><path d="m129.5 84.6c-8.3 0-15.3-6.4-16-14.7 0-.5-.1-1-.1-1.5 0-8.9 7.2-16.1 16.1-16.1h.1c4.2 0 8.3 1.7 11.2 4.7 6.3 6.2 6.4 16.4.2 22.8 0 0-.1.1-.1.1-3 3.1-7.1 4.8-11.4 4.7zm0-32.1c-8.8 0-16 7.2-16 16 0 .5 0 .9.1 1.5.8 8.8 8.6 15.3 17.4 14.4 8.8-.8 15.3-8.6 14.4-17.4-.3-3.7-2-7.2-4.7-9.9-2.9-2.9-6.9-4.6-11.2-4.6zm0 31.1c-1.1 0-2.2-.1-3.2-.3-.8-.2-1.6-.4-2.4-.8-5.3-2.1-8.9-7.1-9.3-12.8 0-.4 0-.8 0-1.2 0-7.9 6-14.4 13.9-15h1.2c.9 0 1.8.1 2.6.2 8.2 1.4 13.7 9.2 12.3 17.4-1.4 7.2-7.7 12.5-15.1 12.5zm0-30c-.4 0-.7 0-1.1 0-7.8.6-13.8 7.1-13.8 14.9v1.2c.1.8.2 1.7.4 2.5 1.2 4.6 4.5 8.4 8.9 10.2.8.3 1.6.6 2.4.7 1.1.2 2.1.4 3.2.3 8.3-.1 14.9-6.9 14.8-15.2-.1-7.1-5.2-13.2-12.2-14.5-.9-.1-1.8-.2-2.6-.1z"/><path d="m51.7 99h155.6" fill="none" stroke="#fff" stroke-miterlimit="10" stroke-width=".25"/><path d="m51.7 199.9h155.6" fill="none" stroke="#fff" stroke-miterlimit="10" stroke-width=".25"/><path d="m51.7 809.7h155.6" fill="none" stroke="#fff" stroke-miterlimit="10" stroke-width=".25"/><path d="m73.8 839.2c-3.3-.1-6.1 2.6-6.1 5.9v.1c.1 2 .7 4 1.7 5.7.6 1.3 1.7 2.4 2.9 3.1-2.9.3-5.6 1.5-7.8 3.4-.2.1-.2.4-.1.6.1.2.4.2.6.1l.1-.1c4.9-4.4 12.4-4.4 17.3 0 .2.2.5.2.6 0 .2-.2.2-.4 0-.6l-.1-.1c-2.2-1.9-4.9-3.1-7.8-3.4 1.3-.7 2.3-1.8 2.9-3.1 1-1.7 1.6-3.7 1.7-5.7.2-3.2-2.5-5.9-5.9-5.9zm0 .9c2.8-.1 5.2 2.2 5.2 5-.1 1.9-.7 3.7-1.6 5.3-1 1.7-2.3 3-3.6 3s-2.6-1.3-3.6-3c-.9-1.6-1.5-3.4-1.6-5.3 0-2.8 2.3-5 5.2-5z" fill="#fff" stroke="#101528" stroke-miterlimit="10" stroke-width=".25"/><circle cx="73.8" cy="849.6" fill="none" r="19.6" stroke="#fff" stroke-miterlimit="10" stroke-width=".25"/><path d="m110.7 841.8h79.7v6.6h-79.7z" fill="#e6e6e6"/><path d="m110.7 850.8h32.4v6.6h-32.4z" fill="#e6e6e6"/><circle cx="73.8" cy="149.4" fill="none" r="19.6" stroke="#fff" stroke-miterlimit="10" stroke-width=".25"/><path d="m110.7 141.6h79.7v6.6h-79.7z" fill="#e6e6e6"/><path d="m110.7 150.7h32.4v6.6h-32.4z" fill="#e6e6e6"/><circle cx="73.8" cy="149.4" fill="#fff" r="15.5" stroke="#101528" stroke-miterlimit="10" stroke-width=".25"/><g clip-path="url(#a)"><path d="m56.1 243.8h19.9v18.6h-19.9z" fill="#fff"/></g><g clip-path="url(#b)"><path d="m55.5 376.8h20.9v16.2h-20.9z" fill="#fff"/></g><path d="m72 448.8-1.3-1.3c-.1-.1-.3-.1-.4 0l-.9.9 1.7 1.7.9-.9c.1-.1.1-.3 0-.4zm-1.3 1.6-1.6-1.6-5 5-.2 1.8 1.8-.2zm2.3-.6-6.8 6.8-2.3.3c-.6.1-1.1-.4-1.2-1 0-.1 0-.1 0-.2l.3-2.4 6.8-6.8c.6-.6 1.5-.6 2.1 0l1.1 1.1c.6.7.6 1.6 0 2.2zm-4.1 5.3.8-.9c.1-.1.2-.1.3 0 0 0 .1.1.1.2v4c0 .7-.5 1.3-1.2 1.3h-9c-.7 0-1.2-.6-1.2-1.3v-9.6c0-.7.5-1.3 1.2-1.3h7c.1 0 .2.1.2.2s0 .1-.1.1l-.8.9s-.1.1-.2.1h-6.2v9.6h9v-3.1c0-.1 0-.2.1-.2z" fill="#fff"/><g clip-path="url(#c)"><path d="m55.2 442.7h21.6v20.3h-21.6z" fill="#fff" stroke="#101528" stroke-miterlimit="10" stroke-width=".25"/></g><path d="m72 448.8-1.3-1.3c-.1-.1-.3-.1-.4 0l-.9.9 1.7 1.7.9-.9c.1-.1.1-.3 0-.4zm-1.3 1.6-1.6-1.6-5 5-.2 1.8 1.8-.2zm2.3-.6-6.8 6.8-2.3.3c-.6.1-1.1-.4-1.2-1 0-.1 0-.1 0-.2l.3-2.4 6.8-6.8c.6-.6 1.5-.6 2.1 0l1.1 1.1c.6.7.6 1.6 0 2.2zm-4.1 5.3.8-.9c.1-.1.2-.1.3 0 0 0 .1.1.1.2v4c0 .7-.5 1.3-1.2 1.3h-9c-.7 0-1.2-.6-1.2-1.3v-9.6c0-.7.5-1.3 1.2-1.3h7c.1 0 .2.1.2.2s0 .1-.1.1l-.8.9s-.1.1-.2.1h-6.2v9.6h9v-3.1c0-.1 0-.2.1-.2z" fill="none" stroke="#101528" stroke-miterlimit="10" stroke-width=".25"/><path d="m88.2 251.5h108.7v6.6h-108.7z" fill="#e6e6e6"/><path d="m88.2 382.3h108.7v6.6h-108.7z" fill="#e6e6e6"/><path d="m88.2 450.3h108.7v6.6h-108.7z" fill="#e6e6e6"/><image height="205" opacity=".25" overflow="visible" transform="matrix(.48 0 0 .48 21.36 274.32)" width="472" xlink:href="C0E2C064006AC598.png"/><path d="m54.5 299.5h150.1c4.4 0 8 3.6 8 8v22.2c0 4.4-3.6 8-8 8h-150.1c-4.4 0-8-3.6-8-8v-22.2c0-4.5 3.6-8 8-8z" fill="#2463af"/><path d="m71.8 324.1h-11.5v-7.4l5.7 3.7 5.7-3.7zm0-8.7-5.8 4.1-5.7-4zm1.3 0c0-.8-.6-1.4-1.4-1.4h-11.4c-.8 0-1.4.6-1.4 1.4v8.6c0 .8.6 1.4 1.4 1.4h11.4c.8 0 1.4-.6 1.4-1.4z" fill="#fff"/><g clip-path="url(#d)"><path d="m55.5 310.6h20.9v18.2h-20.9z" fill="#fff" stroke="#2463af" stroke-miterlimit="10" stroke-width=".25"/></g><path d="m71.8 324.1h-11.5v-7.4l5.7 3.7 5.7-3.7zm0-8.7-5.8 4.1-5.7-4zm1.3 0c0-.8-.6-1.4-1.4-1.4h-11.4c-.8 0-1.4.6-1.4 1.4v8.6c0 .8.6 1.4 1.4 1.4h11.4c.8 0 1.4-.6 1.4-1.4z" fill="none" stroke="#2463af" stroke-miterlimit="10" stroke-width=".25"/><path d="m88.2 316.2h108.7v6.6h-108.7z" fill="#e6e6e6"/><image height="707" opacity=".15" overflow="visible" transform="matrix(.48 0 0 .48 244.56 140.88)" width="655" xlink:href="C0E2C064006AC599.png"/><path d="m277.9 166h237.9c4.4 0 8 3.6 8 8v263.2c0 4.4-3.6 8-8 8h-237.9c-4.4 0-8-3.6-8-8v-263.2c0-4.4 3.6-8 8-8z" fill="#fff"/><path d="m288.2 191.3h99.4v9.8h-99.4z" fill="#e6e6e6"/><path d="m296.2 220.9h204.8c4.4 0 8 3.6 8 8v16.4c0 4.4-3.6 8-8 8h-204.8c-4.4 0-8-3.6-8-8v-16.4c0-4.4 3.5-8 8-8z" fill="#e6e6e6"/><path d="m296.2 263.3h204.8c4.4 0 8 3.6 8 8v16.4c0 4.4-3.6 8-8 8h-204.8c-4.4 0-8-3.6-8-8v-16.4c0-4.5 3.5-8 8-8z" fill="#e6e6e6"/><path d="m296.2 305.6h204.8c4.4 0 8 3.6 8 8v16.4c0 4.4-3.6 8-8 8h-204.8c-4.4 0-8-3.6-8-8v-16.4c0-4.4 3.5-8 8-8z" fill="#e6e6e6"/><path d="m296.2 348h204.8c4.4 0 8 3.6 8 8v16.4c0 4.4-3.6 8-8 8h-204.8c-4.4 0-8-3.6-8-8v-16.4c0-4.4 3.5-8 8-8z" fill="#e6e6e6"/><path d="m296.2 390.3h204.8c4.4 0 8 3.6 8 8v16.4c0 4.4-3.6 8-8 8h-204.8c-4.4 0-8-3.6-8-8v-16.4c0-4.4 3.5-8 8-8z" fill="#101528"/><image height="483" opacity=".15" overflow="visible" transform="matrix(.48 0 0 .48 244.56 435.12)" width="655" xlink:href="C0E2C064006AC59A.png"/><path d="m277.9 460.1h237.9c4.4 0 8 3.6 8 8v155.5c0 4.4-3.6 8-8 8h-237.9c-4.4 0-8-3.6-8-8v-155.5c0-4.4 3.6-8 8-8z" fill="#fff"/><path d="m288.2 487.8h99.4v9.8h-99.4z" fill="#e6e6e6"/><image height="318" opacity=".15" overflow="visible" transform="matrix(.48 0 0 .48 262.32 495.6)" width="580" xlink:href="C0E2C064006AC59B.png"/><path d="m296.2 521.5h201c4.4 0 8 3.6 8 8v75.1c0 4.4-3.6 8-8 8h-201c-4.4 0-8-3.6-8-8v-75.1c0-4.5 3.5-8 8-8z" fill="none" stroke="#e6e6e6" stroke-miterlimit="10"/><path d="m278.2 113.9h32.4v6.6h-32.4z" fill="#e6e6e6"/><path d="m345.3 113.9h32.4v6.6h-32.4z" fill="#e6e6e6"/><path d="m411 113.9h32.4v6.6h-32.4z" fill="#e6e6e6"/><circle cx="428.1" cy="85.4" fill="#e6e6e6" r="15.2"/><path d="m430.7 89.8-4.4-1.9 4.3-5.4c.1 0 .1-.1 0-.2s-.1-.1-.2 0l-5.5 5-2.4-1.1 9.6-5.9zm-4.8.7v-2l1.2.5zm5.9-10.9-9.6 5.9c-.3.2-.4.7-.2 1.1.1.1.2.2.3.3l3 1.3v2.3c0 .4.3.7.6.7.2 0 .5-.1.6-.3l1.3-1.7 2.7 1.2c.3.1.7 0 .9-.4 0-.1 0-.1 0-.2l1.4-9.5c.1-.4-.2-.7-.5-.8-.2 0-.4.1-.5.1z" fill="#1d1d1b" opacity=".5"/><path d="m307.6 85h111.6" fill="none" stroke="#e6e6e6" stroke-miterlimit="10"/><circle cx="361.2" cy="85.4" fill="#e6e6e6" r="15.2"/><path d="m357 85.7c-.3-.2-.7-.3-1.1-.3h-1c-1.1 0-2 .9-2 2 0 .2.2.4.4.4s.4-.2.4-.4c0-.7.5-1.2 1.1-1.2h1c.1 0 .3 0 .4.1.3-.3.6-.4.8-.6zm8.4 4.1c0 .2-.2.4-.4.4h-7.5c-.2 0-.4-.2-.4-.4v-1.1c0-.4.1-.8.4-1.2.4-.5 1-.9 1.7-.8.7 0 1 .3 2.1.3s1.4-.3 2.1-.3 1.3.3 1.7.8c.2.3.4.8.4 1.2zm-2.1-4c-.9 0-1.1.3-2.1.3s-1.2-.3-2.1-.3-1.8.4-2.4 1.2c-.3.5-.5 1-.5 1.6v1.1c0 .7.6 1.2 1.2 1.2h7.5c.7 0 1.2-.5 1.3-1.2v-1.1c0-1.6-1.2-2.8-2.8-2.8 0 .1 0 .1-.1 0zm-7.9-4.5c.7 0 1.2.6 1.2 1.2s-.6 1.2-1.2 1.2c-.7 0-1.2-.6-1.2-1.2 0-.7.5-1.2 1.2-1.2zm0 3.2c1.1 0 2-1 1.9-2.1 0-1.1-1-2-2.1-1.9-1.1 0-1.9.9-1.9 2 0 1.2.9 2.1 2.1 2zm12.2.8h-1c-.4 0-.8.1-1.1.3.2.2.5.4.7.6.1-.1.3-.1.4-.1h1c.7 0 1.2.6 1.1 1.2 0 .2.3.4.5.4s.3-.2.4-.4c0-1-.9-1.9-2-2 0 .1 0 .1 0 0zm-6.3-4.8c1.1 0 2 1 1.9 2.1 0 1.1-1 2-2.1 1.9-1.1 0-1.9-.9-1.9-2s.9-2 2.1-2zm0 4.8c1.6 0 2.8-1.3 2.8-2.9s-1.3-2.8-2.9-2.8c-1.5 0-2.8 1.3-2.8 2.9-.1 1.6 1.2 2.9 2.9 2.8zm5.8-4c.7 0 1.2.6 1.2 1.2s-.6 1.2-1.2 1.2c-.7 0-1.2-.6-1.2-1.2 0-.7.5-1.2 1.2-1.2zm0 3.2c1.1 0 2-1 1.9-2.1 0-1.1-1-2-2.1-1.9-1.1 0-1.9.9-1.9 2 0 1.2.9 2.1 2.1 2z" fill="#1d1d1b" opacity=".5"/><circle cx="294.3" cy="85.4" fill="#101527" r="15.2"/><path d="m297.6 92h3.3v-3.3h-3.3zm0-4.9h3.3v-3.3h-3.3zm-4.9-5h3.3v-3.3h-3.3zm4.9-3.2v3.3h3.3v-3.3zm-4.9 8.1h3.3v-3.3h-3.3zm-4.9 0h3.2v-3.3h-3.3zm0 4.9h3.2v-3.3h-3.3zm4.9 0h3.3v-3.3h-3.3zm-4.9-9.8h3.2v-3.3h-3.3z" fill="#fff"/></svg>