<svg height="245" viewBox="0 0 245 245" width="245" xmlns="http://www.w3.org/2000/svg" xmlns:xlink="http://www.w3.org/1999/xlink"><linearGradient id="a" x1="0%" x2="97.623274%" y1="48.321416%" y2="46.103281%"><stop offset="0" stop-color="#f34866"/><stop offset="1" stop-color="#f20a25"/></linearGradient><linearGradient id="b" x1="50%" x2="50%" y1="0%" y2="100%"><stop offset="0" stop-color="#d2d2d2"/><stop offset="1" stop-color="#a3a3a3"/></linearGradient><g fill="none" fill-rule="evenodd"><path d="m23.6596463 48.6023268c-1.9174063.7267017-2.7980825 1.7163465-2.6420288 2.9689346v28.1017797c.5981519 2.9322448 2.4375313 3.6653059 5.5181383 2.1991836 3.080607-1.4661224 11.2778308-5.5660796 24.5916714-12.2998716l39.8656141 41.8626369c1.4269866 1.654708 3.7293907 1.654708 6.9072122 0 3.1778215-1.654707 36.5021425-18.1712097 99.9729625-49.5495063l9.779286 14.0862955c2.462127 3.0178542 4.814796 2.7057467 7.058007-.9363224.987199-4.6065204 4.167833-17.7586948 9.541903-39.4565234.957603-3.3793705-.034243-5.2374617-2.975538-5.5742736s-16.915198-2.3383652-41.921708-6.0046598c-3.097104.3495413-4.321686 2.021376-3.673745 5.0155041 1.512352 2.4755797 3.715571 5.6931485 6.609659 9.6527062l-83.5198119 40.3781699-43.2454737-42.8345486c-1.7295548-1.6375858-4.0438219-1.6375858-6.9428013 0-4.3484691 2.4563787-22.0472373 11.3004428-24.9233468 12.3904952z" fill="url(#a)" transform="matrix(1 0 0 -1 0 136.67602)"/><path d="m44.3430003 157.869102c-7.4055826 1.879444-10.7706754-.705016-10.0952784-7.753378 1.0130956-10.572544 22.3486858-28.645361 32.1841271-32.010454 9.8354412-3.365093 23.4674664-7.500946 47.251315-2.088794 9.102377 2.185055 14.817448 2.368153 21.290489 1.184076 6.473041-1.184076 19.363251-3.876016 30.066387 5.183953s13.362091 12.942716 18.78232 15.459636c5.42023 2.51692 18.70962 6.466983 20.869769 10.325497 2.160148 3.858514 2.670398 11.603141 2.670398 15.004584 1.25386 1.774432 3.541908 4.330844 6.864143 7.669235 2.203904 2.421556 2.203904 5.056951 0 7.906184-2.203903 2.849233-3.72321 4.90078-4.55792 6.15464-1.53434 1.419904-4.259265 1.419904-8.174772 0-3.915508-1.419905-12.50943-4.880361-25.781767-10.381369l-5.643717-2.180343-14.695607 5.412152c-2.995083 6.54978-3.743854 12.318478-2.246312 17.306095 2.246312 7.481424 6.928092 11.921543 8.470286 14.145641s9.068047 11.594673-1.292454 11.594673c-6.907 0-13.982513 0-21.226539 0-9.682187-15.045162-15.429344-25.980854-17.241473-32.807076-5.509759 2.719539-22.8050834 6.366682-41.1929359 1.638454-1.5051706 5.139749-2.3941815 9.57179-2.667033 13.296122 7.4325088 3.910572 11.1487631 7.425553 11.1487631 10.544945 0 4.679088.4234134 7.327555-2.6010639 7.327555-2.0163182 0-15.5561214 0-40.6194096 0-2.0822872-.679176-2.602859-3.121694-1.5617154-7.327555 1.5617154-6.308792 4.9853725-20.286818 2.4926862-28.569294-1.6617908-5.521652-2.4926862-14.533378-2.4926862-27.035179z" fill="url(#b)"/><g fill="#8e8e8e"><path d="m46.0077396 148.665112c-5.0705193 4.258441-7.605779 7.452982-7.605779 9.583622 1.2535845.097608 3.233931-.028936 5.9410397-.379632z"/><path d="m84.9202155 178.633668-4.2767564 10.99884c2.667588.743668 4.604483 1.115502 5.8106849 1.115502-.8231464-3.260795-1.3344559-7.298909-1.5339285-12.114342z"/><path d="m119.971067 169.591006c-3.243487 10.482951-4.86523 17.311695-4.86523 20.486231 2.953499-.813212 5.197019-1.507607 6.730558-2.083183-.928008-2.326843-1.549784-5.04682-1.865328-8.159933-.315545-3.113112-.315545-6.527484 0-10.243115z"/><path d="m161.47912 160.95021 1.842331 13.802222-7.948564 3.002289z"/></g></g></svg>