<svg height="245" viewBox="0 0 245 245" width="245" xmlns="http://www.w3.org/2000/svg" xmlns:xlink="http://www.w3.org/1999/xlink"><linearGradient id="a" x1="50%" x2="50%" y1="0%" y2="100%"><stop offset="0" stop-color="#dc934a"/><stop offset="1" stop-color="#9e5833"/></linearGradient><linearGradient id="b" x1="50%" x2="50%" y1="0%" y2="100%"><stop offset="0" stop-color="#ac562d"/><stop offset="1" stop-color="#784225"/></linearGradient><linearGradient id="c" x1="0%" x2="97.623274%" y1="48.321416%" y2="46.103281%"><stop offset="0" stop-color="#009e76"/><stop offset="1" stop-color="#19d394"/></linearGradient><g fill="none" fill-rule="evenodd"><path d="m36.2325979 188.368155v30.551903c-.1354613 2.379953 1.1811812 3.56993 3.9499273 3.56993h13.6477222c2.4447166-.177425 3.667075-1.886799 3.667075-5.12812s-.8692098-10.511332-2.6076294-21.810033l13.210167-20.861034c10.1593382 6.244559 19.2505078 9.366838 27.273509 9.366838h28.088586c2.430862 25.621566 6.483796 38.432349 12.158802 38.432349h10.637943c5.05722-.233354 6.321525-2.325637 3.792915-6.276847s-4.201736-7.022691-5.019378-9.214444c-1.859258-18.487897-1.859258-28.404277 0-29.749141 2.788885-2.017295 20.881815-13.933268 30.539202-32.682723 1.498541 1.69519 9.49037 3.134466 14.712171-2.932429 1.537537 1.839246 5.182291 2.517579 10.934264 2.034998l6.867347-7.377251c1.173228-1.609629 1.173228-3.12895 0-4.557964s-8.37384-9.994116-21.601838-25.695308c-2.670742-3.096624-5.551218-4.644936-8.641428-4.644936s-6.927894 2.222155-11.513053 6.666464c-15.574878 2.137107-26.356748 4.352848-32.34561 6.647223-8.983292 3.441563-20.207203 7.14458-27.411279 7.79237-4.802717.43186-17.8001998.063357-38.9924474-1.10551-15.1749967.531327-26.0588473 6.832328-32.651552 18.903004s-9.196614 25.338055-7.8117278 39.802136h6.692633c-1.0174988-11.515233-.2096058-19.381992 2.4236791-23.600276.0836371 3.628976 1.6188647 9.692792 4.6056829 18.191447z" fill="url(#a)"/><g fill="url(#b)"><path d="m72.7349962 164.571669c2.7322941 3.96402 4.3067698 8.975459 4.7234273 15.034315-2.3932401-1.270066-7.6169335-3.422874-8.5478305-4.585542.7296126-1.788579 2.0044137-5.271503 3.8244032-10.448773z"/><path d="m122.541968 168.06106.919987 15.996579h-9.071139c0-5.861027 2.717051-11.19322 8.151152-15.996579z"/><path d="m152.216177 156.915627 2.622086 12.682919c-3.531881 3.109077-6.53374 5.429788-9.005578 6.962133.047422-2.995872 2.175252-9.544223 6.383492-19.645052z"/><path d="m191.63479 94.1458075c0 8.6830455-4.731668 14.1504855-14.195004 16.4023175v6.968725c14.331976-2.868132 21.272502-10.977742 20.82158-24.3288294-2.09983.0077256-4.308689.0077256-6.626576 0-.008498.2099444-.008498.5292067 0 .9577869z"/></g><path d="m19.2586477 49.3329608c-1.9174063.7267016-2.7980826 1.7163465-2.6420289 2.9689345v28.1017798c.5981519 2.9322447 2.4375313 3.6653059 5.5181383 2.1991835s11.2778308-5.5660795 24.5916714-12.2998715l39.8656141 41.8626369c1.4269866 1.654708 3.7293907 1.654708 6.9072122 0s36.5021422-18.1712097 99.9729632-49.5495063l9.779285 14.0862954c2.462127 3.0178542 4.814796 2.7057468 7.058008-.9363224.987198-4.6065203 4.167833-17.7586947 9.541903-39.4565233.957602-3.3793705-.034244-5.2374617-2.975539-5.5742736s-16.915197-2.3383652-41.921708-6.0046598c-3.097104.3495413-4.321685 2.021376-3.673744 5.0155041 1.512351 2.4755797 3.715571 5.6931484 6.609658 9.6527062l-83.5198115 40.3781698-43.2454738-42.8345485c-1.7295548-1.6375859-4.0438219-1.6375859-6.9428013 0-4.3484691 2.4563787-22.0472373 11.3004428-24.9233467 12.3904952z" fill="url(#c)"/></g></svg>