<svg viewBox="0 0 1295.5 270.5" xmlns="http://www.w3.org/2000/svg"><path d="m178.9 151.6c-19.1-9.2-32.5-28.4-33.2-50.9 0-.6 0-1.2 0-1.9 0-.3 0-.5 0-.8 1.1.9 2.2 1.7 3.3 2.5 7 5 15.1 8.5 23.9 9.9 1.9.3 3.9.5 5.9.7 1.2.1 2.4.1 3.6.1 17.1 0 32.4-7.4 42.9-19.2 7.1 12.7 11.2 27.3 11.2 42.9 0 4.5-.3 8.8-1 13.1-9.1 5.8-19.9 9.2-31.4 9.2-7.6 0-14.9-1.5-21.6-4.1-1.2-.4-2.5-.9-3.6-1.5" fill="#fff"/><g stroke="#000" stroke-miterlimit="10"><path d="m54.3 142.9c-.2-2.6-.4-5.2-.4-7.8 0-44.4 30.6-81.6 71.8-91.8 2-10.5 6.7-20 13.6-27.6-62 4.7-110.8 56.5-110.8 119.6 0 3.1.2 6.2.4 9.3 5.8-1.3 11.9-2.1 18.1-2.1 2.5 0 4.9.1 7.3.4zm-14.8-40.1c0-3.6 2.9-6.5 6.5-6.5s6.5 2.9 6.5 6.5-2.9 6.5-6.5 6.5-6.5-2.9-6.5-6.5z" fill="#fff" stroke-width=".8218"/><path d="m107.8 220.4c-23.4-11.2-41.4-31.7-49.4-56.6-3.7-.7-7.5-1.1-11.4-1.1-5.1 0-10.1.6-14.9 1.8 9.3 37.3 36.1 67.7 71.2 81.9 2.9-7.1 4.5-14.8 4.5-22.9 0-1 0-2.1 0-3.1z" fill="#fff" stroke-width=".8218"/><path d="m148.5 169.5c-5.9 0-11.5-1.5-16.4-4.2-1-.5-1.9-1.1-2.8-1.7-9.2-6.2-15.2-16.7-15.2-28.5s6-22.4 15.2-28.5c.9-.6 1.9-1.2 2.8-1.7 4-2.2 8.6-3.6 13.4-4 0-.6 0-1.2 0-1.9 0-.3 0-.5 0-.8-.5-.4-.9-.8-1.3-1.2-19.1 2.2-34 18.4-34 38.1 0 21.2 17.2 38.4 38.4 38.4 14.6 0 27.3-8.2 33.8-20.2-1.2-.5-2.5-1-3.6-1.6-6 10.6-17.3 17.8-30.3 17.8z" fill="#fff" stroke-width=".8218"/><circle cx="106.9" cy="87.2" fill="#fff" r="8.4" stroke-width=".8218"/><path d="m187.3 177.8c-4.6 0-8.4 3.8-8.4 8.4s3.7 8.4 8.4 8.4c4.6 0 8.4-3.8 8.4-8.4s-3.8-8.4-8.4-8.4z" fill="#fff" stroke-width=".8218"/><path d="m178.7 151.6c-19.1-9.2-32.5-28.4-33.2-50.9-4.8.4-9.4 1.8-13.4 4-1 .5-1.9 1.1-2.8 1.7-9.2 6.2-15.2 16.7-15.2 28.5s6 22.4 15.2 28.5c.9.6 1.9 1.2 2.8 1.7 4.9 2.6 10.5 4.2 16.4 4.2 13 .2 24.3-7 30.2-17.7z" fill="#2463af" stroke-width=".8213"/><path d="m250.9 161.6c-3.6 0-6.5 2.9-6.5 6.5s2.9 6.5 6.5 6.5 6.5-2.9 6.5-6.5-2.9-6.5-6.5-6.5z" fill="#2463af" stroke-width=".8213"/><path d="m52.5 102.8c0-3.6-2.9-6.5-6.5-6.5s-6.5 2.9-6.5 6.5 2.9 6.5 6.5 6.5 6.5-2.9 6.5-6.5z" fill="#2463af" stroke-width=".8213"/><path d="m219.5 42.6c-.6-2-1.4-3.8-2.2-5.7-14.1-9.8-30.3-16.7-47.9-19.8-11 3.8-19.8 12.5-23.7 23.4 1 0 1.9-.1 2.9-.1 10.9 0 21.4 1.9 31.1 5.3 14.6 5.1 27.5 13.6 37.8 24.6 2.3-5 3.7-10.6 3.7-16.5 0-3.9-.6-7.7-1.7-11.2z" fill="#fff" stroke-width=".8218"/><path d="m262.3 97.1c-5-14.8-12.7-28.3-22.7-39.9-.6 10.8-4.2 20.8-10 29.2 8.6 14.2 13.5 30.9 13.5 48.7 0 2.5-.1 5-.3 7.5-3.8 48.8-44.5 87.1-94.3 87.1-7.1 0-14-.8-20.6-2.3-.4 8.8-2.2 17.3-5.2 25.1 8.3 1.8 17 2.8 25.9 2.8 66.3 0 120-53.7 120-120 0-13.4-2.3-26.2-6.3-38.2zm-11.4 77.5c-3.6 0-6.5-2.9-6.5-6.5s2.9-6.5 6.5-6.5 6.5 2.9 6.5 6.5-2.9 6.5-6.5 6.5z" fill="#fff" stroke-width=".8218"/><path d="m171.5 50.3c-9.4 6.3-16.8 15.2-21.3 25.7 7 10.2 18.8 16.8 32.1 16.8 13.1 0 24.6-6.5 31.7-16.4-11.2-12.4-25.9-21.6-42.5-26.1z" fill="#fff" stroke-width=".8218"/><path d="m66.3 165.8c-2.6-.9-5.2-1.5-7.9-2.1 8 25 26 45.5 49.4 56.6-.1-2.8-.5-5.5-1-8.1-18.5-9.9-33-26.4-40.5-46.4z" fill="#fff" stroke-width=".8218"/><path d="m60.8 135c0-40.3 27.1-74.2 64.1-84.5.1-2.5.4-4.9.9-7.3-41.3 10.2-71.9 47.5-71.9 91.8 0 2.6.1 5.2.4 7.8 2.3.2 4.6.5 6.9.9-.3-2.8-.4-5.7-.4-8.7z" fill="#fff" stroke-width=".8218"/><path d="m179.7 45.7c-9.8-3.4-20.2-5.3-31.1-5.3-1 0-1.9 0-2.9.1-.8 2.2-1.4 4.5-1.8 6.9 1.6-.1 3.1-.1 4.7-.1 7.9 0 15.6 1.1 22.9 3 16.6 4.5 31.3 13.7 42.5 26.2 1.4-1.9 2.6-4 3.6-6.1-10.4-11.1-23.4-19.6-37.9-24.7z" fill="#fff" stroke-width=".8218"/><path d="m229.6 86.3c-1.4 2-2.9 4-4.5 5.8 7.1 12.7 11.2 27.3 11.2 42.9 0 4.5-.3 8.8-1 13.1-6.3 42.3-42.8 74.7-86.8 74.7-7.1 0-14-.9-20.6-2.5 0 1 .1 2.1.1 3.2 0 1.3 0 2.6-.1 3.8 6.6 1.5 13.5 2.3 20.6 2.3 49.7 0 90.5-38.4 94.3-87.1.2-2.5.3-5 .3-7.5 0-17.8-4.9-34.4-13.5-48.7z" fill="#fff" stroke-width=".8218"/><path d="m228.7 46c-3.6-3.2-7.4-6.3-11.4-9 .9 1.8 1.7 3.7 2.2 5.7 1.1 3.6 1.7 7.4 1.7 11.3 0 5.9-1.3 11.5-3.7 16.5-1 2.2-2.2 4.2-3.6 6.1-7.1 9.9-18.6 16.4-31.7 16.4-13.3 0-25-6.7-32.1-16.8-4.3-6.3-6.9-13.9-6.9-22.1 0-2.2.2-4.4.6-6.5.4-2.4 1-4.7 1.8-6.9 4-11 12.7-19.6 23.7-23.4-6.8-1.2-13.7-1.8-20.8-1.8-3.1 0-6.2.2-9.3.4-6.8 7.6-11.6 17.1-13.6 27.6-.4 2.4-.7 4.8-.9 7.3-.1 1.1-.1 2.2-.1 3.3 0 17.1 7.5 32.5 19.4 43.1.4.4.9.8 1.3 1.2 1.1.9 2.2 1.7 3.3 2.5 7 5 15.1 8.5 23.9 9.9 1.9.3 3.9.5 5.9.7 1.2.1 2.4.1 3.6.1 17.1 0 32.4-7.4 42.9-19.2 1.6-1.8 3.1-3.8 4.5-5.8 5.8-8.4 9.4-18.4 10-29.2-3.2-4.2-6.8-8-10.7-11.4z" fill="#fff" stroke-width=".8213"/><path d="m127.9 220.4c-1.5-38.5-29.8-70.1-66.7-76.6-2.3-.4-4.6-.7-6.9-.9-2.4-.2-4.8-.3-7.3-.3-6.2 0-12.3.7-18.1 2.1.5 6.8 1.6 13.5 3.2 20 4.8-1.2 9.7-1.8 14.9-1.8 3.9 0 7.7.4 11.4 1.1 2.7.5 5.4 1.2 7.9 2.1 20.7 6.9 36.4 24.6 40.5 46.4.5 2.7.8 5.4 1 8.1.1 1 .1 2.1.1 3.1 0 8.1-1.6 15.9-4.5 22.9 6.2 2.5 12.7 4.5 19.3 6 3-7.9 4.8-16.3 5.2-25.1.1-1.3.1-2.5.1-3.8 0-1.2 0-2.3-.1-3.3z" fill="#fff" stroke-width=".8218"/><path d="m66.3 165.8c7.5 19.9 22 36.4 40.5 46.4-4.1-21.7-19.8-39.4-40.5-46.4z" fill="#004173" stroke-width=".8213"/><path d="m182.3 153.2c-6.5 12-19.2 20.2-33.8 20.2-21.2 0-38.4-17.2-38.4-38.4 0-19.7 14.9-35.9 34-38.1-11.9-10.5-19.4-25.9-19.4-43.1 0-1.1 0-2.2.1-3.3-37 10.4-64.1 44.3-64.1 84.5 0 3 .2 5.9.4 8.7 37 6.5 65.3 38.1 66.7 76.6 6.6 1.6 13.5 2.5 20.6 2.5 44 0 80.5-32.4 86.8-74.7-9.1 5.8-19.9 9.2-31.4 9.2-7.5 0-14.8-1.4-21.5-4.1zm-83.8-66c0-4.6 3.8-8.4 8.4-8.4s8.4 3.8 8.4 8.4-3.7 8.4-8.4 8.4c-4.6 0-8.4-3.7-8.4-8.4zm88.8 107.4c-4.6 0-8.4-3.8-8.4-8.4s3.7-8.4 8.4-8.4c4.6 0 8.4 3.8 8.4 8.4s-3.8 8.4-8.4 8.4z" fill="#004173" stroke-width=".8213"/><path d="m150.1 76c4.5-10.5 11.9-19.4 21.3-25.7-7.3-2-15-3-22.9-3-1.6 0-3.2 0-4.7.1-.4 2.1-.6 4.3-.6 6.5 0 8.2 2.6 15.8 6.9 22.1z" fill="#004173" stroke-width=".8213"/><path d="m238.8 43.9c-23-22.8-54.7-36.9-89.6-37.1-.2 0-.5 0-.7 0-70.9 0-128.5 57.5-128.5 128.5 0 3.9.2 7.8.6 11.7.6 6.9 1.8 13.7 3.4 20.2 10.1 39.5 38.5 71.6 75.6 86.9 6.3 2.6 12.8 4.7 19.6 6.3 9.4 2.2 19.3 3.4 29.4 3.4 71 0 128.5-57.5 128.5-128.5-.1-35.8-14.7-68.1-38.3-91.4zm-90.3 211.4c-8.9 0-17.5-1-25.9-2.8-6.7-1.5-13.1-3.5-19.3-6-35.1-14.3-61.9-44.6-71.2-81.9-1.6-6.5-2.7-13.1-3.2-20-.2-3.1-.4-6.2-.4-9.3 0-63.2 48.8-114.9 110.8-119.6 3.1-.2 6.1-.4 9.3-.4 7.1 0 14.1.7 20.8 1.8 17.6 3.1 33.8 10 47.9 19.8 4 2.8 7.8 5.8 11.4 9 3.9 3.5 7.5 7.2 10.9 11.2 10 11.6 17.7 25.1 22.7 39.9 4 12 6.2 24.8 6.2 38.2.1 66.4-53.7 120.1-120 120.1z" fill="#004173" stroke-width=".8213"/></g><path d="m330.9 130.3c0-4.8.8-9.6 2.5-14.4s4.2-9 7.4-12.8 7.2-6.8 11.9-9.2 10.1-3.6 16.1-3.6c7.1 0 13.2 1.6 18.3 4.9 5 3.3 8.8 7.5 11.3 12.6l-4.7 2.7c-1.4-2.8-3.1-5.1-5-7s-4-3.4-6.2-4.6-4.5-2-6.9-2.5-4.8-.8-7.1-.8c-5.1 0-9.6 1-13.5 3.1s-7.2 4.8-9.9 8.1-4.8 7-6.1 11.2c-1.4 4.2-2.1 8.4-2.1 12.6 0 4.7.8 9.2 2.5 13.5s3.9 8.1 6.8 11.3c2.9 3.3 6.2 5.9 10.1 7.8 3.9 2 8.1 2.9 12.6 2.9 2.4 0 4.9-.3 7.4-.9 2.6-.6 5-1.5 7.3-2.8s4.5-2.9 6.5-4.9 3.7-4.3 5.1-7l5 2.4c-1.4 3-3.2 5.7-5.5 8s-4.9 4.3-7.8 5.9-5.9 2.8-9.1 3.6-6.3 1.2-9.4 1.2c-5.5 0-10.5-1.2-15.1-3.6-4.5-2.4-8.5-5.5-11.8-9.4s-5.9-8.3-7.7-13.2c-1.9-5-2.9-10-2.9-15.1z" fill="#231f20"/><path d="m436.9 170.9v-80.1h5.8v74.9h47.8v5.2z" fill="#231f20"/><path d="m551.8 171.5c-5.6 0-10.6-1.2-15.2-3.5s-8.5-5.4-11.8-9.1c-3.3-3.8-5.9-8.1-7.7-13s-2.7-9.9-2.7-15c0-5.3 1-10.5 2.9-15.3 1.9-4.9 4.5-9.2 7.9-13 3.3-3.8 7.3-6.7 11.9-9 4.6-2.2 9.5-3.3 14.9-3.3 5.6 0 10.7 1.2 15.3 3.6s8.6 5.5 11.8 9.3c3.3 3.8 5.8 8.2 7.6 13s2.7 9.8 2.7 14.7c0 5.4-1 10.6-2.9 15.5s-4.5 9.2-7.9 12.9c-3.3 3.7-7.3 6.7-11.9 8.9s-9.6 3.3-14.9 3.3zm-31.7-40.6c0 4.6.8 9 2.3 13.3 1.5 4.2 3.7 8 6.5 11.3s6.2 5.9 10.1 7.8c3.9 2 8.2 2.9 12.9 2.9 4.8 0 9.2-1 13-3 3.9-2 7.2-4.7 9.9-8.1 2.7-3.3 4.9-7.1 6.4-11.3s2.3-8.5 2.3-12.9c0-4.6-.8-9-2.4-13.3-1.6-4.2-3.8-8-6.6-11.3s-6.1-5.9-10-7.8c-3.8-2-8-2.9-12.6-2.9-4.8 0-9.2 1-13.1 3s-7.3 4.7-10 8.1c-2.8 3.3-4.9 7.1-6.4 11.3-1.6 4.2-2.3 8.5-2.3 12.9z" fill="#231f20"/><path d="m621.3 130.3c0-4.8.8-9.6 2.5-14.4s4.2-9 7.4-12.8 7.2-6.8 11.9-9.2 10.1-3.6 16.1-3.6c7.1 0 13.2 1.6 18.3 4.9 5 3.3 8.8 7.5 11.3 12.6l-4.7 2.7c-1.4-2.8-3.1-5.1-5-7s-4-3.4-6.2-4.6-4.5-2-6.9-2.5-4.8-.8-7.1-.8c-5.1 0-9.6 1-13.5 3.1s-7.2 4.8-9.9 8.1-4.8 7-6.1 11.2c-1.4 4.2-2.1 8.4-2.1 12.6 0 4.7.8 9.2 2.5 13.5s3.9 8.1 6.8 11.3c2.9 3.3 6.2 5.9 10.1 7.8 3.9 2 8.1 2.9 12.6 2.9 2.4 0 4.9-.3 7.4-.9 2.6-.6 5-1.5 7.3-2.8s4.5-2.9 6.5-4.9 3.7-4.3 5.1-7l5 2.4c-1.4 3-3.2 5.7-5.5 8s-4.9 4.3-7.8 5.9-5.9 2.8-9.1 3.6-6.3 1.2-9.4 1.2c-5.5 0-10.5-1.2-15.1-3.6-4.5-2.4-8.5-5.5-11.8-9.4s-5.9-8.3-7.7-13.2c-2-5-2.9-10-2.9-15.1z" fill="#231f20"/><path d="m727.7 170.9v-80.1h5.8v48.6l46.7-48.6h6.7l-33.3 35.1 35 45h-6.5l-32.1-41.5-16.4 16.8v24.7z" fill="#231f20"/><path d="m852.4 91.4h5.6l12 29.1 12-29.1h5.6l-14.1 33.7 16.8 39 30.7-73.3h6.3l-34.3 80.1h-5.3l-17.6-41.2-17.7 41.2h-5.3l-34.1-80.1h6.2l30.8 73.3 16.6-39z" fill="#231f20"/><path d="m990.8 171.5c-5.6 0-10.6-1.2-15.2-3.5s-8.5-5.4-11.8-9.1c-3.3-3.8-5.9-8.1-7.7-13s-2.7-9.9-2.7-15c0-5.3 1-10.5 2.9-15.3 1.9-4.9 4.5-9.2 7.9-13 3.3-3.8 7.3-6.7 11.9-9 4.6-2.2 9.5-3.3 14.9-3.3 5.6 0 10.7 1.2 15.3 3.6s8.6 5.5 11.8 9.3c3.3 3.8 5.8 8.2 7.6 13s2.7 9.8 2.7 14.7c0 5.4-1 10.6-2.9 15.5s-4.5 9.2-7.9 12.9c-3.3 3.7-7.3 6.7-11.9 8.9s-9.6 3.3-14.9 3.3zm-31.7-40.6c0 4.6.8 9 2.3 13.3 1.5 4.2 3.7 8 6.5 11.3s6.2 5.9 10.1 7.8c3.9 2 8.2 2.9 12.9 2.9 4.8 0 9.2-1 13-3 3.9-2 7.2-4.7 9.9-8.1 2.7-3.3 4.9-7.1 6.4-11.3s2.3-8.5 2.3-12.9c0-4.6-.8-9-2.4-13.3-1.6-4.2-3.8-8-6.6-11.3s-6.1-5.9-10-7.8c-3.8-2-8-2.9-12.6-2.9-4.8 0-9.2 1-13.1 3s-7.3 4.7-10 8.1c-2.8 3.3-4.9 7.1-6.4 11.3-1.6 4.2-2.3 8.5-2.3 12.9z" fill="#231f20"/><path d="m1065.8 170.9v-80.1h33.3c3.4 0 6.5.7 9.4 2.1s5.3 3.3 7.4 5.7 3.7 5 4.8 8c1.2 3 1.7 6 1.7 9 0 2.9-.5 5.8-1.4 8.5s-2.2 5.2-3.8 7.4c-1.7 2.2-3.6 4-6 5.4-2.3 1.4-4.9 2.4-7.7 2.8l20 31.1h-6.7l-19.4-30.2h-25.9v30.2h-5.7zm5.7-35.5h28.1c2.6 0 4.9-.6 7-1.7s3.9-2.6 5.4-4.5c1.5-1.8 2.6-3.9 3.4-6.3s1.2-4.8 1.2-7.3c0-2.6-.5-5-1.4-7.4s-2.2-4.5-3.8-6.3-3.5-3.3-5.6-4.3c-2.1-1.1-4.5-1.6-6.9-1.6h-27.3v39.4z" fill="#231f20"/><path d="m1162.1 170.9v-80.1h5.8v48.6l46.7-48.6h6.7l-33.3 35.1 35 45h-6.5l-32.1-41.5-16.4 16.8v24.7z" fill="#231f20"/><path d="m1252.2 171.1c-2.4 0-4.7-.4-6.8-1.3s-3.9-2.1-5.4-3.6-2.7-3.3-3.5-5.4c-.9-2.1-1.3-4.3-1.3-6.8 0-2.4.4-4.7 1.3-6.7.9-2.1 2-3.9 3.5-5.4s3.3-2.7 5.4-3.5c2.1-.9 4.3-1.3 6.8-1.3 2.4 0 4.7.4 6.8 1.3s3.9 2 5.4 3.5 2.7 3.3 3.5 5.4c.9 2.1 1.3 4.3 1.3 6.7s-.4 4.7-1.3 6.8-2 3.9-3.5 5.4-3.3 2.7-5.4 3.6-4.3 1.3-6.8 1.3zm0-.9c2.3 0 4.4-.4 6.3-1.2s3.6-1.9 5.1-3.3 2.6-3.1 3.4-5.1 1.2-4.2 1.2-6.6c0-2.3-.4-4.4-1.2-6.3s-1.9-3.6-3.3-5.1c-1.4-1.4-3.1-2.5-5.1-3.4-2-.8-4.1-1.2-6.4-1.2s-4.4.4-6.4 1.2-3.7 1.9-5.1 3.4-2.5 3.1-3.3 5.1c-.8 1.9-1.2 4.1-1.2 6.3 0 2.3.4 4.5 1.2 6.4.8 2 1.9 3.7 3.3 5.1s3.1 2.5 5.1 3.4 4.1 1.3 6.4 1.3zm-6.8-26.8h8.8c.9 0 1.7.2 2.4.6s1.4.9 2 1.5c.5.6 1 1.3 1.3 2.1s.4 1.6.4 2.4-.1 1.7-.4 2.4c-.3.8-.6 1.4-1.1 2s-1.1 1.1-1.8 1.5-1.4.6-2.3.7l5.5 8.6h-1.1l-5.5-8.6h-7.3v8.6h-1v-21.8zm9.1 12.2c.8 0 1.5-.1 2.1-.4s1.1-.7 1.6-1.2c.4-.5.7-1.1.9-1.8s.3-1.4.3-2.2-.1-1.5-.4-2.2-.6-1.3-1.1-1.8-1-.9-1.6-1.2-1.3-.4-2.1-.4h-7.8v11.2z"/></svg>