<?xml version="1.0" encoding="utf-8"?>
<svg version="1.2" baseProfile="tiny" id="Layer_1" xmlns="http://www.w3.org/2000/svg" xmlns:xlink="http://www.w3.org/1999/xlink"
	 x="0px" y="0px" viewBox="0 0 1295.5 270.5" overflow="visible" xml:space="preserve">
<g>
	<g>
		<g>
			<path fill="#FFFFFF" d="M178.9,151.6c-19.1-9.2-32.5-28.4-33.2-50.9c0-0.6,0-1.2,0-1.9c0-0.3,0-0.5,0-0.8
				c1.1,0.9,2.2,1.7,3.3,2.5c7,5,15.1,8.5,23.9,9.9l0,0c1.9,0.3,3.9,0.5,5.9,0.7c1.2,0.1,2.4,0.1,3.6,0.1c17.1,0,32.4-7.4,42.9-19.2
				c7.1,12.7,11.2,27.3,11.2,42.9c0,4.5-0.3,8.8-1,13.1c-9.1,5.8-19.9,9.2-31.4,9.2c-7.6,0-14.9-1.5-21.6-4.1
				C181.3,152.7,180,152.2,178.9,151.6"/>
			<g>
				<g>
					<path fill="#FFFFFF" stroke="#000000" stroke-width="0.8218" stroke-miterlimit="10" d="M54.3,142.9c-0.2-2.6-0.4-5.2-0.4-7.8
						c0-44.4,30.6-81.6,71.8-91.8c2-10.5,6.7-20,13.6-27.6c-62,4.7-110.8,56.5-110.8,119.6c0,3.1,0.2,6.2,0.4,9.3
						c5.8-1.3,11.9-2.1,18.1-2.1C49.5,142.5,51.9,142.6,54.3,142.9z M39.5,102.8c0-3.6,2.9-6.5,6.5-6.5s6.5,2.9,6.5,6.5
						s-2.9,6.5-6.5,6.5S39.5,106.4,39.5,102.8z"/>
					<path fill="#FFFFFF" stroke="#000000" stroke-width="0.8218" stroke-miterlimit="10" d="M107.8,220.4
						c-23.4-11.2-41.4-31.7-49.4-56.6c-3.7-0.7-7.5-1.1-11.4-1.1c-5.1,0-10.1,0.6-14.9,1.8c9.3,37.3,36.1,67.7,71.2,81.9
						c2.9-7.1,4.5-14.8,4.5-22.9C107.8,222.5,107.8,221.4,107.8,220.4z"/>
					<path fill="#FFFFFF" stroke="#000000" stroke-width="0.8218" stroke-miterlimit="10" d="M148.5,169.5L148.5,169.5L148.5,169.5
						c-5.9,0-11.5-1.5-16.4-4.2c-1-0.5-1.9-1.1-2.8-1.7c-9.2-6.2-15.2-16.7-15.2-28.5s6-22.4,15.2-28.5c0.9-0.6,1.9-1.2,2.8-1.7
						c4-2.2,8.6-3.6,13.4-4c0-0.6,0-1.2,0-1.9c0-0.3,0-0.5,0-0.8c-0.5-0.4-0.9-0.8-1.3-1.2c-19.1,2.2-34,18.4-34,38.1
						c0,21.2,17.2,38.4,38.4,38.4c14.6,0,27.3-8.2,33.8-20.2c-1.2-0.5-2.5-1-3.6-1.6C172.8,162.3,161.5,169.5,148.5,169.5z"/>
					<circle fill="#FFFFFF" stroke="#000000" stroke-width="0.8218" stroke-miterlimit="10" cx="106.9" cy="87.2" r="8.4"/>
					<path fill="#FFFFFF" stroke="#000000" stroke-width="0.8218" stroke-miterlimit="10" d="M187.3,177.8c-4.6,0-8.4,3.8-8.4,8.4
						s3.7,8.4,8.4,8.4c4.6,0,8.4-3.8,8.4-8.4S191.9,177.8,187.3,177.8z"/>
					<g>
						<path fill="#2463AF" stroke="#000000" stroke-width="0.8213" stroke-miterlimit="10" d="M178.7,151.6
							c-19.1-9.2-32.5-28.4-33.2-50.9c-4.8,0.4-9.4,1.8-13.4,4c-1,0.5-1.9,1.1-2.8,1.7c-9.2,6.2-15.2,16.7-15.2,28.5
							s6,22.4,15.2,28.5c0.9,0.6,1.9,1.2,2.8,1.7c4.9,2.6,10.5,4.2,16.4,4.2C161.5,169.5,172.8,162.3,178.7,151.6z"/>
						<path fill="#2463AF" stroke="#000000" stroke-width="0.8213" stroke-miterlimit="10" d="M250.9,161.6c-3.6,0-6.5,2.9-6.5,6.5
							s2.9,6.5,6.5,6.5s6.5-2.9,6.5-6.5S254.5,161.6,250.9,161.6z"/>
						<path fill="#2463AF" stroke="#000000" stroke-width="0.8213" stroke-miterlimit="10" d="M52.5,102.8c0-3.6-2.9-6.5-6.5-6.5
							s-6.5,2.9-6.5,6.5s2.9,6.5,6.5,6.5S52.5,106.4,52.5,102.8z"/>
					</g>
					<path fill="#FFFFFF" stroke="#000000" stroke-width="0.8218" stroke-miterlimit="10" d="M219.5,42.6c-0.6-2-1.4-3.8-2.2-5.7
						c-14.1-9.8-30.3-16.7-47.9-19.8c-11,3.8-19.8,12.5-23.7,23.4c1,0,1.9-0.1,2.9-0.1c10.9,0,21.4,1.9,31.1,5.3
						c14.6,5.1,27.5,13.6,37.8,24.6c2.3-5,3.7-10.6,3.7-16.5C221.2,49.9,220.6,46.1,219.5,42.6z"/>
					<path fill="#FFFFFF" stroke="#000000" stroke-width="0.8218" stroke-miterlimit="10" d="M262.3,97.1
						c-5-14.8-12.7-28.3-22.7-39.9c-0.6,10.8-4.2,20.8-10,29.2c8.6,14.2,13.5,30.9,13.5,48.7c0,2.5-0.1,5-0.3,7.5
						c-3.8,48.8-44.5,87.1-94.3,87.1c-7.1,0-14-0.8-20.6-2.3c-0.4,8.8-2.2,17.3-5.2,25.1c8.3,1.8,17,2.8,25.9,2.8
						c66.3,0,120-53.7,120-120C268.6,121.9,266.3,109.1,262.3,97.1z M250.9,174.6c-3.6,0-6.5-2.9-6.5-6.5s2.9-6.5,6.5-6.5
						s6.5,2.9,6.5,6.5C257.4,171.7,254.5,174.6,250.9,174.6z"/>
					<path fill="#FFFFFF" stroke="#000000" stroke-width="0.8218" stroke-miterlimit="10" d="M171.5,50.3
						c-9.4,6.3-16.8,15.2-21.3,25.7c7,10.2,18.8,16.8,32.1,16.8c13.1,0,24.6-6.5,31.7-16.4C202.8,64,188.1,54.8,171.5,50.3z"/>
					<path fill="#FFFFFF" stroke="#000000" stroke-width="0.8218" stroke-miterlimit="10" d="M66.3,165.8c-2.6-0.9-5.2-1.5-7.9-2.1
						c8,25,26,45.5,49.4,56.6c-0.1-2.8-0.5-5.5-1-8.1C88.3,202.3,73.8,185.8,66.3,165.8z"/>
					<path fill="#FFFFFF" stroke="#000000" stroke-width="0.8218" stroke-miterlimit="10" d="M60.8,135c0-40.3,27.1-74.2,64.1-84.5
						c0.1-2.5,0.4-4.9,0.9-7.3C84.5,53.4,53.9,90.7,53.9,135c0,2.6,0.1,5.2,0.4,7.8c2.3,0.2,4.6,0.5,6.9,0.9
						C60.9,140.9,60.8,138,60.8,135z"/>
					<path fill="#FFFFFF" stroke="#000000" stroke-width="0.8218" stroke-miterlimit="10" d="M179.7,45.7
						c-9.8-3.4-20.2-5.3-31.1-5.3c-1,0-1.9,0-2.9,0.1c-0.8,2.2-1.4,4.5-1.8,6.9c1.6-0.1,3.1-0.1,4.7-0.1c7.9,0,15.6,1.1,22.9,3
						c16.6,4.5,31.3,13.7,42.5,26.2c1.4-1.9,2.6-4,3.6-6.1C207.2,59.3,194.2,50.8,179.7,45.7z"/>
					<path fill="#FFFFFF" stroke="#000000" stroke-width="0.8218" stroke-miterlimit="10" d="M229.6,86.3c-1.4,2-2.9,4-4.5,5.8
						c7.1,12.7,11.2,27.3,11.2,42.9c0,4.5-0.3,8.8-1,13.1c-6.3,42.3-42.8,74.7-86.8,74.7c-7.1,0-14-0.9-20.6-2.5
						c0,1,0.1,2.1,0.1,3.2c0,1.3,0,2.6-0.1,3.8c6.6,1.5,13.5,2.3,20.6,2.3c49.7,0,90.5-38.4,94.3-87.1c0.2-2.5,0.3-5,0.3-7.5
						C243.1,117.2,238.2,100.6,229.6,86.3z"/>
					<path fill="#FFFFFF" stroke="#000000" stroke-width="0.8213" stroke-miterlimit="10" d="M228.7,46c-3.6-3.2-7.4-6.3-11.4-9
						c0.9,1.8,1.7,3.7,2.2,5.7c1.1,3.6,1.7,7.4,1.7,11.3c0,5.9-1.3,11.5-3.7,16.5c-1,2.2-2.2,4.2-3.6,6.1
						c-7.1,9.9-18.6,16.4-31.7,16.4c-13.3,0-25-6.7-32.1-16.8c-4.3-6.3-6.9-13.9-6.9-22.1c0-2.2,0.2-4.4,0.6-6.5
						c0.4-2.4,1-4.7,1.8-6.9c4-11,12.7-19.6,23.7-23.4c-6.8-1.2-13.7-1.8-20.8-1.8c-3.1,0-6.2,0.2-9.3,0.4
						c-6.8,7.6-11.6,17.1-13.6,27.6c-0.4,2.4-0.7,4.8-0.9,7.3c-0.1,1.1-0.1,2.2-0.1,3.3c0,17.1,7.5,32.5,19.4,43.1
						c0.4,0.4,0.9,0.8,1.3,1.2c1.1,0.9,2.2,1.7,3.3,2.5c7,5,15.1,8.5,23.9,9.9l0,0c1.9,0.3,3.9,0.5,5.9,0.7c1.2,0.1,2.4,0.1,3.6,0.1
						c17.1,0,32.4-7.4,42.9-19.2c1.6-1.8,3.1-3.8,4.5-5.8c5.8-8.4,9.4-18.4,10-29.2C236.2,53.2,232.6,49.4,228.7,46z"/>
					<path fill="#FFFFFF" stroke="#000000" stroke-width="0.8218" stroke-miterlimit="10" d="M127.9,220.4
						c-1.5-38.5-29.8-70.1-66.7-76.6c-2.3-0.4-4.6-0.7-6.9-0.9c-2.4-0.2-4.8-0.3-7.3-0.3c-6.2,0-12.3,0.7-18.1,2.1
						c0.5,6.8,1.6,13.5,3.2,20c4.8-1.2,9.7-1.8,14.9-1.8c3.9,0,7.7,0.4,11.4,1.1c2.7,0.5,5.4,1.2,7.9,2.1
						c20.7,6.9,36.4,24.6,40.5,46.4c0.5,2.7,0.8,5.4,1,8.1c0.1,1,0.1,2.1,0.1,3.1c0,8.1-1.6,15.9-4.5,22.9c6.2,2.5,12.7,4.5,19.3,6
						c3-7.9,4.8-16.3,5.2-25.1c0.1-1.3,0.1-2.5,0.1-3.8C128,222.5,128,221.4,127.9,220.4z"/>
					<g>
						<g>
							<path fill="#004173" stroke="#000000" stroke-width="0.8213" stroke-miterlimit="10" d="M66.3,165.8
								c7.5,19.9,22,36.4,40.5,46.4C102.7,190.5,87,172.8,66.3,165.8z"/>
							<path fill="#004173" stroke="#000000" stroke-width="0.8213" stroke-miterlimit="10" d="M182.3,153.2
								c-6.5,12-19.2,20.2-33.8,20.2c-21.2,0-38.4-17.2-38.4-38.4c0-19.7,14.9-35.9,34-38.1c-11.9-10.5-19.4-25.9-19.4-43.1
								c0-1.1,0-2.2,0.1-3.3c-37,10.4-64.1,44.3-64.1,84.5c0,3,0.2,5.9,0.4,8.7c37,6.5,65.3,38.1,66.7,76.6
								c6.6,1.6,13.5,2.5,20.6,2.5c44,0,80.5-32.4,86.8-74.7c-9.1,5.8-19.9,9.2-31.4,9.2C196.3,157.3,189,155.9,182.3,153.2z
								 M98.5,87.2c0-4.6,3.8-8.4,8.4-8.4s8.4,3.8,8.4,8.4s-3.7,8.4-8.4,8.4C102.3,95.6,98.5,91.9,98.5,87.2z M187.3,194.6
								c-4.6,0-8.4-3.8-8.4-8.4s3.7-8.4,8.4-8.4c4.6,0,8.4,3.8,8.4,8.4S191.9,194.6,187.3,194.6z"/>
							<path fill="#004173" stroke="#000000" stroke-width="0.8213" stroke-miterlimit="10" d="M150.1,76
								c4.5-10.5,11.9-19.4,21.3-25.7c-7.3-2-15-3-22.9-3c-1.6,0-3.2,0-4.7,0.1c-0.4,2.1-0.6,4.3-0.6,6.5
								C143.2,62.1,145.8,69.7,150.1,76z"/>
						</g>
						<path fill="#004173" stroke="#000000" stroke-width="0.8213" stroke-miterlimit="10" d="M238.8,43.9
							c-23-22.8-54.7-36.9-89.6-37.1c-0.2,0-0.5,0-0.7,0C77.6,6.8,20,64.3,20,135.3c0,3.9,0.2,7.8,0.6,11.7
							c0.6,6.9,1.8,13.7,3.4,20.2c10.1,39.5,38.5,71.6,75.6,86.9c6.3,2.6,12.8,4.7,19.6,6.3c9.4,2.2,19.3,3.4,29.4,3.4
							c71,0,128.5-57.5,128.5-128.5C277,99.5,262.4,67.2,238.8,43.9z M148.5,255.3c-8.9,0-17.5-1-25.9-2.8c-6.7-1.5-13.1-3.5-19.3-6
							c-35.1-14.3-61.9-44.6-71.2-81.9c-1.6-6.5-2.7-13.1-3.2-20c-0.2-3.1-0.4-6.2-0.4-9.3c0-63.2,48.8-114.9,110.8-119.6
							c3.1-0.2,6.1-0.4,9.3-0.4c7.1,0,14.1,0.7,20.8,1.8c17.6,3.1,33.8,10,47.9,19.8c4,2.8,7.8,5.8,11.4,9
							c3.9,3.5,7.5,7.2,10.9,11.2c10,11.6,17.7,25.1,22.7,39.9c4,12,6.2,24.8,6.2,38.2C268.6,201.6,214.8,255.3,148.5,255.3z"/>
					</g>
				</g>
			</g>
		</g>
		<g>
			<path fill="#231F20" d="M330.9,130.3c0-4.8,0.8-9.6,2.5-14.4c1.7-4.8,4.2-9,7.4-12.8c3.2-3.8,7.2-6.8,11.9-9.2
				c4.7-2.4,10.1-3.6,16.1-3.6c7.1,0,13.2,1.6,18.3,4.9c5,3.3,8.8,7.5,11.3,12.6l-4.7,2.7c-1.4-2.8-3.1-5.1-5-7
				c-1.9-1.9-4-3.4-6.2-4.6c-2.2-1.2-4.5-2-6.9-2.5c-2.4-0.5-4.8-0.8-7.1-0.8c-5.1,0-9.6,1-13.5,3.1c-3.9,2.1-7.2,4.8-9.9,8.1
				c-2.7,3.3-4.8,7-6.1,11.2c-1.4,4.2-2.1,8.4-2.1,12.6c0,4.7,0.8,9.2,2.5,13.5c1.7,4.3,3.9,8.1,6.8,11.3c2.9,3.3,6.2,5.9,10.1,7.8
				c3.9,2,8.1,2.9,12.6,2.9c2.4,0,4.9-0.3,7.4-0.9c2.6-0.6,5-1.5,7.3-2.8c2.3-1.3,4.5-2.9,6.5-4.9c2-2,3.7-4.3,5.1-7l5,2.4
				c-1.4,3-3.2,5.7-5.5,8c-2.3,2.3-4.9,4.3-7.8,5.9c-2.9,1.6-5.9,2.8-9.1,3.6c-3.2,0.8-6.3,1.2-9.4,1.2c-5.5,0-10.5-1.2-15.1-3.6
				c-4.5-2.4-8.5-5.5-11.8-9.4c-3.3-3.9-5.9-8.3-7.7-13.2C331.9,140.4,330.9,135.4,330.9,130.3z"/>
		</g>
		<g>
			<path fill="#231F20" d="M436.9,170.9V90.8h5.8v74.9h47.8v5.2H436.9z"/>
		</g>
		<g>
			<path fill="#231F20" d="M551.8,171.5c-5.6,0-10.6-1.2-15.2-3.5c-4.6-2.3-8.5-5.4-11.8-9.1c-3.3-3.8-5.9-8.1-7.7-13
				c-1.8-4.9-2.7-9.9-2.7-15c0-5.3,1-10.5,2.9-15.3c1.9-4.9,4.5-9.2,7.9-13c3.3-3.8,7.3-6.7,11.9-9c4.6-2.2,9.5-3.3,14.9-3.3
				c5.6,0,10.7,1.2,15.3,3.6c4.6,2.4,8.6,5.5,11.8,9.3c3.3,3.8,5.8,8.2,7.6,13c1.8,4.8,2.7,9.8,2.7,14.7c0,5.4-1,10.6-2.9,15.5
				c-1.9,4.9-4.5,9.2-7.9,12.9c-3.3,3.7-7.3,6.7-11.9,8.9C562.1,170.4,557.1,171.5,551.8,171.5z M520.1,130.9c0,4.6,0.8,9,2.3,13.3
				c1.5,4.2,3.7,8,6.5,11.3c2.8,3.3,6.2,5.9,10.1,7.8c3.9,2,8.2,2.9,12.9,2.9c4.8,0,9.2-1,13-3c3.9-2,7.2-4.7,9.9-8.1
				c2.7-3.3,4.9-7.1,6.4-11.3c1.5-4.2,2.3-8.5,2.3-12.9c0-4.6-0.8-9-2.4-13.3c-1.6-4.2-3.8-8-6.6-11.3c-2.8-3.3-6.1-5.9-10-7.8
				c-3.8-2-8-2.9-12.6-2.9c-4.8,0-9.2,1-13.1,3c-3.9,2-7.3,4.7-10,8.1c-2.8,3.3-4.9,7.1-6.4,11.3
				C520.8,122.2,520.1,126.5,520.1,130.9z"/>
		</g>
		<g>
			<path fill="#231F20" d="M621.3,130.3c0-4.8,0.8-9.6,2.5-14.4c1.7-4.8,4.2-9,7.4-12.8c3.2-3.8,7.2-6.8,11.9-9.2
				c4.7-2.4,10.1-3.6,16.1-3.6c7.1,0,13.2,1.6,18.3,4.9c5,3.3,8.8,7.5,11.3,12.6l-4.7,2.7c-1.4-2.8-3.1-5.1-5-7
				c-1.9-1.9-4-3.4-6.2-4.6c-2.2-1.2-4.5-2-6.9-2.5c-2.4-0.5-4.8-0.8-7.1-0.8c-5.1,0-9.6,1-13.5,3.1c-3.9,2.1-7.2,4.8-9.9,8.1
				c-2.7,3.3-4.8,7-6.1,11.2c-1.4,4.2-2.1,8.4-2.1,12.6c0,4.7,0.8,9.2,2.5,13.5c1.7,4.3,3.9,8.1,6.8,11.3c2.9,3.3,6.2,5.9,10.1,7.8
				c3.9,2,8.1,2.9,12.6,2.9c2.4,0,4.9-0.3,7.4-0.9c2.6-0.6,5-1.5,7.3-2.8c2.3-1.3,4.5-2.9,6.5-4.9c2-2,3.7-4.3,5.1-7l5,2.4
				c-1.4,3-3.2,5.7-5.5,8c-2.3,2.3-4.9,4.3-7.8,5.9c-2.9,1.6-5.9,2.8-9.1,3.6c-3.2,0.8-6.3,1.2-9.4,1.2c-5.5,0-10.5-1.2-15.1-3.6
				c-4.5-2.4-8.5-5.5-11.8-9.4c-3.3-3.9-5.9-8.3-7.7-13.2C622.2,140.4,621.3,135.4,621.3,130.3z"/>
		</g>
		<g>
			<path fill="#231F20" d="M727.7,170.9V90.8h5.8v48.6l46.7-48.6h6.7l-33.3,35.1l35,45h-6.5l-32.1-41.5l-16.4,16.8v24.7H727.7z"/>
		</g>
		<g>
			<path fill="#231F20" d="M852.4,91.4h5.6l12,29.1l12-29.1h5.6l-14.1,33.7l16.8,39L921,90.8h6.3L893,170.9h-5.3l-17.6-41.2
				l-17.7,41.2h-5.3L813,90.8h6.2l30.8,73.3l16.6-39L852.4,91.4z"/>
		</g>
		<g>
			<path fill="#231F20" d="M990.8,171.5c-5.6,0-10.6-1.2-15.2-3.5c-4.6-2.3-8.5-5.4-11.8-9.1c-3.3-3.8-5.9-8.1-7.7-13
				c-1.8-4.9-2.7-9.9-2.7-15c0-5.3,1-10.5,2.9-15.3c1.9-4.9,4.5-9.2,7.9-13c3.3-3.8,7.3-6.7,11.9-9c4.6-2.2,9.5-3.3,14.9-3.3
				c5.6,0,10.7,1.2,15.3,3.6c4.6,2.4,8.6,5.5,11.8,9.3c3.3,3.8,5.8,8.2,7.6,13s2.7,9.8,2.7,14.7c0,5.4-1,10.6-2.9,15.5
				c-1.9,4.9-4.5,9.2-7.9,12.9c-3.3,3.7-7.3,6.7-11.9,8.9C1001.1,170.4,996.1,171.5,990.8,171.5z M959.1,130.9c0,4.6,0.8,9,2.3,13.3
				c1.5,4.2,3.7,8,6.5,11.3c2.8,3.3,6.2,5.9,10.1,7.8c3.9,2,8.2,2.9,12.9,2.9c4.8,0,9.2-1,13-3c3.9-2,7.2-4.7,9.9-8.1
				c2.7-3.3,4.9-7.1,6.4-11.3c1.5-4.2,2.3-8.5,2.3-12.9c0-4.6-0.8-9-2.4-13.3c-1.6-4.2-3.8-8-6.6-11.3c-2.8-3.3-6.1-5.9-10-7.8
				c-3.8-2-8-2.9-12.6-2.9c-4.8,0-9.2,1-13.1,3c-3.9,2-7.3,4.7-10,8.1c-2.8,3.3-4.9,7.1-6.4,11.3
				C959.8,122.2,959.1,126.5,959.1,130.9z"/>
		</g>
		<g>
			<path fill="#231F20" d="M1065.8,170.9V90.8h33.3c3.4,0,6.5,0.7,9.4,2.1c2.9,1.4,5.3,3.3,7.4,5.7c2.1,2.4,3.7,5,4.8,8
				c1.2,3,1.7,6,1.7,9c0,2.9-0.5,5.8-1.4,8.5c-0.9,2.7-2.2,5.2-3.8,7.4c-1.7,2.2-3.6,4-6,5.4c-2.3,1.4-4.9,2.4-7.7,2.8l20,31.1h-6.7
				l-19.4-30.2h-25.9v30.2H1065.8z M1071.5,135.4h28.1c2.6,0,4.9-0.6,7-1.7c2.1-1.1,3.9-2.6,5.4-4.5c1.5-1.8,2.6-3.9,3.4-6.3
				c0.8-2.4,1.2-4.8,1.2-7.3c0-2.6-0.5-5-1.4-7.4c-0.9-2.4-2.2-4.5-3.8-6.3c-1.6-1.8-3.5-3.3-5.6-4.3c-2.1-1.1-4.5-1.6-6.9-1.6
				h-27.3V135.4z"/>
		</g>
		<g>
			<path fill="#231F20" d="M1162.1,170.9V90.8h5.8v48.6l46.7-48.6h6.7l-33.3,35.1l35,45h-6.5l-32.1-41.5l-16.4,16.8v24.7H1162.1z"/>
		</g>
	</g>
	<g>
		<path d="M1252.2,171.1c-2.4,0-4.7-0.4-6.8-1.3c-2.1-0.9-3.9-2.1-5.4-3.6c-1.5-1.5-2.7-3.3-3.5-5.4c-0.9-2.1-1.3-4.3-1.3-6.8
			c0-2.4,0.4-4.7,1.3-6.7c0.9-2.1,2-3.9,3.5-5.4c1.5-1.5,3.3-2.7,5.4-3.5c2.1-0.9,4.3-1.3,6.8-1.3c2.4,0,4.7,0.4,6.8,1.3
			c2.1,0.9,3.9,2,5.4,3.5c1.5,1.5,2.7,3.3,3.5,5.4c0.9,2.1,1.3,4.3,1.3,6.7c0,2.4-0.4,4.7-1.3,6.8s-2,3.9-3.5,5.4
			c-1.5,1.5-3.3,2.7-5.4,3.6C1256.9,170.7,1254.7,171.1,1252.2,171.1z M1252.2,170.2c2.3,0,4.4-0.4,6.3-1.2c1.9-0.8,3.6-1.9,5.1-3.3
			s2.6-3.1,3.4-5.1c0.8-2,1.2-4.2,1.2-6.6c0-2.3-0.4-4.4-1.2-6.3c-0.8-1.9-1.9-3.6-3.3-5.1c-1.4-1.4-3.1-2.5-5.1-3.4
			c-2-0.8-4.1-1.2-6.4-1.2s-4.4,0.4-6.4,1.2c-2,0.8-3.7,1.9-5.1,3.4s-2.5,3.1-3.3,5.1c-0.8,1.9-1.2,4.1-1.2,6.3
			c0,2.3,0.4,4.5,1.2,6.4c0.8,2,1.9,3.7,3.3,5.1s3.1,2.5,5.1,3.4C1247.8,169.8,1249.9,170.2,1252.2,170.2z M1245.4,143.4h8.8
			c0.9,0,1.7,0.2,2.4,0.6s1.4,0.9,2,1.5c0.5,0.6,1,1.3,1.3,2.1c0.3,0.8,0.4,1.6,0.4,2.4c0,0.8-0.1,1.7-0.4,2.4
			c-0.3,0.8-0.6,1.4-1.1,2c-0.5,0.6-1.1,1.1-1.8,1.5c-0.7,0.4-1.4,0.6-2.3,0.7l5.5,8.6h-1.1l-5.5-8.6h-7.3v8.6h-1V143.4z
			 M1254.5,155.6c0.8,0,1.5-0.1,2.1-0.4c0.6-0.3,1.1-0.7,1.6-1.2c0.4-0.5,0.7-1.1,0.9-1.8c0.2-0.7,0.3-1.4,0.3-2.2s-0.1-1.5-0.4-2.2
			c-0.3-0.7-0.6-1.3-1.1-1.8c-0.5-0.5-1-0.9-1.6-1.2c-0.6-0.3-1.3-0.4-2.1-0.4h-7.8v11.2H1254.5z"/>
	</g>
</g>
</svg>
