<svg height="58" viewBox="0 0 58 58" width="58" xmlns="http://www.w3.org/2000/svg"><g fill="none" fill-rule="evenodd" opacity=".8"><path d="m30.05 11.5c.0327059 1.2269198-.8404431 2.2917357-2.05 2.5v1c0 .5522847-.4477153 1-1 1s-1-.4477153-1-1v-1h-1c-.5522847 0-1-.4477153-1-1s.4477153-1 1-1h2.64c.2381603-.0478696.4095012-.2570765.4095012-.5s-.1713409-.4521304-.4095012-.5h-.93c-.6498246-.0131263-1.2678034-.2839265-1.7179194-.7527973-.4501161-.46887092-.6954776-1.09738359-.6820806-1.7472027-.0138389-1.0786347.6684376-2.04351095 1.69-2.39v-1.11c0-.55228475.4477153-1 1-1s1 .44771525 1 1v1h1c.5522847 0 1 .44771525 1 1s-.4477153 1-1 1h-2.29c-.2381603.04786962-.4095012.25707652-.4095012.5s.1713409.45213038.4095012.5h1.29c.2255642.0013084.4440607.07883941.62.22.8817131.41474261 1.4404964 1.3056699 1.43 2.28z" fill="#101527" fill-rule="nonzero"/><path d="m53 53v2c0 .5522847-.4477153 1-1 1h-13.38c.0292869-.0609782.0527251-.1245963.07-.19l1.06-3.81h12.25c.5522847 0 1 .4477153 1 1z" fill="#fff" fill-rule="nonzero" opacity=".5"/><path d="m11 52v1c0 .5522847-.4477153 1-1 1-.55228475 0-1-.4477153-1-1v-1h-1c-.55228475 0-1-.4477153-1-1s.44771525-1 1-1h2.64c.2381603-.0478696.4095012-.2570765.4095012-.5s-.1713409-.4521304-.4095012-.5h-.93c-.64982464-.0131263-1.2678034-.2839265-1.71791944-.7527973-.45011605-.4688709-.69547755-1.0973836-.68208056-1.7472027-.01383888-1.0786347.66843763-2.0435109 1.69-2.39v-1.11c0-.5522847.44771525-1 1-1 .5522847 0 1 .4477153 1 1v1h1c.5522847 0 1 .4477153 1 1s-.4477153 1-1 1h-2.29c-.23816027.0478696-.40950124.2570765-.40950124.5s.17134097.4521304.40950124.5h1.29c.2255642.0013084.4440607.0788394.62.22 1.0093147.4574224 1.6013786 1.520507 1.4588403 2.6194312-.1425383 1.0989241-.9862264 1.9757814-2.0788403 2.1605688z" fill="#101527"/><g fill-rule="nonzero"><path d="m40.66 41.27-3.89 14c-.1245106.4452375-.5379962.747082-1 .73h-17c-.4620038.017082-.8754894-.2847625-1-.73l-.22-.79c.5669775-.664828 1.0443763-1.4010979 1.42-2.19.477503-.9980182.7818398-2.0699602.9-3.17.0811437-.3696267.1412403-.7435615.18-1.12.0017165-.4755263-.0350704-.950411-.11-1.42-.0879607-.6516332-.2455277-1.2919587-.47-1.91-.6628221-1.8690788-1.8717033-3.4960169-3.47-4.6700288h23.69c.313008-.0023428.6090686.1419868.8.3900288.1923065.250095.2553182.576273.17.88z" fill="#fff" opacity=".5"/><path d="m56 47v2c0 .5522847-.4477153 1-1 1h-14.7l1.11-4h13.59c.5522847 0 1 .4477153 1 1z" fill="#fff" opacity=".5"/><rect fill="#fff" height="4" opacity=".5" rx="1" width="16" x="40" y="34"/><path d="m53 41v2c0 .5522847-.4477153 1-1 1h-10l.61-2.2c.1708447-.5912489.1498383-1.2214405-.06-1.8h9.45c.5522847 0 1 .4477153 1 1z" fill="#fff" opacity=".5"/><path d="m28 9h-.36c.3455937-.00239561.6873208.07278437 1 .22-.1812813-.14548592-.4075816-.22327665-.64-.22z" fill="#000"/><path d="m10.64 47c.3455937-.0023956.6873208.0727844 1 .22-.1812813-.1454859-.4075816-.2232766-.64-.22z" fill="#000"/><path d="m58 37v-2c0-1.6568542-1.3431458-3-3-3h-14c-1.6568542 0-3 1.3431458-3 3v2c-.0021716.3415805.0588549.6806165.18 1h-10.18v-3.41c3.0160595 1.3786937 6.5856606.4518499 8.55-2.22l3.55-4.84c.1552559-.2132696.2199531-.4792471.18-.74-.0371621-.2630733-.1774857-.5005439-.39-.66-1.4968395-1.100203-3.3696196-1.5602982-5.2058711-1.2789522s-3.4853637 1.281057-4.5841289 2.7789522l-2.1 2.86v-10.49s0 0 0-.05c1.7169328-.1712599 3.3619646-.776962 4.78-1.76 1.4227904-.9910495 2.5634421-2.3350198 3.31-3.9.477503-.9980182.7818398-2.0699602.9-3.17.0409374-.3719168.0609689-.7458382.06-1.12.0017165-.47552632-.0350704-.95041105-.11-1.42-.0879607-.65163321-.2455277-1.29195867-.47-1.91-1.4192915-3.98367494-5.1910457-6.64387128-9.42-6.64387128s-8.0007085 2.66019634-9.42 6.64387128c-.2400834.64486577-.4012548 1.31641306-.48 2-.0097276.0763581-.0097276.1536419 0 .23-.0588918.36389267-.0923064.73145295-.1 1.1-.0010392.3708378.0189931.741435.06 1.11.523413 4.665141 4.2214215 8.3381911 8.89 8.83v.06 9.61l-1.45-2c-1.0987652-1.4978952-2.7478774-2.4976062-4.5841289-2.7789522s-3.7090316.1787492-5.2058711 1.2789522c-.2125143.1594561-.3528379.3969267-.39.66-.0399531.2607529.0247441.5267304.18.74l3.55 4.84c1.093319 1.5002825 2.7435873 2.4983705 4.58 2.77.3569015.0597364.7181339.0898391 1.08.09.761558.006284 1.5187612-.1154093 2.24-.36v3.15h-11c-.6038348.002559-1.1928437.1872777-1.69.53-5.19280884-1.7843862-10.85307462.9520041-12.68 6.13-.24008343.6448658-.40125478 1.3164131-.48 2-.00972764.0763581-.00972764.1536419 0 .23-.05935731.3671927-.09277336.7381108-.10003844 1.11-.00100076.3708378.01903152.741435.06003844 1.11.40836333 3.5488691 2.67882005 6.6103803 5.95626565 8.0315005 3.2774456 1.4211203 7.06406545.985994 9.93373435-1.1415005.4215108 1.1922886 1.5454199 1.9922239 2.81 2h33.19c1.6568542 0 3-1.3431458 3-3v-2c.0021716-.3415805-.0588549-.6806165-.18-1h.18c1.6568542 0 3-1.3431458 3-3v-2c0-1.6568542-1.3431458-3-3-3h-.18c.1211451-.3193835.1821716-.6584195.18-1v-2c.0021716-.3415805-.0588549-.6806165-.18-1h.18c1.6568542 0 3-1.3431458 3-3zm-26.29-8.18c1.404498-1.921384 3.9686666-2.5864783 6.13-1.59l-2.9 3.95c-1.404498 1.921384-3.9686666 2.5864783-6.13 1.59zm-12 2.36-2.9-3.95c2.1613334-.9964783 4.725502-.331384 6.13 1.59l2.9 4c-2.172892.9860942-4.7397741.299359-6.13-1.64zm.11-17.75c-.3811359-.8036714-.6245242-1.6656716-.72-2.55-.0371586-.2918093-.053866-.5858598-.05-.88-.0016173-.29440812.0184368-.58853601.06-.88 0 0 0-.12 0-.16s0-.11 0-.12c.0687779-.51515463.1928263-1.02140593.37-1.51 1.1321386-3.19276175 4.1524544-5.32635081 7.54-5.32635081s6.4078614 2.13358906 7.54 5.32635081c.2016535.49600524.3491747 1.01232954.44 1.54.0487768.3745589.0655041.75259681.05 1.13.0002787.2976865-.0197679.5950446-.06.89-.0875038.8826591-.3313004 1.7427193-.72 2.54-1.3256803 2.7883491-4.1375546 4.5649782-7.225 4.5649782s-5.8993197-1.7766291-7.225-4.5649782zm-9.77 42.5701496c-4.09625399.0247003-7.54947914-3.0486701-8-7.1201496-.02047923-.2929759-.02047923-.5870241 0-.88-.00161734-.2944081.01843683-.588536.06-.88 0 0 0-.12 0-.16v-.12c.06877793-.5151546.19282626-1.0214059.37-1.51 1.13213858-3.1927617 4.15245438-5.3263508 7.54-5.3263508 3.3875456 0 6.4078614 2.1335891 7.54 5.3263508.2016535.4960052.3491747 1.0123295.44 1.54.0487768.3745589.0655041.7525968.05 1.13.0002787.2976865-.0197679.5950446-.06.89-.0875038.8826591-.3313004 1.7427193-.72 2.54-1.3234584 2.7886751-4.1332148 4.5671497-7.22 4.5701496zm25.75-.0001496h-17c-.4620038.017082-.8754894-.2847625-1-.73l-.22-.79c.5669775-.664828 1.0443763-1.4010979 1.42-2.19.477503-.9980182.7818398-2.0699602.9-3.17.0710702-.3702077.1211502-.7441378.15-1.12.0017165-.4755263-.0350704-.950411-.11-1.42-.0879607-.6516332-.2455277-1.2919587-.47-1.91-.6628221-1.8690788-1.8717033-3.4960169-3.47-4.6700288h23.69c.313008-.0023428.6090686.1419868.8.3900288.1923065.250095.2553182.576273.17.88l-3.89 14c-.1217471.4342125-.5190537.7332165-.97.73zm17.2-1c0 .5522847-.4477153 1-1 1h-13.38c.0292869-.0609782.0527251-.1245963.07-.19l1.06-3.81h12.25c.5522847 0 1 .4477153 1 1zm2-9c.5522847 0 1 .4477153 1 1v2c0 .5522847-.4477153 1-1 1h-14.7l1.11-4zm-12.48-6h9.48c.5522847 0 1 .4477153 1 1v2c0 .5522847-.4477153 1-1 1h-10l.61-2.2c.1612362-.5944062.1297244-1.2246418-.09-1.8zm-1.52-2c-.5522847 0-1-.4477153-1-1v-2c0-.5522847.4477153-1 1-1h14c.5522847 0 1 .4477153 1 1v2c0 .5522847-.4477153 1-1 1z" fill="#101527"/></g></g></svg>