<svg height="58" viewBox="0 0 58 58" width="58" xmlns="http://www.w3.org/2000/svg"><path d="m27.05.02612872c4.2289543 0 8.0007085 2.66019634 9.42 6.64387128.2244723.61804133.3820393 1.25836679.47 1.91.0749296.46958895.1117165.94447368.11 1.42.0009689.3741618-.0190626.7480832-.06 1.12-.1181602 1.1000398-.422497 2.1719818-.9 3.17-.7465579 1.5649802-1.8872096 2.9089505-3.31 3.9-1.3167472.912821-2.8292208 1.500286-4.4132429 1.7166726l-.3667571.0433274v10.54l2.1-2.86c1.0987652-1.4978952 2.7478774-2.4976062 4.5841289-2.7789522s3.7090316.1787492 5.2058711 1.2789522c.2125143.1594561.3528379.3969267.39.66.0332943.2172941-.0060853.4382163-.1099838.6292411l-.0700162.1107589-3.55 4.84c-1.9112492 2.5996377-5.3421616 3.5473194-8.3042842 2.3267447l-.2457158-.1067447v3.41h10.18c-.0969161-.2555068-.1553563-.5235912-.1737438-.7954939l-.0062562-.2045061v-2c0-1.5976809 1.24892-2.9036609 2.8237272-2.9949073l.1762728-.0050927h14c1.5976809 0 2.9036609 1.24892 2.9949073 2.8237272l.0050927.1762728v2c0 1.5976809-1.24892 2.9036609-2.8237272 2.9949073l-.1762728.0050927h-.18c.0969161.2555068.1553563.5235912.1737438.7954939l.0062562.2045061v2c.0017373.2732644-.0369722.5449003-.1145518.8061485l-.0654482.1938515h.18c1.5976809 0 2.9036609 1.24892 2.9949073 2.8237272l.0050927.1762728v2c0 1.5976809-1.24892 2.9036609-2.8237272 2.9949073l-.1762728.0050927h-.18c.0969161.2555068.1553563.5235912.1737438.7954939l.0062562.2045061v2c0 1.5976809-1.24892 2.9036609-2.8237272 2.9949073l-.1762728.0050927h-33.19c-1.2645801-.0077761-2.3884892-.8077114-2.81-2-2.8696689 2.1274945-6.65628875 2.5626208-9.93373435 1.1415005-3.2774456-1.4211202-5.54790232-4.4826314-5.95626565-8.0315005-.04100692-.368565-.0610392-.7391622-.06003844-1.11.00726508-.3718892.04068113-.7428073.10003844-1.11-.00972764-.0763581-.00972764-.1536419 0-.23.07874522-.6835869.23991657-1.3551342.48-2 1.82692538-5.1779959 7.48719116-7.9143862 12.68-6.13.4350118-.299882.9403482-.4787925 1.4644074-.5205488l.2255926-.0094512h11v-3.15c-.7212388.2445907-1.478442.366284-2.24.36-.3618661-.0001609-.7230985-.0302636-1.08-.09-1.7397594-.2573332-3.3124529-1.166668-4.4027964-2.5373194l-.1772036-.2326806-3.55-4.84c-.1552559-.2132696-.2199531-.4792471-.18-.74.0371621-.2630733.1774857-.5005439.39-.66 1.4968395-1.100203 3.3696196-1.5602982 5.2058711-1.2789522 1.7396067.2665383 3.3112546 1.1778142 4.4061191 2.5466146l.1780098.2323376 1.45 2v-9.67c-4.6685785-.4918089-8.366587-4.164859-8.89-8.83-.0410069-.368565-.0610392-.7391622-.06-1.11.0076936-.36854705.0411082-.73610733.1-1.1-.0097276-.0763581-.0097276-.1536419 0-.23.0787452-.68358694.2399166-1.35513423.48-2 1.4192915-3.98367494 5.1910457-6.64387128 9.42-6.64387128zm-17.03 39.97752048c-3.38754562 0-6.40786142 2.1335891-7.54 5.3263508-.14173899.3908753-.24947772.7930511-.32211795 1.2020457l-.04788205.3079543v.28c-.04156317.291464-.06161734.5855919-.06.88-.02047923.2929759-.02047923.5870241 0 .88.45052086 4.0714795 3.90374601 7.1448499 8 7.1201496 3.0867852-.0029999 5.8965416-1.7814745 7.22-4.5701496.3886996-.7972807.6324962-1.6573409.72-2.54.0402321-.2949554.0602787-.5923135.06-.89.0155041-.3774032-.0012232-.7554411-.05-1.13-.0908253-.5276705-.2383465-1.0439948-.44-1.54-1.1321386-3.1927617-4.1524544-5.3263508-7.54-5.3263508zm29.67-.003678h-23.69c1.5982967 1.1740119 2.8071779 2.80095 3.47 4.6700288.2244723.6180413.3820393 1.2583668.47 1.91.0749296.469589.1117165.9444737.11 1.42-.0387597.3764385-.0988563.7503733-.18 1.12-.1181602 1.1000398-.422497 2.1719818-.9 3.17-.3756237.7889021-.8530225 1.525172-1.42 2.19l.22.79c.1245106.4452375.5379962.747082 1 .73h17.03l.0164319.000648c.0313943-.0002854.0625232-.0020385.0933095-.0052031l-.1097414.0045551c.0489857.0003494.0973384-.0028675.1447737-.0094365.0276276-.0031855.054703-.0081079.0814231-.0141082.0108169-.0030517.0222028-.0058101.0335182-.0087628.0265811-.0063356.0522796-.0141943.077555-.0230474.0102612-.0041846.020933-.0081195.0315234-.012231.0247566-.0090476.0484843-.019367.0717437-.03057.0129283-.0067731.0266476-.0137538.040189-.021041.0218288-.0112192.0425491-.0233792.0627974-.03626.0087559-.0061006.0177188-.0119993.0265834-.0180394.0239522-.0158065.0469757-.0330025.0692297-.0511632.0070547-.0062559.0146106-.0125978.0220728-.0190512.078479-.0674971.1461695-.1471769.2005238-.2367564.006803-.0115765.0134966-.0231073.0199685-.0347923.0370475-.066618.0668004-.1385816.0880983-.2147406l3.89-14c.0853182-.303727.0223065-.629905-.17-.88-.1909314-.248042-.486992-.3923716-.8-.3900288zm12.31 12.0000288h-12.25l-1.06 3.81-.0304955.0966596-.0395045.0933404h13.38c.5128358 0 .9355072-.3860402.9932723-.8833789l.0067277-.1166211v-2c0-.5522847-.4477153-1-1-1zm-42-10c.5522847 0 1 .4477153 1 1v1h1c.5522847 0 1 .4477153 1 1s-.4477153 1-1 1h-2.29c-.23816027.0478696-.40950124.2570765-.40950124.5s.17134097.4521304.40950124.5h1.29c.2255642.0013084.4440607.0788394.62.22 1.0093147.4574224 1.6013786 1.520507 1.4588403 2.6194312-.1425383 1.0989241-.9862264 1.9757814-2.0788403 2.1605688v1c0 .5522847-.4477153 1-1 1-.55228475 0-1-.4477153-1-1v-1h-1c-.55228475 0-1-.4477153-1-1s.44771525-1 1-1h2.64c.2381603-.0478696.4095012-.2570765.4095012-.5s-.1713409-.4521304-.4095012-.5h-.93c-.64982464-.0131263-1.2678034-.2839265-1.71791944-.7527973-.45011605-.4688709-.69547755-1.0973836-.68208056-1.7472027-.01383888-1.0786347.66843763-2.0435109 1.69-2.39v-1.11c0-.5522847.44771525-1 1-1zm45 4h-13.59l-1.11 4h14.7c.5128358 0 .9355072-.3860402.9932723-.8833789l.0067277-.1166211v-2c0-.5522847-.4477153-1-1-1zm-3-6h-9.48c.1922588.5034384.2404174 1.0488923.1414374 1.5755953l-.0514374.2244047-.61 2.2h10c.5128358 0 .9355072-.3860402.9932723-.8833789l.0067277-.1166211v-2c0-.5522847-.4477153-1-1-1zm3-6h-14c-.5128358 0-.9355072.3860402-.9932723.8833789l-.0067277.1166211v2c0 .5128358.3860402.9355072.8833789.9932723l.1166211.0067277h14c.5128358 0 .9355072-.3860402.9932723-.8833789l.0067277-.1166211v-2c0-.5522847-.4477153-1-1-1zm-37.9725817-6.8641243-.2174183.0941243 2.9 3.95c1.343885 1.8747137 3.7872899 2.57892 5.9114557 1.7330489l.2185443-.0930489-2.9-4c-1.3576814-1.8573378-3.7990105-2.5407428-5.9125817-1.6841243zm14.8268392 1.4961885-.1442575.1879358-2.9 3.95c2.089289.9632623 4.555005.3738774 5.9857425-1.4020642l.1442575-.1879358 2.9-3.95c-2.089289-.9632623-4.555005-.3738774-5.9857425 1.4020642zm-4.8342575-26.62841501c-3.3875456 0-6.4078614 2.13358906-7.54 5.32635081-.141739.39087526-.2494777.79305114-.322118 1.20204565l-.047882.30795435v.28c-.0415632.29146399-.0616173.58559188-.06.88-.003866.2941402.0128414.5881907.05.88.0954758.8843284.3388641 1.7463286.72 2.55 1.3256803 2.7883491 4.1375546 4.5649782 7.225 4.5649782s5.8993197-1.7766291 7.225-4.5649782c.3886996-.7972807.6324962-1.6573409.72-2.54.0402321-.2949554.0602787-.5923135.06-.89.0155041-.37740319-.0012232-.7554411-.05-1.13-.0908253-.52767046-.2383465-1.04399476-.44-1.54-1.1321386-3.19276175-4.1524544-5.32635081-7.54-5.32635081zm-.02 1.99635081c.5522847 0 1 .44771525 1 1v1h1c.5522847 0 1 .44771525 1 1s-.4477153 1-1 1h-2.29c-.2381603.04786962-.4095012.25707652-.4095012.5s.1713409.45213038.4095012.5h1.29c.2255642.0013084.4440607.07883941.62.22.8817131.41474261 1.4404964 1.3056699 1.43 2.28.0327059 1.2269198-.8404431 2.2917357-2.05 2.5v1c0 .5522847-.4477153 1-1 1s-1-.4477153-1-1v-1h-1c-.5522847 0-1-.4477153-1-1s.4477153-1 1-1h2.64c.2381603-.0478696.4095012-.2570765.4095012-.5s-.1713409-.4521304-.4095012-.5h-.93c-.6498246-.0131263-1.2678034-.2839265-1.7179194-.7527973-.4501161-.46887092-.6954776-1.09738359-.6820806-1.7472027-.0138389-1.0786347.6684376-2.04351095 1.69-2.39v-1.11c0-.55228475.4477153-1 1-1z" fill="#787e8c"/></svg>