<svg height="58" viewBox="0 0 58 58" width="58" xmlns="http://www.w3.org/2000/svg"><path d="m34.38 0c3.0299393 0 5.4998497 2.39776897 5.6157468 5.39932261l.0042532.22067739v2.38h12c3.2383969 0 5.8775718 2.5655749 5.9958615 5.7750617l.0041385.2249383v30c0 3.2383969-2.5655749 5.8775718-5.7750617 5.9958615l-.2249383.0041385h-30.42c-.1479656.5888996-.3453316 1.1642717-.59 1.72-1.820267 3.8404332-5.6900237 6.2886944-9.94 6.2886944-4.24997635 0-8.11973298-2.4482612-9.94-6.2886944-.52733655-1.1023001-.86539137-2.2854919-1-3.5-.10041982-.8135797-.10041982-1.6364203 0-2.45-.00490247-.0865973-.00490247-.1734027 0-.26.09620592-.7471561.27393162-1.4815321.53-2.19.89005823-2.5506162 2.69639827-4.6744533 5.06148047-5.9632758l.29851953-.1567242v-23.2c0-3.2383969 2.56557489-5.87757176 5.7750617-5.99586153l.2249383-.00413847h12v-2.38c0-3.02993933 2.397769-5.49984972 5.3993226-5.61574685l.2206774-.00425315zm-23.38 38c-4.97056275 0-9 4.0294373-9 9s4.02943725 9 9 9c4.9705627 0 9-4.0294373 9-9s-4.0294373-9-9-9zm0 2.5c.5522847 0 1 .4477153 1 1v1h1c.5522847 0 1 .4477153 1 1s-.4477153 1-1 1h-2.5c-.2761424 0-.5.2238576-.5.5s.2238576.5.5.5h1c1.3807118-.1380711 2.6119287.8692882 2.7499999 2.25s-.8692881 2.6119288-2.2499999 2.75v1c0 .5522847-.4477153 1-1 1s-1-.4477153-1-1v-1h-1c-.55228475 0-1-.4477153-1-1s.44771525-1 1-1h2.5c.2761424 0 .5-.2238576.5-.5s-.2238576-.5-.5-.5h-1c-1.38071184.1380711-2.61192871-.8692882-2.74999989-2.25s.86928807-2.6119288 2.24999989-2.75v-1c0-.5522847.4477153-1 1-1zm-.6340799-30.1520844-.0522192.0238545c-.0094332.0043917-.0188464.0088192-.0282395.0132821-.0263883.0125324-.0532327.0256543-.0799064.0390659-.0271458.0136499-.054008.0275432-.0806905.0417297-.0327575.0174216-.0648235.0350465-.0966178.0530944-.0220129.0124922-.04427587.0254128-.0664014.0385405-.02788045.0165456-.05524862.033236-.08239803.0502433-.0319696.0200268-.06363353.0404915-.09498571.0613871-.01751822.0116758-.03489578.0234563-.05217502.0353692-.03746914.0258328-.07445299.0522711-.11096023.0793162-.01626906.012051-.03261281.024352-.04885855.0367747-.02734573.0209123-.05428148.0420629-.08093586.0635484-.03041178.0245096-.06074812.0497039-.09070126.0753332-.01726566.0147779-.03393367.029284-.05047952.0439251-.02618292.0231612-.05252389.0470929-.0785407.0713676-.02146978.0200365-.04239814.0399942-.06310849.0601745-.02631754.0256425-.0523636.0517274-.07804742.0781662-.01858484.0191264-.03730727.0387887-.05583002.0586397-.02195111.023532-.04323066.0468895-.06423477.0704975-.02266006.025466-.04516445.0514185-.06733704.0776604-.01398927.0165559-.02790835.0333027-.04169252.0501641-.02099634.0256764-.04201797.0520539-.06271013.0787-.02515574.0323942-.04982104.0651806-.07398853.0983529-.01778009.0244099-.03506525.0487043-.05208368.073198-.01440978.0207362-.02877765.041839-.0429476.0630851-.02476566.0371346-.04888466.074639-.07238725.1125656-.01107223.0178668-.02203797.0358781-.03286467.053982-.01849095.0309192-.03659485.0621418-.05428496.093628-.0130807.0232818-.02594595.0467279-.03858158.0703154-.01062085.0198248-.02114198.0398711-.03149712.0600166-.04906314.0954416-.09446083.1932571-.13592918.2931156-.06278399.1512397-.11642357.3066927-.16043893.466139-.0077567.0280919-.01527508.0565471-.02248591.0851247-.07926448.3141624-.12136062.6430287-.12136062.9817272v22.37c.65272035-.1894653 1.32269753-.313411 2-.37v-21c0-1.6568542 1.3431458-3 3-3h38c1.6568542 0 3 1.3431458 3 3v28c0 1.6568542-1.3431458 3-3 3h-29.05c.05.31.05.65.05 1 .0136126.2220138.0181502.4444444.0136126.6667362l-.0136126.3332638h30c.1345774 0 .2676025-.006646.398765-.0196277.0327895-.0032507.0648101-.0068165.0967143-.0107581.0359267-.0044366.0719033-.0093796.107724-.0147975.021445-.0032415.0432181-.0067178.0649317-.010369.0426797-.0071819.0846647-.0149458.1264143-.0233597.0240315-.0048396.0485342-.010016.0729531-.0154155.0429423-.0095002.0852186-.0195864.1272285-.0303377.0126697-.0032421.0254134-.0065708.0381321-.0099607.0495892-.0132168.0988011-.027363.1476141-.0424184.0142982-.0044109.0283631-.0088358.0423941-.0133361l.1133822-.0382606.0403383-.0145386c.0208874-.0076559.0416932-.0154811.0624157-.0234738l.0743378-.0295353.0450386-.018745c.0235428-.0099684.0469703-.0201558.07028-.0305597.0295695-.0131991.058825-.0266873.0878873-.0405157.025764-.0122543.05191-.0250442.0778939-.038109.0271458-.0136499.054008-.0275432.0806905-.0417297.0327575-.0174216.0648235-.0350465.0966178-.0530944.0250888-.0142378.050388-.0289654.075509-.0439607.0246609-.0147214.0490628-.0296461.0732904-.0448231.0319696-.0200268.0636336-.0404915.0949857-.0613871.0175183-.0116758.0348958-.0234563.0521751-.0353692.0374691-.0258328.0744529-.0522711.1109602-.0793162.0142919-.0105864.0286803-.021395.042993-.032298.0337686-.0257243.0670837-.0519476.099966-.0786827.0186685-.01518.0370567-.0304061.0553052-.0457926.0333532-.0281198.0663575-.0568808.0988789-.0861676.0107874-.0097149.0214666-.019437.0320928-.029216.0325573-.0299579.0647814-.0606112.096488-.0917891.0229799-.0226068.0450576-.0448393.0668735-.0673272.0204785-.0211049.0410148-.0427456.0613094-.0646137.0207018-.0223153.040636-.0442855.0603272-.0664762.0272578-.0307164.0541041-.0619205.0804718-.0935378.0137242-.0164596.0270855-.0327425.0403201-.0491319.0222613-.0275657.0442659-.0555663.0659013-.0838641.0147183-.0192543.0290515-.0383552.0432166-.0575875.0213219-.0289465.0423673-.0583403.0630207-.0880273.0186985-.0268727.0372407-.0542357.0554501-.0818376.0150738-.0228562.0296043-.0453768.0439133-.0680511.0213822-.0338735.0425209-.0685156.0631424-.1034989.017639-.0299303.0347062-.0597624.0513971-.0898322.0093208-.0167932.0184601-.0335412.0274827-.0503613.0208346-.038836.0411232-.0782111.0607707-.1179596.0094007-.0190227.0184991-.0378035.0274543-.0566655.0510788-.107569.0975798-.2180003.1391409-.3308212.0050165-.0136144.0100709-.0275719.0150495-.0415653.0325264-.0914827.0615897-.1836747.0873396-.2772395.0169307-.0615053.0324803-.1238301.0465493-.1867141l.0000489-.0002189c.0490741-.2193462.0801461-.445727.0915277-.6772843l.0048953-.1996403v-30c0-2.209139-1.790861-4-4-4h-40l-.110102.001486c-.0967817.0026155-.1927056.0086687-.287654.0180419-.0363636.0035874-.0728481.0076951-.1091807.0122901-.0327642.0041468-.0650485.0086358-.0972071.0135077-.0171041.0025896-.0345376.0053477-.0519333.008218-.0478858.007903-.0953459.0166283-.142505.0261832-.0171444.0034754-.0338704.0069785-.0505577.0105858-.0483907.0104569-.0967247.0218583-.1447114.0341274-.0172906.00442-.034713.0090004-.0520886.013695-.0430073.0116239-.0853921.0238443-.1274816.0367402-.0248602.0076122-.0502856.0156793-.0755995.0239923-.0385055.0126529-.0760563.0256221-.113349.03913-.032004.0115862-.0644367.0238115-.0966655.0364429l-.0543098.0217482-.0450386.018745c-.0253669.0107407-.0506.0217358-.0756961.0329819zm15.8140799 20.6520844h-14.1803149l.0003149 5.05c4.2791001.3913114 7.9386092 3.2384641 9.37 7.29l.1125.33.0975.33h29.42c.5128358 0 .9355072-.3860402.9932723-.8833789l.0067277-.1166211-.0003149-12h-14.1796851c-.4016109 1.1359423-1.440611 1.9153774-2.6308771 1.993537l-.1891229.006463h-6c-1.2048422-.0033861-2.2840039-.7261935-2.7513618-1.8236536zm9.82-9h-8v8c0 .5128358.3860402.9355072.8833789.9932723l.1166211.0067277h6c.5128358 0 .9355072-.3860402.9932723-.8833789l.0067277-.1166211zm-10 1h-14v6h14zm26 0h-14v6h14zm-1-9h-38c-.5128358 0-.9355072.3860402-.9932723.8833789l-.0067277.1166211-.0003149 6h14.0003149c0-.5128358.3860402-.9355072.8833789-.9932723l.1166211-.0067277h10c.5128358 0 .9355072.3860402.9932723.8833789l.0067277.1166211h13.9996851l.0003149-6c0-.5522847-.4477153-1-1-1zm-16.62-12h-4.76c-1.9347782 0-3.5150429 1.51785253-3.6149822 3.42774559l-.0050178.19225441v2.38h12v-2.38c0-1.99927079-1.6207292-3.62-3.62-3.62z" fill="#787e8c"/></svg>