<svg height="59" viewBox="0 0 58 59" width="58" xmlns="http://www.w3.org/2000/svg"><g fill="none" fill-rule="evenodd" opacity=".8"><g fill-rule="nonzero"><path d="m53 21h-15c0-.5522847-.4477153-1-1-1h-10c-.5522847 0-1 .4477153-1 1h-15c-.5522847 0-1 .4477153-1 1v8c0 .5522847.4477153 1 1 1h15.18c.4227483 1.1957287 1.5517451 1.9964356 2.82 2h6c1.2682549-.0035644 2.3972517-.8042713 2.82-2h15.18c.5522847 0 1-.4477153 1-1v-8c0-.5522847-.4477153-1-1-1zm-27 8h-14v-6h14zm10 1c0 .5522847-.4477153 1-1 1h-6c-.5522847 0-1-.4477153-1-1v-8h8zm16-1h-14v-6h14z" fill="#101527"/><path d="m56 14v30c0 2.209139-1.790861 4-4 4h-30c.020419-.3330206.020419-.6669794 0-1 0-.35 0-.69-.05-1h29.05c1.6568542 0 3-1.3431458 3-3v-28c0-1.6568542-1.3431458-3-3-3h-38c-1.6568542 0-3 1.3431458-3 3v21c-.67730247.056589-1.34727965.1805347-2 .37v-22.37c0-2.209139 1.790861-4 4-4h40c2.209139 0 4 1.790861 4 4z" fill="#fff"/><path d="m52 8h-12v-2.38c0-3.10384029-2.5161597-5.62-5.62-5.62h-4.76c-3.1038403 0-5.62 2.51615971-5.62 5.62v2.38h-12c-3.3137085 0-6 2.6862915-6 6v23.2c-2.51148263 1.2693012-4.43285601 3.4631081-5.36 6.12-.25606838.7084679-.43379408 1.4428439-.53 2.19-.00490247.0865973-.00490247.1734027 0 .26-.10041982.8135797-.10041982 1.6364203 0 2.45.13460863 1.2145081.47266345 2.3976999 1 3.5 1.82026702 3.8404332 5.69002365 6.2886944 9.94 6.2886944 4.2499763 0 8.119733-2.4482612 9.94-6.2886944.2446684-.5557283.4420344-1.1311004.59-1.72h30.42c3.3137085 0 6-2.6862915 6-6v-30c0-3.3137085-2.6862915-6-6-6zm-26-2.38c0-1.99927079 1.6207292-3.62 3.62-3.62h4.76c1.9992708 0 3.62 1.62072921 3.62 3.62v2.38h-12zm-15 50.38c-4.97056275 0-9-4.0294373-9-9s4.02943725-9 9-9c4.9705627 0 9 4.0294373 9 9s-4.0294373 9-9 9zm10.37-12.66c-1.4313908-4.0515359-5.0908999-6.8986886-9.37-7.29v-21.05c0-.5522847.4477153-1 1-1h38c.5522847 0 1 .4477153 1 1v28c0 .5522847-.4477153 1-1 1h-29.42c-.06-.22-.13-.44-.21-.66zm34.63.66c0 2.209139-1.790861 4-4 4h-30c.020419-.3330206.020419-.6669794 0-1 0-.35 0-.69-.05-1h29.05c1.6568542 0 3-1.3431458 3-3v-28c0-1.6568542-1.3431458-3-3-3h-38c-1.6568542 0-3 1.3431458-3 3v21c-.67730247.056589-1.34727965.1805347-2 .37v-22.37c0-2.209139 1.790861-4 4-4h40c2.209139 0 4 1.790861 4 4z" fill="#101527"/></g><path d="m10.5 45.5h1c1.3807118-.1380711 2.6119287.8692882 2.7499999 2.25s-.8692881 2.6119288-2.2499999 2.75v1c0 .5522847-.4477153 1-1 1s-1-.4477153-1-1v-1h-1c-.55228475 0-1-.4477153-1-1s.44771525-1 1-1h2.5c.2761424 0 .5-.2238576.5-.5s-.2238576-.5-.5-.5h-1c-1.38071184.1380711-2.61192871-.8692882-2.74999989-2.25s.86928807-2.6119288 2.24999989-2.75v-1c0-.5522847.4477153-1 1-1s1 .4477153 1 1v1h1c.5522847 0 1 .4477153 1 1s-.4477153 1-1 1h-2.5c-.2761424 0-.5.2238576-.5.5s.2238576.5.5.5z" fill="#101527"/></g></svg>