<svg height="58" viewBox="0 0 58 58" width="58" xmlns="http://www.w3.org/2000/svg"><g fill="none" fill-rule="evenodd" opacity=".8"><g fill-rule="nonzero"><path d="m29 38h-19c-.55228475 0-1-.4477153-1-1s.44771525-1 1-1h19c.5522847 0 1 .4477153 1 1s-.4477153 1-1 1z" fill="#101527"/><path d="m30.09 44h-20.09c-.55228475 0-1-.4477153-1-1s.44771525-1 1-1h20.09c.5522847 0 1 .4477153 1 1s-.4477153 1-1 1z" fill="#101527"/><path d="m34 50h-24c-.55228475 0-1-.4477153-1-1s.44771525-1 1-1h24c.5522847 0 1 .4477153 1 1s-.4477153 1-1 1z" fill="#101527"/><path d="m43 27.17c-.5522847 0-1-.4477153-1-1v-15.17c0-.5522847.4477153-1 1-1s1 .4477153 1 1v15.17c0 .5522847-.4477153 1-1 1z" fill="#101527"/><path d="m41 58h-38c-1.62003071.0335201-2.96176633-1.2500737-3-2.87v-52.26c.03823367-1.61992632 1.37996929-2.90352006 3-2.87h30c.5522847 0 1 .44771525 1 1s-.4477153 1-1 1h-30c-.50525928-.00428541-.9343321.36900795-1 .87v52.26c.0656679.500992.49474072.8742854 1 .87h38c.5522847 0 1-.4477153 1-1v-5.17c0-.5522847.4477153-1 1-1s1 .4477153 1 1v5.17c0 1.6568542-1.3431458 3-3 3z" fill="#101527"/><path d="m44 11c.0143756.0827134.0143756.1672866 0 .25.0089093.0462414.0089093.0937586 0 .14-.0487431.119193-.120049.2278496-.21.32-.0953502.0858873-.2032616.1567042-.32.21-.0462414.0089093-.0937586.0089093-.14 0-.1016187.0537392-.2150534.0812385-.33.0800401h-8c-.8079276.0001799-1.5817924-.3254815-2.1464578-.9033224-.5646653-.5778409-.8723939-1.35901005-.8535422-2.1667177v-7.93c-.0143756-.08271336-.0143756-.16728664 0-.25-.0089093-.04624144-.0089093-.09375856 0-.14.0955448-.24250703.287493-.43445524.53-.53.0462414-.00890928.0937586-.00890928.14 0 .162386-.05342106.337614-.05342106.5 0 .0462414-.00890928.0937586-.00890928.14 0 .119193.04874313.2278496.12004903.32.21.2168263.17481351.3509229.43213409.37.71v7.93c-.0194471.27712178.0772604.54984431.2669458.75280767s.4552517.31787383.7330542.31719233h8c.265803-.00153676.5212812.1028135.71.29.089951.0921504.1612569.200807.21.32.0089093.0462414.0089093.0937586 0 .14.0415529.0778151.0686576.1625175.08.25z" fill="#101527"/><path d="m40.58 10.000003h-5.58c-.2778025.0006785-.5433688-.11423197-.7330542-.31719533s-.2863929-.47568589-.2669458-.75280767v-5.51z" fill="#fff" opacity=".5"/><path d="m44 11c.0143756.0827134.0143756.1672866 0 .25.0089093.0462414.0089093.0937586 0 .14-.0487431.119193-.120049.2278496-.21.32-.0953502.0858873-.2032616.1567042-.32.21-.0462414.0089093-.0937586.0089093-.14 0-.1016187.0537392-.2150534.0812385-.33.0800401-.265803.0014967-.5212812-.1028536-.71-.2900401l-.29-.29-9.42-9.42-.29-.29c-.1871865-.18871883-.2915368-.44419702-.29-.71-.0143756-.08271336-.0143756-.16728664 0-.25-.0089093-.04624144-.0089093-.09375856 0-.14.0955448-.24250703.287493-.43445524.53-.53.0462414-.00890928.0937586-.00890928.14 0 .162386-.05342106.337614-.05342106.5 0 .0462414-.00890928.0937586-.00890928.14 0 .119193.04874313.2278496.12004903.32.21l10 10c.089951.0921504.1612569.200807.21.32.0089093.0462414.0089093.0937586 0 .14.0698909.071497.1243498.156589.16.25z" fill="#101527"/><path d="m55 55.3c-.7953814-.0007002-1.5579306-.3172301-2.12-.88l-5.65-5.65c-.1908556-.1870714-.2988906-.4427541-.3-.71.0011094-.2672459.1091444-.5229286.3-.71l2.77-2.82c.1877666-.1893127.4433625-.2957983.71-.2957983s.5222334.1064856.71.2957983l5.66 5.65c1.1698135 1.1712702 1.1698135 3.0687298 0 4.24-.552232.5530798-1.2985063.8688113-2.08.88zm-5.65-7.24 4.94 4.94c.3900375.3877236 1.0199625.3877236 1.41 0 .3877236-.3900375.3877236-1.0199625 0-1.41l-5-5z" fill="#101527"/><path d="m41 51.0000085c-5.8878662.0066726-11.0451069-3.9447106-12.5707506-9.6314868-1.5256437-5.6867763.9612709-11.6889272 6.0618431-14.6302155 5.1005722-2.9412882 11.5411617-2.0872584 15.6989075 2.0816938 3.7088227 3.7188191 4.8155768 9.3040278 2.8051574 14.1561608s-6.7430201 8.0178795-11.9951574 8.0238477zm0-24.000017c-5.2481012.0065258-9.7606798 3.7195547-10.7777829 8.8681574-1.0171031 5.1486028 1.7445791 10.2986571 6.5959654 12.3003216 4.8513862 2.0016645 10.4411425.2973837 13.3504999-4.0704817 2.9093574-4.3678655 2.3279263-10.1826644-1.3886824-13.8879888-2.0652823-2.0590117-4.8636826-3.2136216-7.78-3.2100085z" fill="#101527"/></g><path d="m40.7626567 37h1c1.3807118-.1380711 2.6119287.8692882 2.7499999 2.25s-.8692881 2.6119288-2.2499999 2.75v1c0 .5522847-.4477152 1-1 1-.5522847 0-1-.4477153-1-1v-1h-1c-.5522847 0-1-.4477153-1-1s.4477153-1 1-1h2.5c.2761424 0 .5-.2238576.5-.5s-.2238576-.5-.5-.5h-1c-1.3807118.1380711-2.6119287-.8692882-2.7499999-2.25s.8692881-2.6119288 2.2499999-2.75v-1c0-.5522847.4477153-1 1-1 .5522848 0 1 .4477153 1 1v1h1c.5522848 0 1 .4477153 1 1s-.4477152 1-1 1h-2.5c-.2761424 0-.5.2238576-.5.5s.2238576.5.5.5z" fill="#101527"/><path d="m34.92 15.62c-.1014749-.2443493-.2956507-.4385251-.54-.54-.1202223-.051241-.2493227-.07842-.38-.08h-4c-.5522847 0-1 .4477153-1 1s.4477153 1 1 1h1.59l-8.09 8.09-3.79-3.8c-.1877666-.1893127-.4433625-.2957983-.71-.2957983s-.5222334.1064856-.71.2957983l-9 9c-.18931265.1877666-.29579832.4433625-.29579832.71s.10648567.5222334.29579832.71c.1877666.1893127.44336246.2957983.71.2957983.2666375 0 .5222334-.1064856.71-.2957983l8.29-8.3 3.79 3.8c.1877666.1893127.4433625.2957983.71.2957983s.5222334-.1064856.71-.2957983l8.79-8.8v1.59c0 .5522847.4477153 1 1 1s1-.4477153 1-1v-4c-.00158-.1306773-.028759-.2597777-.08-.38z" fill="#101527" fill-rule="nonzero"/></g></svg>